<?xml version="1.0" encoding="utf-8"?>
<!-- Generator: Adobe Illustrator 22.1.0, SVG Export Plug-In . SVG Version: 6.00 Build 0)  -->
<svg version="1.1" id="oae" xmlns="http://www.w3.org/2000/svg" xmlns:xlink="http://www.w3.org/1999/xlink" x="0px" y="0px"
	 viewBox="0 0 96 96" style="enable-background:new 0 0 96 96;" xml:space="preserve">
<style type="text/css">
	.st0{fill:#3E7AB4;}
	.st1{fill:#FFFFFF;}
</style>
<rect id="bg" x="0.1" y="0.1" class="st0" width="95.9" height="95.9"/>
<path id="icone" class="st1" d="M50.2,33.1c0-1.2-1-2.1-2.1-2.1c-1.2,0-2.1,1-2.1,2.1c0,1.2,1,2.1,2.1,2.1
	C49.2,35.2,50.2,34.3,50.2,33.1z M43.1,36.2c1.1-0.5,1.6-1.7,1.2-2.8c-0.5-1.1-1.7-1.6-2.8-1.2c-1.1,0.5-1.6,1.7-1.2,2.8
	C40.8,36.1,42,36.6,43.1,36.2z M35.9,35.9c-0.8,0.8-0.8,2.2,0,3s2.2,0.8,3,0s0.8-2.2,0-3C38.1,35.1,36.8,35.1,35.9,35.9z M32.2,41.5
	c-0.5,1.1,0.1,2.3,1.2,2.8c1.1,0.5,2.3-0.1,2.8-1.2c0.5-1.1-0.1-2.3-1.2-2.8C33.9,39.9,32.7,40.4,32.2,41.5z M30.9,48.1
	c0,1.2,1,2.1,2.1,2.1c1.2,0,2.1-1,2.1-2.1c0-1.2-1-2.1-2.1-2.1C31.9,45.9,30.9,46.9,30.9,48.1z M36.2,53c-0.5-1.1-1.7-1.6-2.8-1.2
	c-1.1,0.5-1.6,1.7-1.2,2.8c0.5,1.1,1.7,1.6,2.8,1.2C36.1,55.3,36.6,54.1,36.2,53z M35.9,57.2c-0.8,0.8-0.8,2.2,0,3s2.2,0.8,3,0
	s0.8-2.2,0-3C38.1,56.3,36.8,56.3,35.9,57.2z M44.3,62.8c0.5-1.1-0.1-2.3-1.2-2.8c-1.1-0.5-2.3,0.1-2.8,1.2
	c-0.5,1.1,0.1,2.3,1.2,2.8C42.6,64.4,43.8,63.8,44.3,62.8z M45.9,63.1c0,1.2,1,2.1,2.1,2.1c1.2,0,2.1-1,2.1-2.1c0-1.2-1-2.1-2.1-2.1
	C46.9,60.9,45.9,61.9,45.9,63.1z M53,60c-1.1,0.5-1.6,1.7-1.2,2.8c0.5,1.1,1.7,1.6,2.8,1.2c1.1-0.5,1.6-1.7,1.2-2.8
	C55.3,60,54.1,59.5,53,60z M57.1,57.2c-0.8,0.8-0.8,2.2,0,3s2.2,0.8,3,0s0.8-2.2,0-3C59.3,56.3,58,56.3,57.1,57.2z M63.9,54.6
	c0.5-1.1-0.1-2.3-1.2-2.8c-1.1-0.5-2.3,0.1-2.8,1.2c-0.5,1.1,0.1,2.3,1.2,2.8C62.2,56.2,63.4,55.7,63.9,54.6z M60.9,48.1
	c0,1.2,1,2.1,2.1,2.1c1.2,0,2.1-1,2.1-2.1c0-1.2-1-2.1-2.1-2.1C61.9,45.9,60.9,46.9,60.9,48.1z M59.9,43.1c0.5,1.1,1.7,1.6,2.8,1.2
	c1.1-0.5,1.6-1.7,1.2-2.8c-0.5-1.1-1.7-1.6-2.8-1.2C60,40.8,59.5,42.1,59.9,43.1z M60.2,39c0.8-0.8,0.8-2.2,0-3s-2.2-0.8-3,0
	s-0.8,2.2,0,3S59.3,39.8,60.2,39z M54.6,32.2c-1.1-0.5-2.3,0.1-2.8,1.2c-0.5,1.1,0.1,2.3,1.2,2.8c1.1,0.5,2.3-0.1,2.8-1.2
	C56.2,33.9,55.7,32.7,54.6,32.2z M55.5,48.1c0-4.1-3.4-7.5-7.5-7.5s-7.5,3.4-7.5,7.5s3.4,7.5,7.5,7.5S55.5,52.2,55.5,48.1z
	 M29.8,34.1c2.4,0,4.3-1.9,4.3-4.3s-1.9-4.3-4.3-4.3s-4.3,1.9-4.3,4.3S27.5,34.1,29.8,34.1z M22.3,43.8c-2.4,0-4.3,1.9-4.3,4.3
	c0,2.4,1.9,4.3,4.3,4.3s4.3-1.9,4.3-4.3C26.6,45.7,24.7,43.8,22.3,43.8z M29.8,62c-2.4,0-4.3,1.9-4.3,4.3s1.9,4.3,4.3,4.3
	s4.3-1.9,4.3-4.3S32.2,62,29.8,62z M48,69.5c-2.4,0-4.3,1.9-4.3,4.3s1.9,4.3,4.3,4.3c2.4,0,4.3-1.9,4.3-4.3S50.4,69.5,48,69.5z
	 M66.3,62c-2.4,0-4.3,1.9-4.3,4.3s1.9,4.3,4.3,4.3c2.4,0,4.3-1.9,4.3-4.3C70.5,63.9,68.6,62,66.3,62z M73.8,43.8
	c-2.4,0-4.3,1.9-4.3,4.3c0,2.4,1.9,4.3,4.3,4.3s4.3-1.9,4.3-4.3C78,45.7,76.1,43.8,73.8,43.8z M66.3,34.1c2.4,0,4.3-1.9,4.3-4.3
	s-1.9-4.3-4.3-4.3S62,27.4,62,29.8S63.9,34.1,66.3,34.1z M48,26.6c2.4,0,4.3-1.9,4.3-4.3S50.4,18,48,18s-4.3,1.9-4.3,4.3
	C43.8,24.7,45.7,26.6,48,26.6z"/>
</svg>
