<?xml version="1.0" encoding="utf-8"?>
<!-- Generator: Adobe Illustrator 22.1.0, SVG Export Plug-In . SVG Version: 6.00 Build 0)  -->
<svg version="1.1" id="actu-tour-2" xmlns="http://www.w3.org/2000/svg" xmlns:xlink="http://www.w3.org/1999/xlink" x="0px"
	 y="0px" viewBox="0 0 96 96" style="enable-background:new 0 0 96 96;" xml:space="preserve">
<style type="text/css">
	.st0{fill:#EC407A;}
	.st1{fill:#FFFFFF;}
</style>
<rect id="bg" x="0.1" y="0.1" class="st0" width="95.9" height="95.9"/>
<path id="icone" class="st1" d="M68.7,29.9l-4.1-4.1l-4.1,4.1l-4.1-4.1l-4.1,4.1l-4.1-4.1L44,29.9l-4.1-4.1l-4.1,4.1l-4.1-4.1
	l-4.1,4.1l-4.1-4.1v39.6c0,2.7,2.2,4.9,5,4.9h39.6c2.7,0,5-2.2,5-4.9V25.8L68.7,29.9z M58.2,62.9c-5.3,0.7-12-0.1-13.4-0.2
	c-1.4-0.1-3.7-0.2-6-0.2c-2.4,0-7.7,0.4-8.7,0.6l0.4-1.9c1.8-0.2,5.6-0.5,8.6-0.5c5.2,0.1,10.3,0.8,13.7,1.2
	c1.1,0.1,1.9,0.2,2.5,0.3c1.5,0.1,2.8,0.2,4.2,0.2c0.4,0,0.7,0,1.1,0C59.8,62.7,59,62.8,58.2,62.9z M66.7,60.3
	c-3.1,1-6.9,1.2-11.3,0.7c-0.6-0.1-1.4-0.2-2.5-0.3c-3.4-0.4-8.5-1-13.8-1.2c-2.8-0.1-6.4,0.2-8.4,0.5l0.4-1.8c0,0,1.8-0.3,3.3-0.4
	c0.6,0,2.4-0.1,3.2-0.1c1.3,0,5.6,0.2,9.2,0.6c1,0.1,11.4,1.6,14,1.7c0.3,0,0.5,0,0.8,0c1,0.1,2,0.1,3.1,0c1.6-0.1,3.1-0.4,4.3-0.7
	C68.6,59.6,67.8,59.9,66.7,60.3z M32,46.1C31.9,46.1,31.9,46.1,32,46.1l1.2-6.5c0-0.1,0.1-0.1,0.1-0.1h2.4c0.1,0,0.1,0,0.1,0.1
	l-0.2,1.1h1.7l0.2-1.1c0-0.1,0.1-0.1,0.1-0.1H40c0.1,0,0.1,0.1,0.1,0.1l-0.2,1.1h1.7l0.2-1.1c0,0,0-0.1,0.1-0.1h2.4
	c0,0,0.1,0,0.1,0.1l-0.2,1.1h1.7l0.2-1.1c0-0.1,0.1-0.1,0.1-0.1h2.4c0,0,0.1,0,0.1,0.1L47.5,46c0,0,0,0,0,0.1c0,0-1.7,0.9-2,3
	L44,56.7c-6.4-0.5-10.3-0.4-12.5,0.1l1.6-7.7C33.1,47.8,32,46.1,32,46.1z M50.3,40.9l0.3-1.4h4.7l-1.2,6.6h-1.8
	c-1.6,0-2.4,3.3-3.1,6.8c-0.4,2.3-0.8,4.4-0.8,4.4c-1.5-0.2-0.7-0.1-1.5-0.2l1.5-7.6c0,0,0.2-2.6,2.2-4.3c1-0.8,2.3-0.8,2.3-0.8
	l0.8-3.5H50.3z"/>
</svg>
