<?xml version="1.0" encoding="utf-8"?>
<!-- Generator: Adobe Illustrator 22.1.0, SVG Export Plug-In . SVG Version: 6.00 Build 0)  -->
<svg version="1.1" id="actu-default" xmlns="http://www.w3.org/2000/svg" xmlns:xlink="http://www.w3.org/1999/xlink" x="0px"
	 y="0px" viewBox="0 0 96 96" style="enable-background:new 0 0 96 96;" xml:space="preserve">
<style type="text/css">
	.st0{fill:#EC407A;}
	.st1{fill:#FFFFFF;}
</style>
<rect id="bg" x="0.1" y="0.1" class="st0" width="95.9" height="95.9"/>
<path id="icone" class="st1" d="M67.9,45.6H28.3v-7.4h39.6 M67.9,55.5H50.6v-4.9h17.3 M67.9,65.4H50.6v-5h17.3 M45.6,65.4H28.3V50.5
	h17.3 M68.7,29.9l-4.1-4.1l-4.1,4.1l-4.1-4.1l-4.1,4.1l-4.1-4.1L44,29.9l-4.1-4.1l-4.1,4.1l-4.1-4.1l-4.1,4.1l-4.1-4.1v39.6
	c0,2.7,2.2,4.9,5,4.9h39.6c2.7,0,4.9-2.2,4.9-4.9V25.8L68.7,29.9z"/>
</svg>
