<?xml version="1.0" encoding="UTF-8" standalone="no"?>
<svg
   xmlns:dc="http://purl.org/dc/elements/1.1/"
   xmlns:cc="http://creativecommons.org/ns#"
   xmlns:rdf="http://www.w3.org/1999/02/22-rdf-syntax-ns#"
   xmlns:svg="http://www.w3.org/2000/svg"
   xmlns="http://www.w3.org/2000/svg"
   version="1.1"
   id="svg2"
   width="95.9"
   height="95.9"
   viewBox="0 0 95.9 95.9">
  <defs
     id="defs6" />
  <rect
     height="95.9"
     width="95.9"
     class="st0"
     y="0"
     x="0"
     id="bg"
     style="fill:#ec407a" />
  <g
     id="g875"
     transform="matrix(1.68,0,0,1.68,18.6,19.1)">
    <path
       id="path849"
       d="M 8.18,25.3 C 8.82,19 10.4,13.4 14.7,7.97 19.3,3.28 24.2,1.71 29.2,1.34 28.4,6.56 26.8,11.5 23.9,16.2 19.7,21.4 14.7,24.7 8.18,25.3 Z"
       style="fill:#ffffff" />
    <path
       id="path851"
       d="m 10.7,30.2 c 0.9,-2.9 3.8,-4.5 6.7,-6.1 3.1,-1.2 5.9,-1.6 8.6,-1.5 4.4,0.5 10.1,2.1 9.8,4 -2.5,2.6 -5.6,4.7 -10.3,5.3 -3.1,0.4 -6.3,0.6 -9.6,0.1 -1.7,-0.4 -3.5,-1 -5.2,-1.8 z"
       style="fill:#ffffff" />
    <path
       id="path853"
       d="M 3.39,8.32 C 1.89,10 0.594,12.2 0.212,16.9 0.861,22.6 2.21,23.4 3.39,25.4 4.65,24.7 6.53,22.3 6.56,17 6.38,12.7 5.06,10.2 3.39,8.32 Z"
       style="fill:#ffffff" />
  </g>
  <metadata
     id="metadata817">
    <rdf:RDF>
      <cc:Work
         rdf:about="">
        <dc:title></dc:title>
      </cc:Work>
    </rdf:RDF>
  </metadata>
</svg>
