<?xml version="1.0" encoding="UTF-8" standalone="no"?>
<svg
   xmlns:dc="http://purl.org/dc/elements/1.1/"
   xmlns:cc="http://creativecommons.org/ns#"
   xmlns:rdf="http://www.w3.org/1999/02/22-rdf-syntax-ns#"
   xmlns:svg="http://www.w3.org/2000/svg"
   xmlns="http://www.w3.org/2000/svg"
   version="1.1"
   height="96"
   width="96"
   xml:space="preserve"
   id="annuaire"><defs
     id="defs9" /><rect
     style="fill:#ec407a;fill-opacity:1"
     height="95.9"
     width="95.9"
     class="st0"
     y="0.1"
     x="0.1"
     id="bg" /><g
     id="icone"><path
       id="path839"
       class="st1"
       d="M 78,73.5 H 18 v 5.8 H 78 V 73.5 M 78,61.9 H 18 v 5.8 H 78 V 62"
       style="fill:#ffffff" /><path
       style="fill:#ffffff"
       d="M 78,28.3 H 39.7 v 5.8 H 78 V 28.3 M 78,16.8 H 36.8 v 5.7 L 78,22.6 v -5.8"
       class="st1"
       id="path837" /><path
       id="path818"
       class="st1"
       d="M 78,50.3 H 18 v 5.8 H 78 V 50.3 M 78,38.7 H 18 v 5.8 h 60 v -5.8"
       style="fill:#ffffff" /><path
       d="m 22.6,20.4 c 0,-3.1 2.3,-6.2 5.4,-6.2 3.8,0 6.2,3.1 6.2,6.2 0,3 -2.4,6.1 -6.2,6.1 -3.1,0 -5.4,-3.1 -5.4,-6.1 m 10,6.1 H 24.2 C 21.1,26.5 18,28 18,30.3 v 3.9 H 38 V 30.3 C 38,28 35.7,26.5 32.6,26.5"
       style="fill:#ffffff;stroke-width:0.771"
       id="icone-1" /></g><metadata
     id="metadata860"><rdf:RDF><cc:Work
         rdf:about=""><dc:title></dc:title></cc:Work></rdf:RDF></metadata></svg>