<?xml version="1.0" encoding="UTF-8" standalone="no"?>
<svg
   xmlns:dc="http://purl.org/dc/elements/1.1/"
   xmlns:cc="http://creativecommons.org/ns#"
   xmlns:rdf="http://www.w3.org/1999/02/22-rdf-syntax-ns#"
   xmlns:svg="http://www.w3.org/2000/svg"
   xmlns="http://www.w3.org/2000/svg"
   width="100%"
   version="1.1"
   height="96"
   id="actu-tour-3"
   x="0px"
   y="0px"
   viewBox="0 0 96 96"
   xml:space="preserve"><defs
     id="defs9" /><style
     type="text/css"
     id="style2">
	.st0{fill:#EC407A;}
	.st1{fill:#FFFFFF;}
</style><rect
     style="fill:#ec407a"
     id="bg"
     x="0.1"
     y="0.1"
     class="st0"
     width="95.9"
     height="95.9" /><path
     id="path823"
     d="M 23.2,47.7 47.6,24.7 81.1,55.9 46.4,20.1 Z"
     style="fill:#ffffff;fill-opacity:1;stroke:#ffffff;stroke-width:0.116px;stroke-linecap:butt;stroke-linejoin:miter;stroke-opacity:1" /><g
     transform="matrix(0.146,0,0,0.146,26,36)"
     id="g834"><path
       id="path848"
       d="m 168,78.3 c -7,-3.7 -9,-8.4 -9,-18.3 1,-10.8 4,-17.6 13,-27.1 9,-9 17,-12.7 26,-12.8 5,-0.1 6,0.3 8,2.2 11,9.7 -5,26.8 -27,30.5 -3,0.6 -7,1.6 -7,2.2 -2,2.1 -1,11.9 1,14.1 4,5.6 12,6 20,0.9 8,-5 10,-5.9 11,-5.1 1,1.2 -8,9.2 -14,12.1 -8,3.9 -16,4.3 -22,1.3 z m 16,-30.8 c 2,-1 6,-3.1 8,-4.6 6,-5.2 10,-15.3 7,-18.4 -6,-4.6 -19,7.9 -25,23.6 -1,2.5 -1,2.5 2,1.9 2,-0.4 5,-1.5 8,-2.5 z M 63.6,77.5 C 43,69.5 37.1,43.4 52.4,28 c 6,-6 12.5,-8.5 22.1,-8.5 7,0 8.9,0.4 13.5,2.8 4.7,2.4 5.4,3.2 5.7,6 l 0.3,3.3 -4.5,-3.4 c -12.1,-9.3 -29.4,-6 -37.3,7.2 -7.9,13.2 -4.3,28.1 8.5,35.8 9.5,5.6 18,5.6 27.6,-0.2 5.5,-3.3 5.6,-3.3 5.6,-1.1 0,7.4 -18.8,12.1 -30.3,7.6 z M 105,49 c 0,-28.8 0,-29.5 2,-29.5 2,0 2,0.7 2,12.5 v 12.5 h 17 18 V 32 19.5 h 3 2 V 49 78.5 h -2 -3 v -15 -15 h -18 -17 v 15 c 0,14.3 0,15 -2,15 -2,0 -2,-0.7 -2,-29.5 z m 115,0 V 19.5 h 7 c 10,0.1 15,2.5 18,8.2 2,5.4 3,10.3 0,14.8 -2,4.2 -7,8 -11,8 -4,0 -4,0.3 6,14.2 10,14.7 10,13.8 7,13.8 -2,0 -4,-2.4 -12,-13.5 -5,-7.4 -9,-13.7 -10,-14 -1,-0.4 -1,4.6 -1,13.4 0,13.4 0,14.1 -2,14.1 -2,0 -2,-0.7 -2,-29.5 z m 16,-3.5 c 8,-3 8,-18 0,-20.9 -2,-0.6 -5,-1.1 -8,-1.1 h -4 V 35 46.5 h 5 c 3,0 6,-0.4 7,-1 z"
       style="fill:#ffffff" /><path
       id="path846"
       d="m 170,79.5 c -4,-1.3 -10,-8 -11,-12.5 -3,-20.4 18,-46.5 39,-46.5 8,0 11,2.3 11,8.9 0,3.3 -1,5.8 -2,8.2 -5,7 -18,14 -31,15.7 -4,0.7 -4,0.9 -5,4.6 -2,4.9 0,11.1 3,13.1 7,4.3 14,3.3 23,-2.9 4,-2.7 5,-3.5 6,-2.8 2,1.3 -8,8.6 -15,11.9 -6,2.7 -13,3.7 -18,2.3 z M 185,47 c 10,-5.1 15,-11.7 15,-18.7 0,-3.6 -1,-4.3 -3,-4.6 -4,-0.6 -7,0.7 -12,5.8 -4,4.2 -12,17.8 -12,20.5 0,1.3 7,-0.6 12,-3 z M 65.3,78.1 C 56.7,75.3 49.1,68.1 45.4,59.3 43.4,54.5 43.5,45.1 45.5,39.2 47.6,33 54.7,25.3 61.1,22.1 c 6.6,-3.3 18.7,-3.7 24.6,-0.8 7,3.4 8.2,4.6 8.2,7.5 v 2.9 l -3.4,-3 C 80.7,20.1 65.5,20.9 55.9,30.5 51,35.4 48.6,40.9 48.1,48.3 46.6,70 72.9,83.4 90.7,69.9 l 3.4,-2.6 -0.4,2.8 c -0.7,6.6 -18,11.4 -28.4,8 z M 105,49 c 0,-28.8 0,-29.5 2,-29.5 2,0 2,0.7 2,12.5 v 12.5 h 17 18 V 32 c 0,-11.8 0,-12.5 2,-12.5 2,0 2,0.7 2,29.5 0,28.8 0,29.5 -2,29.5 -2,0 -2,-0.7 -2,-15 v -15 h -18 -17 v 15 c 0,14.3 0,15 -2,15 -2,0 -2,-0.7 -2,-29.5 z M 220,48.9 V 19.2 l 9,0.5 c 9,0.5 11,1.7 15,7.2 2,2.1 2,4.2 2,8.5 0,8.8 -3,13.4 -12,14.9 l -4,0.7 2,2.5 c 1,1.4 5,7.6 9,13.7 7,10.3 8,11.3 6,11.3 -2,0 -4,-2.8 -12,-14 -5,-7.6 -10,-13.9 -10,-14 -1,0 -1,6.3 -1,14 0,13.3 0,14 -2,14 -2,0 -2,-0.7 -2,-29.6 z m 18,-4.2 c 4,-2.9 6,-8.4 4,-13.3 -1,-5.3 -6,-7.9 -13,-7.9 h -5 v 12.1 12.2 l 6,-0.6 c 3,-0.3 6,-1.4 8,-2.5 z"
       style="fill:#ffffff" /><path
       id="path844"
       d="m 170,79.5 c -4,-1.3 -10,-8 -11,-12.5 -2,-11.2 3,-23.4 14,-34.2 8,-8.2 16,-12.3 25,-12.3 8,0 11,2.3 11,8.8 0,2.9 -1,5.9 -2,7.9 -4,6.8 -17,13.5 -29,15.8 -6,1.1 -6,1.2 -7,4.9 -2,7.6 2,14.5 9,15.9 5,0.7 11,-1.5 17,-5.8 4,-2.6 5,-3.4 6,-2.7 2,1.3 -8,8.6 -15,11.9 -6,2.7 -13,3.7 -18,2.3 z m 11,-30.6 c 6,-2.2 12,-6.7 16,-11.7 3,-3.4 3,-4.9 3,-8.7 0,-4.3 -1,-4.5 -4,-4.8 -4,-0.4 -9,2.8 -13,8.5 -3,3.5 -10,15.9 -10,17.6 0,1.1 3,0.8 8,-0.9 z M 66.4,78.2 C 59.6,75.9 56.3,73.8 51.6,68.5 40.4,56.1 41.7,37.9 54.4,26.7 c 5.7,-5 11.9,-7.2 20.5,-7.2 5.5,0 7.8,0.6 12.8,3.1 5.2,2.5 6.2,3.5 6.2,5.6 0,2.5 -0.1,2.5 -2.3,0.9 -8.6,-6.2 -17.2,-7.9 -25.4,-5.2 -19.1,6.3 -24.7,31 -10.1,44.2 10.4,9.3 23.8,10 34.6,1.8 l 3.4,-2.6 -0.4,2.8 C 93,76.3 75.9,81.3 66.4,78.2 Z M 105,49 c 0,-28.8 0,-29.5 2,-29.5 2,0 2,0.7 2,12.5 v 12.5 h 18 18 V 32 c 0,-10.4 0,-12.5 2,-12.5 1,0 1,3.9 1,29.5 0,25.6 0,29.5 -1,29.5 -2,0 -2,-2.3 -2,-15 v -15 h -18 -18 v 15 c 0,14.3 0,15 -2,15 -2,0 -2,-0.7 -2,-29.5 z m 115,0 V 19.5 h 6 c 3,0 7,0.5 10,1.1 9,2.7 13,13.1 8,23 -1,3.4 -5,5.9 -10,6.7 l -4,0.7 4,6 c 2,3.3 7,9.5 10,13.7 5,7.2 5,7.8 3,7.8 -2,-0.1 -4,-2.9 -12,-14 -5,-7.7 -10,-14 -10,-14 -1,0 -1,6.3 -1,14 0,13.3 0,14 -2,14 -2,0 -2,-0.7 -2,-29.5 z m 15,-2.9 c 5,-1.9 7,-4.8 8,-9.4 1,-7.9 -5,-13.2 -14,-13.2 h -5 v 12 12 h 4 c 2,0 6,-0.6 7,-1.4 z"
       style="fill:#ffffff" /><path
       id="path842"
       d="M 66.4,78.2 C 59.6,75.9 56.3,73.8 51.6,68.5 40.4,56.1 41.7,37.9 54.4,26.7 c 5.7,-5 11.9,-7.2 20.4,-7.2 9.4,0.1 19.1,4.7 19.1,9.1 0,1.6 -0.6,1.5 -4.7,-1.1 -2.6,-1.7 -6.3,-3.5 -8.3,-4 -16.5,-4.6 -33,8.3 -33,25.9 0,7.9 2.4,13.4 8.2,18.6 10.4,9.4 23.7,10.1 34.6,1.9 l 3.4,-2.6 -0.4,2.8 C 93,76.3 75.9,81.3 66.4,78.2 Z M 167,77.3 c -6,-4.3 -7,-7 -7,-16.1 0,-7.2 0,-9 3,-14.7 4,-7.9 13,-18.3 21,-22.4 4,-2.2 7,-3 13,-3.4 6,-0.4 7,-0.3 9,2.1 5,4.9 3,14.4 -4,19.9 -7,4.6 -16,8.7 -24,10 l -7,1.2 -1,4.2 c 0,6 1,10 4,12.8 6,5.2 14,4.2 23,-3.1 7,-4.7 8,-3.2 2,2.2 -7,6.2 -13,8.9 -21,9.3 -7,0.3 -8,0.1 -11,-2 z m 15,-28.9 c 11,-4.1 21,-16.2 18,-22.4 -2,-4.9 -10,-2.7 -16,4.5 -4,4.1 -9,13.5 -10,17.8 -1,2.9 1,2.9 8,0.1 z M 105,49 c 0,-28.8 0,-29.5 2,-29.5 2,0 2,0.7 2,12.5 v 12.5 h 18 18 V 32 c 0,-10.4 0,-12.5 2,-12.5 1,0 1,3.9 1,29.5 0,25.6 0,29.5 -1,29.5 -2,0 -2,-2.3 -2,-15 v -15 h -18 -18 v 15 c 0,14.3 0,15 -2,15 -2,0 -2,-0.7 -2,-29.5 z m 115,0 V 19.5 h 6 c 12,0 18,3.8 20,11.9 2,9.6 -3,17.3 -12,18.9 l -4,0.7 4,6 c 2,3.3 7,9.5 10,13.7 5,7.2 5,7.8 3,7.8 -2,-0.1 -5,-3.1 -12,-14 -5,-7.7 -10,-14 -10,-14 -1,0 -1,6.3 -1,14 0,13.3 0,14 -2,14 -2,0 -2,-0.7 -2,-29.5 z m 19,-5.3 c 4,-4 5,-10.3 2,-15 -2,-3.9 -5,-5.2 -12,-5.2 h -5 v 12.1 12.2 l 6,-0.6 c 5,-0.4 7,-1.1 9,-3.5 z"
       style="fill:#ffffff" /><path
       id="path840"
       d="M 67,77.9 C 52.9,74.1 44.5,63.3 44.5,49 c 0,-12 5.6,-21 16.6,-26.4 5.1,-2.6 7.3,-3.1 13.2,-3.1 10,0.1 19.6,4.6 19.6,9.2 0,1.7 -0.4,1.6 -4.3,-1 -6,-4.1 -11,-5.5 -17.7,-4.9 -16.5,1.5 -28,17.8 -23.5,33.2 3.1,10.9 14.6,19.8 25.5,19.8 6,0 13.9,-2.9 17.7,-6.5 l 2.3,-2.1 v 2.5 c 0,3.2 -4.7,6.2 -12.9,8.3 -6.6,1.8 -7.1,1.8 -14,-0.1 z m 100,-0.6 c -6,-4.3 -7,-7 -7,-16.1 0,-7.2 0,-9 3,-14.7 4,-7.9 13,-18.3 21,-22.4 4,-2.2 7,-3 13,-3.4 6,-0.4 7,-0.3 9,2.1 5,4.9 3,14.4 -4,19.9 -7,4.6 -16,8.7 -24,10 l -7,1.2 -1,4.2 c 0,6 1,10 4,12.8 6,5.2 14,4.2 23,-3.1 7,-4.7 8,-3.2 2,2.2 -7,6.2 -13,8.9 -21,9.3 -7,0.3 -8,0.1 -11,-2 z m 15,-28.9 c 11,-4.1 21,-16.2 18,-22.4 -2,-4.9 -10,-2.7 -16,4.5 -4,4.1 -9,13.5 -10,17.8 -1,2.9 1,2.9 8,0.1 z M 105,49 c 0,-28.8 0,-29.5 2,-29.5 2,0 2,0.7 2,12.5 v 12.5 h 18 18 V 32 c 0,-10.4 0,-12.5 2,-12.5 1,0 1,3.9 1,29.5 0,25.3 0,29.5 -1,29.5 -2,0 -2,-2.6 -2,-15.3 V 48 L 127,47.7 109,47.5 V 63 c 0,14.8 0,15.5 -2,15.5 -2,0 -2,-0.7 -2,-29.5 z M 220,48.9 V 19.2 l 8,0.6 c 9,0.7 13,2.5 16,7 3,4.1 3,12.7 0,16.8 -2,3.1 -8,6.9 -12,6.9 -1,0 -2,0.2 -2,0.4 0,0.3 4,6.4 9,13.6 5,7.2 9,13.4 9,13.7 -2,1.4 -4,-1.4 -13,-14.1 -5,-7.5 -10,-13.6 -10,-13.6 -1,0 -1,6.3 -1,14 0,13.3 0,14 -2,14 -2,0 -2,-0.7 -2,-29.6 z m 16,-3 c 8,-3.4 9,-14.2 3,-19.6 -3,-2.4 -4,-2.8 -9,-2.8 h -6 v 12 12 h 5 c 2,0 6,-0.7 7,-1.6 z"
       style="fill:#ffffff" /><path
       id="path838"
       d="m 167,77.3 c -6,-4.3 -7,-7 -7,-16.1 0,-7.2 0,-9 3,-14.7 4,-7.9 13,-18.3 21,-22.4 4,-2.2 7,-3 13,-3.4 6,-0.4 7,-0.3 9,2.1 5,4.9 3,14.4 -4,19.9 -7,4.6 -16,8.7 -24,10 l -7,1.2 -1,4.2 c 0,6 1,10 4,12.8 6,5.2 14,4.2 23,-3.1 7,-4.7 8,-3.2 2,2.2 -7,6.2 -13,8.9 -21,9.3 -7,0.3 -8,0.1 -11,-2 z m 15,-28.9 c 11,-4.1 21,-16.2 18,-22.4 -2,-4.9 -10,-2.7 -16,4.5 -4,4.1 -9,13.5 -10,17.8 -1,2.9 1,2.9 8,0.1 z M 61.1,75.5 C 50.1,70 44.5,61 44.5,49 44.4,37.3 50.1,28.1 61.2,22.3 64.7,20.4 67,20 74.5,20 c 8.3,0 9.4,0.2 14,3 3.2,2 5,3.9 5.2,5.4 l 0.4,2.3 -3.4,-2.6 C 78.9,19.2 64.5,20.6 54.2,31.8 40.7,46.4 47.8,69.1 67.7,75.1 c 7.6,2.3 16.4,0.3 23.9,-5.2 2.2,-1.6 2.3,-1.5 2.3,0.4 0,1.5 -1.6,2.9 -6.2,5.1 -5.1,2.6 -7.3,3.1 -13.3,3.1 -6,0 -8.2,-0.5 -13.3,-3 z m 44.9,-26 c 0,-17.2 0,-29 1,-29 0,0 1,5.5 1,12.3 V 45 l 19,0.3 18,0.2 V 33.1 c 0,-10.1 0,-12.5 2,-13 1,-0.5 1,3.2 1,28.9 0,25.6 0,29.5 -1,29.5 -2,0 -2,-2.4 -2,-15.5 V 47.5 l -18,0.2 -19,0.3 v 15.2 c 0,11.3 0,15.3 -1,15.3 -1,0 -1,-6.6 -1,-29 z M 220,49.3 V 20 l 9,0.5 c 10,0.6 13,2.2 16,7.6 4,10 -1,20.2 -11,21.9 -2,0.4 -4,0.9 -4,1.1 0,0.3 4,6.4 9,13.5 5,7.2 9,13.2 9,13.5 0,0.2 -1,0.4 -1,0.4 -1,0 -6,-6.3 -11,-14 -6,-7.7 -11,-14 -12,-14 -1,0 -1,2.5 -1,14 0,11.8 0,14 -1,14 -2,0 -2,-3.9 -2,-29.2 z m 16,-3.2 c 5,-1.7 7,-6 7,-11.7 0,-5.6 -5,-10.4 -11,-11.4 -9,-1.3 -8,-1.6 -9,12.3 v 12.2 h 5 c 3,0 7,-0.6 8,-1.4 z"
       style="fill:#ffffff" /><path
       id="path836"
       d="m 167,77.3 c -6,-4.3 -7,-7 -7,-16.1 0,-7.2 0,-9 3,-14.7 4,-7.9 13,-18.3 21,-22.4 4,-2.2 7,-3 13,-3.4 6,-0.4 7,-0.3 9,2.1 5,4.9 3,14.4 -4,19.9 -7,4.6 -16,8.7 -24,10 l -7,1.2 -1,4.2 c 0,6 1,10 4,12.8 6,5.2 14,4.2 23,-3.1 7,-4.7 8,-3.2 2,2.2 -7,6.2 -13,8.9 -21,9.3 -7,0.3 -8,0.1 -11,-2 z m 15,-28.9 c 11,-4.1 21,-16.2 18,-22.4 -2,-4.9 -10,-2.7 -16,4.5 -4,4.1 -9,13.5 -10,17.8 -1,2.9 1,2.9 8,0.1 z"
       style="fill:#ffffff" /></g><text
     id="text837"
     y="58.5"
     x="24"
     xml:space="preserve"><tspan
       style="font-style:normal;font-variant:normal;font-weight:normal;font-stretch:normal;font-size:12px;font-family:'Roboto Condensed';-inkscape-font-specification:'Roboto Condensed, Normal';font-variant-ligatures:normal;font-variant-caps:normal;font-variant-numeric:normal;font-feature-settings:normal;text-align:start;writing-mode:lr-tb;text-anchor:start;fill:#ffffff"
       y="65"
       x="15"
       id="tspan835">Numérithèque</tspan></text>
<metadata
     id="metadata858"><rdf:RDF><cc:Work
         rdf:about=""><dc:title></dc:title></cc:Work></rdf:RDF></metadata></svg>
