<?xml version="1.0" encoding="utf-8"?>
<!-- Generator: Adobe Illustrator 22.1.0, SVG Export Plug-In . SVG Version: 6.00 Build 0)  -->
<svg version="1.1" id="mon-cdi-2" xmlns="http://www.w3.org/2000/svg" xmlns:xlink="http://www.w3.org/1999/xlink" x="0px"
	 y="0px" viewBox="0 0 96 96" style="enable-background:new 0 0 96 96;" xml:space="preserve">
<style type="text/css">
	.st0{fill:#AB47BC;}
	.st1{fill:#FFFFFF;}
</style>
<rect id="bg" x="0.1" y="0.1" class="st0" width="95.9" height="95.9"/>
<path id="icone" class="st1" d="M61.8,17l-26.4,5.9C35,46.8,50,57.7,50,57.7L72,46C60.3,35.1,61.8,17,61.8,17z M53.5,46
	c-5,0.3-7.6-4.5-7.6-4.5c-1.7,0.2-3.6-0.3-3.6-0.3l2.8-0.6c-2.2-7.2,2-11.3,4.1-12.8c2.2-1.4,9.4-1.6,8.1,4.9c-1,5.1-9,7.9-9,7.9
	s1.2,3.2,5.4,3.2s5.5-4.1,5.9-5.2c0.5-1.1,1.1-0.5,1.1-0.5C61.6,41.6,58.5,45.7,53.5,46z M37.7,46.1c-3.9-6.3-5.5-17.5-5.5-17.5
	l-4.7,2.1C32,54.2,49,61.2,49,61.2l8.8-6l-8.4,4.3C49.4,59.5,42.3,53.8,37.7,46.1z M36.2,53.9c-4.8-4.5-9.1-14.4-9.1-14.4l-3.5,3
	c9.5,19.2,26,21.7,26,21.7l4-4.7l-4,3.1C49.5,62.5,42.1,59.4,36.2,53.9z M32.3,72.6c-0.1,0.1-0.1,0.2-0.2,0.2s-0.2,0.1-0.3,0.1
	c-0.1,0-0.2,0-0.3-0.1s-0.2-0.1-0.4-0.2c-0.1-0.1-0.3-0.1-0.4-0.2c-0.2,0-0.3-0.1-0.5-0.1c-0.3,0-0.5,0.1-0.7,0.2s-0.2,0.3-0.2,0.5
	c0,0.1,0.1,0.3,0.2,0.4s0.2,0.2,0.4,0.3s0.4,0.1,0.6,0.2s0.4,0.1,0.7,0.2c0.2,0.1,0.4,0.2,0.7,0.3c0.3,0.1,0.4,0.2,0.6,0.4
	s0.3,0.3,0.4,0.6c0.1,0.2,0.2,0.5,0.2,0.8c0,0.4-0.1,0.7-0.2,1.1c-0.1,0.3-0.3,0.6-0.6,0.8c-0.3,0.2-0.6,0.4-1,0.5s-0.9,0.2-1.4,0.2
	c-0.3,0-0.5,0-0.8-0.1c-0.3,0-0.5-0.1-0.8-0.2s-0.5-0.2-0.7-0.3c-0.2-0.1-0.4-0.2-0.5-0.4l0.5-0.9c0.1-0.1,0.1-0.2,0.2-0.2
	c0.1-0.1,0.2-0.1,0.4-0.1c0.1,0,0.3,0,0.4,0.1s0.2,0.1,0.3,0.2s0.3,0.1,0.4,0.2c0.2,0.1,0.4,0.1,0.6,0.1s0.3,0,0.5-0.1
	c0.1,0,0.2-0.1,0.3-0.2c0.1-0.1,0.1-0.1,0.2-0.2c0-0.1,0.1-0.2,0.1-0.2c0-0.2-0.1-0.3-0.2-0.4s-0.2-0.2-0.4-0.3s-0.4-0.1-0.6-0.2
	s-0.4-0.1-0.7-0.2s-0.4-0.2-0.7-0.3c-0.2-0.1-0.4-0.3-0.6-0.4c-0.2-0.2-0.3-0.4-0.4-0.6s-0.2-0.6-0.2-0.9s0.1-0.6,0.2-0.9
	s0.3-0.6,0.6-0.8c0.3-0.2,0.6-0.4,1-0.5s0.8-0.2,1.4-0.2c0.3,0,0.6,0,0.8,0.1c0.3,0,0.5,0.1,0.7,0.2s0.4,0.2,0.6,0.3
	c0.2,0.1,0.4,0.3,0.5,0.4L32.3,72.6z M38.8,68.7c0,0.2,0,0.4-0.1,0.5c-0.1,0.2-0.2,0.3-0.3,0.4s-0.3,0.2-0.5,0.3S37.5,70,37.3,70
	s-0.4,0-0.5-0.1s-0.3-0.2-0.4-0.3c-0.1-0.1-0.2-0.3-0.3-0.4S36,68.9,36,68.7c0-0.2,0-0.4,0.1-0.5c0.1-0.2,0.2-0.3,0.3-0.4
	s0.3-0.2,0.4-0.3c0.2-0.1,0.3-0.1,0.5-0.1s0.4,0,0.6,0.1c0.2,0.1,0.3,0.2,0.5,0.3s0.2,0.3,0.3,0.4S38.8,68.6,38.8,68.7z M38.5,70.9
	v7.8h-2.3v-7.8H38.5z M47.8,78.6c-0.1,0-0.3,0-0.4-0.1c-0.1-0.1-0.2-0.2-0.2-0.3L47,77.6c-0.2,0.2-0.3,0.3-0.5,0.5
	c-0.2,0.1-0.4,0.3-0.6,0.3c-0.2,0.1-0.4,0.2-0.6,0.2s-0.5,0.1-0.7,0.1c-0.4,0-0.8-0.1-1.1-0.3c-0.3-0.2-0.6-0.4-0.9-0.8
	c-0.3-0.3-0.4-0.8-0.6-1.2s-0.2-1.1-0.2-1.7s0.1-1.1,0.2-1.6c0.2-0.5,0.4-0.9,0.7-1.3s0.6-0.6,1.1-0.9c0.4-0.2,0.9-0.3,1.4-0.3
	c0.4,0,0.7,0.1,1,0.2s0.5,0.3,0.8,0.5v-3.9h2.3v11.2L47.8,78.6L47.8,78.6z M45.5,77c0.2,0,0.3,0,0.5,0c0.1,0,0.3-0.1,0.4-0.1
	c0.1-0.1,0.2-0.1,0.3-0.2s0.2-0.2,0.3-0.3V73c-0.2-0.2-0.4-0.3-0.6-0.4c-0.2-0.1-0.4-0.1-0.6-0.1c-0.2,0-0.4,0-0.6,0.1
	s-0.3,0.2-0.5,0.4s-0.2,0.4-0.3,0.7c-0.1,0.3-0.1,0.7-0.1,1.1s0,0.8,0.1,1c0.1,0.3,0.1,0.5,0.3,0.7c0.1,0.2,0.2,0.3,0.4,0.4
	S45.3,77,45.5,77z M56.6,70.8c0.6,0,1.1,0.1,1.6,0.3c0.5,0.2,0.9,0.5,1.2,0.8s0.6,0.8,0.8,1.3s0.3,1,0.3,1.7c0,0.6-0.1,1.2-0.3,1.7
	s-0.5,0.9-0.8,1.3c-0.3,0.3-0.8,0.6-1.2,0.8s-1,0.3-1.6,0.3s-1.1-0.1-1.6-0.3s-1-0.7-1.3-1s-0.6-0.8-0.8-1.3s-0.3-1.1-0.3-1.7
	s0.1-1.2,0.3-1.7s0.5-0.9,0.8-1.3s0.8-0.6,1.3-0.8C55.4,70.8,56,70.8,56.6,70.8z M56.6,77c0.5,0,0.9-0.2,1.2-0.6s0.4-1,0.4-1.7
	c0-0.8-0.1-1.3-0.4-1.7c-0.3-0.4-0.6-0.6-1.2-0.6c-0.6,0-1,0.2-1.2,0.6S55,74,55,74.8s0.1,1.3,0.4,1.7C55.6,76.9,56,77,56.6,77z
	 M69.5,72.7c-0.1,0.1-0.1,0.2-0.2,0.2C69.2,73,69.1,73,69,73s-0.2,0-0.3-0.1s-0.2-0.1-0.3-0.2s-0.3-0.1-0.4-0.2
	c-0.2-0.1-0.3-0.1-0.6-0.1c-0.3,0-0.5,0.1-0.7,0.2s-0.4,0.3-0.5,0.5s-0.2,0.4-0.3,0.7c-0.1,0.3-0.1,0.6-0.1,1c0,0.7,0.1,1.3,0.4,1.7
	c0.3,0.4,0.7,0.6,1.2,0.6c0.3,0,0.5,0,0.6-0.1s0.3-0.1,0.4-0.2s0.2-0.2,0.3-0.2c0.1-0.1,0.2-0.1,0.3-0.1c0.2,0,0.3,0.1,0.4,0.2
	l0.7,0.8c-0.2,0.3-0.5,0.5-0.8,0.7s-0.5,0.3-0.8,0.4s-0.6,0.2-0.8,0.2c-0.3,0-0.6,0.1-0.8,0.1c-0.5,0-0.9-0.1-1.4-0.3
	c-0.4-0.2-0.8-0.4-1.1-0.8c-0.3-0.3-0.6-0.8-0.8-1.3s-0.3-1.1-0.3-1.7s0.1-1.1,0.3-1.6s0.4-0.9,0.7-1.3c0.3-0.4,0.7-0.6,1.2-0.8
	s1-0.3,1.7-0.3c0.6,0,1.1,0.1,1.6,0.3c0.5,0.2,0.9,0.5,1.2,0.9L69.5,72.7z M55,31.8c0-2.8-3.8-3.6-6.3-0.9c-2.9,3.1-0.9,8.5-0.9,8.5
	C51.2,38.2,55,34.6,55,31.8z"/>
</svg>
