<?xml version="1.0" encoding="UTF-8" standalone="no"?>
<svg
   xmlns:dc="http://purl.org/dc/elements/1.1/"
   xmlns:cc="http://creativecommons.org/ns#"
   xmlns:rdf="http://www.w3.org/1999/02/22-rdf-syntax-ns#"
   xmlns:svg="http://www.w3.org/2000/svg"
   xmlns="http://www.w3.org/2000/svg"
   height="96"
   width="96"
   xml:space="preserve"
   viewBox="0 0 96 96"
   y="0px"
   x="0px"
   id="chat"
   version="1.1"><defs
     id="defs9" /><rect
     style="fill:#ec407a"
     height="95.9"
     width="95.9"
     class="st0"
     y="0.1"
     x="0.1"
     id="bg" /><path
     style="fill:#ffffff"
     id="icone"
     d="m 40.6,22.8 c -12,0 -22.5,7.7 -22.5,18.6 0,5.8 3.9,10.7 7.7,14 l -2.6,10.4 10.3,-6.6 c 2.2,0.7 4.7,1 7.1,1 1,0 1.9,-0.1 2.8,-0.1 2.8,5.5 9.2,9.2 16.6,9.2 2.2,0 4.2,-0.4 6.2,-1 l 8.8,5 -2.5,-8.5 c 3.4,-2.7 5.6,-6.7 5.6,-11 0,-8 -7,-14.5 -15.9,-15.4 C 60.5,29.2 51.4,22.8 40.6,22.8 Z m 0,2.5 c 9.5,0 17.2,5.2 19,13 -9.6,0.1 -17.7,7 -17.7,15.5 0,1.3 0.2,2.6 0.5,3.7 -0.5,0.2 -1.2,0.2 -1.8,0.2 -2.4,0 -4.9,-0.4 -7,-1.1 L 33,56.4 27.2,59.9 29.2,54.5 28.5,54 C 23.2,50.9 20.7,46.6 20.7,41.4 20.7,33 29.9,25.3 40.6,25.3 Z M 32.8,33 c -1.4,0 -2.6,1.4 -2.6,2.7 0,1.4 1.2,2.6 2.6,2.6 1.4,0 2.6,-1.2 2.6,-2.6 0,-1.3 -1.2,-2.7 -2.6,-2.7 z m 15.5,0 c -1.4,0 -2.5,1.4 -2.5,2.7 0,1.4 1.1,2.6 2.5,2.6 1.4,0 2.6,-1.2 2.6,-2.6 0,-1.3 -1.2,-2.7 -2.6,-2.7 z M 60,40.8 c 8.6,0 15.5,5.9 15.5,13 0,3.9 -1.9,7.2 -5.1,9.6 l -0.8,0.4 1.3,4 -4.3,-2.2 -0.5,0.1 c -1.9,0.6 -3.9,1.1 -6.1,1.1 -8.6,0 -15.5,-5.9 -15.5,-13 0,-7.1 6.9,-13 15.5,-13 z m -5.8,7.8 c -1.1,0 -2,0.9 -2,1.9 0,1.1 0.9,2 2,2 1,0 1.9,-0.9 1.9,-2 0,-1 -0.9,-1.9 -1.9,-1.9 z m 11.6,0 c -1,0 -1.9,0.9 -1.9,1.9 0,1.1 0.9,2 1.9,2 1.1,0 1.9,-0.9 1.9,-2 0,-1 -0.8,-1.9 -1.9,-1.9 z" /><metadata
     id="metadata849"><rdf:RDF><cc:Work
         rdf:about=""><dc:title></dc:title></cc:Work></rdf:RDF></metadata></svg>