<?xml version="1.0" encoding="UTF-8" standalone="no"?>
<svg
   xmlns:dc="http://purl.org/dc/elements/1.1/"
   xmlns:cc="http://creativecommons.org/ns#"
   xmlns:rdf="http://www.w3.org/1999/02/22-rdf-syntax-ns#"
   xmlns:svg="http://www.w3.org/2000/svg"
   xmlns="http://www.w3.org/2000/svg"
   version="1.1"
   id="svg814"
   x="0px"
   y="0px"
   viewBox="0 0 96 96"
   xml:space="preserve"
   width="96"
   height="96"><defs
     id="defs9" /><rect
     id="bg"
     x="0.1"
     y="0.1"
     class="st0"
     width="95.9"
     height="95.9"
     style="fill:#26c6da" /><path
     id="path1573"
     d="m 46.7,76.9 c 5.7,-2.6 9.4,-8.3 11.2,-14.2 0.7,-3.6 4.9,-2.9 7.6,-3 4.6,0 9.3,0 13.9,0 -2.3,7.8 -9.2,13.6 -16.8,15.8 -5,1.6 -10.4,1.5 -15.5,1.5 z M 36,73.4 C 28,71.4 22.7,63.9 20.6,56.3 19.1,50.9 19.1,45.1 20.2,39.6 22,31.9 26.9,23.9 34.8,21.4 c 4.6,-1.5 9.8,-0.7 13.6,2.3 -6,6 -8.4,14.8 -8.1,23 -0.2,4.9 0.2,9.9 1.9,14.5 1.3,3.8 3.4,7.2 6.2,10 -3.2,1.7 -6.6,3.1 -10.3,2.6 C 37.4,73.7 36.7,73.6 36,73.4 Z M 49.8,49.6 c 0,-2.6 0,-5.1 0,-7.7 1.9,0 3.3,0.6 5,-0.2 3.2,-0.4 5.1,2.9 4.6,5.8 0.5,2.7 -1.2,6.2 -4.3,6 -1.5,0.1 -3.2,-1.7 -2.7,0.7 0,1.1 0,2.1 0,3.1 -0.8,-0.3 -2.6,0.5 -2.6,-0.5 0,-2.4 0,-4.8 0,-7.2 z m 6.4,1.2 c 1.3,-2 1.6,-7.3 -2.1,-6.7 -2.6,0.8 -2.5,6.4 0.2,7 0.7,0.1 1.3,-0.2 1.9,-0.3 z m 16.6,2.7 c -3.5,-0.5 -3.9,-4.4 -3.5,-7.3 -0.3,-3.6 4,-5.6 7,-4.1 3,1.3 2.3,5 2.3,7.6 -0.1,2.8 -3.3,4.3 -5.8,3.8 z m 2.9,-3.1 c 0.9,-2 1.3,-6.7 -2.1,-6.3 -2.7,0.5 -2.4,5 -1,6.6 0.9,0.7 2.3,0.6 3.1,-0.3 z M 62.1,47.7 c 0,-1.9 0,-3.9 0,-5.8 1.9,-0.1 3,1 4.8,-0.2 1.6,-0.6 1.8,3.1 0,2.4 -3.2,0 -2.2,3.9 -2.4,5.9 0,1.2 -0.1,2.3 -0.1,3.5 -0.7,-0.3 -2.5,0.5 -2.3,-0.6 0,-1.7 0,-3.5 0,-5.2 z M 59.8,34.6 c -2.8,-1.8 -2.6,-5.8 -4.6,-8.4 -1.9,-3.5 -4.8,-6.7 -8.6,-8.1 3.2,-0.8 6.6,-0.2 9.9,-0.1 8.8,1 17.6,5.8 21.6,14.1 0.7,1.2 1.9,3.5 -0.5,2.9 -5.8,-0.1 -11.7,0.1 -17.5,-0.3 z"
     style="fill:#ffffff" /><metadata
     id="metadata840"><rdf:RDF><cc:Work
         rdf:about=""><dc:title></dc:title></cc:Work></rdf:RDF></metadata></svg>