<?xml version="1.0" encoding="utf-8"?>
<!-- Generator: Adobe Illustrator 22.1.0, SVG Export Plug-In . SVG Version: 6.00 Build 0)  -->
<svg version="1.1" id="doc-ent-1" xmlns="http://www.w3.org/2000/svg" xmlns:xlink="http://www.w3.org/1999/xlink" x="0px" y="0px"
	 viewBox="0 0 96 96" style="enable-background:new 0 0 96 96;" xml:space="preserve">
<style type="text/css">
	.st0{fill:#EF5350;}
	.st1{fill:#FFFFFF;}
</style>
<rect id="bg" x="0.1" y="0.1" class="st0" width="95.9" height="95.9"/>
<path id="icone" class="st1" d="M61.8,50.2c-7.4,0-13.3,6-13.3,13.3c0,7.4,6,13.3,13.3,13.3c7.4,0,13.3-6,13.3-13.3
	C75.2,56.2,69.2,50.2,61.8,50.2z M61.8,73.4c-5.4,0-9.8-4.4-9.8-9.8s4.4-9.8,9.8-9.8s9.8,4.4,9.8,9.8C71.7,68.9,67.3,73.4,61.8,73.4
	z M60.4,62.3h2.8V70h-2.8V62.3z M60.4,57.2h2.8v2.6h-2.8V57.2z M29.1,69.6V29.9h-4.4v39.7c0,2.4,2,4.4,4.4,4.4H47
	c-1-1.3-1.8-2.8-2.4-4.4H29.1z M37.9,65.2h5.6c-0.1-0.5-0.1-1.1-0.1-1.7c0-0.9,0.1-1.9,0.2-2.8h-5.8V25.4h15.5v11h11v8.8
	c1.5,0.2,3,0.7,4.4,1.3V34.3L55.6,21H37.9c-2.4,0-4.4,2-4.4,4.4v35.3C33.5,63.2,35.5,65.2,37.9,65.2z"/>
</svg>
