<?xml version="1.0" encoding="UTF-8" standalone="no"?>
<!-- Generator: Adobe Illustrator 22.1.0, SVG Export Plug-In . SVG Version: 6.00 Build 0)  -->

<svg
   version="1.1"
   id="doc-etab-3"
   x="0px"
   y="0px"
   viewBox="0 0 96 96"
   style="enable-background:new 0 0 96 96;"
   xml:space="preserve"
   sodipodi:docname="DocumentsRectorat.svg"
   inkscape:version="1.1.2 (0a00cf5339, 2022-02-04)"
   xmlns:inkscape="http://www.inkscape.org/namespaces/inkscape"
   xmlns:sodipodi="http://sodipodi.sourceforge.net/DTD/sodipodi-0.dtd"
   xmlns="http://www.w3.org/2000/svg"
   xmlns:svg="http://www.w3.org/2000/svg"><defs
   id="defs2575" /><sodipodi:namedview
   id="namedview2573"
   pagecolor="#ffffff"
   bordercolor="#666666"
   borderopacity="1.0"
   inkscape:pageshadow="2"
   inkscape:pageopacity="0.0"
   inkscape:pagecheckerboard="0"
   showgrid="false"
   inkscape:zoom="18.1875"
   inkscape:cx="76.67354"
   inkscape:cy="51.271478"
   inkscape:window-width="2514"
   inkscape:window-height="1376"
   inkscape:window-x="0"
   inkscape:window-y="0"
   inkscape:window-maximized="1"
   inkscape:current-layer="doc-etab-3" />
<style
   type="text/css"
   id="style2568">
	.st0{fill:#AB47BC;}
	.st1{fill:#FFFFFF;}
</style>
<rect
   id="bg"
   x="0.1"
   y="0.1"
   class="st0"
   width="95.9"
   height="95.9" />
<path
   id="icone"
   class="st1"
   d="m 36,36 h 32 v 14.004742 l 4,-0.0043 V 36 c 0,-2.2 -1.8,-4 -4,-4 H 52 L 48,28 H 36 c -2.2,0 -4,1.8 -4,4 v 24 c 0,2.2 1.8,4 4,4 h 20.682229 c 0.02424,-0.793718 2.259582,-3.609618 3.492039,-4 H 36 Z m -8,0 h -4 v 10 18 c 0,2.2 1.8,4 4,4 H 56.06344 C 55.464444,67.243577 55.290282,65.182211 55.616144,64 46.575174,64 28,64 28,64 Z"
   sodipodi:nodetypes="ccccssccsssscccccccsscccc" />
<g
   inkscape:groupmode="layer"
   id="layer2"
   inkscape:label="accad"
   style="display:inline"><g
     id="g2184"
     transform="matrix(0.6591294,0,0,0.6591294,34.39329,30.016847)"
     style="fill:#ffffff;fill-opacity:1;stroke:none;stroke-opacity:1"><path
       d="m 37.589207,52.770745 c 0,-6.026985 4.908896,-10.932685 10.933285,-10.932685 6.029182,0 10.935482,4.9057 10.935482,10.932685 0,6.026987 -4.9063,10.928292 -10.935482,10.928292 -6.024389,0 -10.933285,-4.901305 -10.933285,-10.928292 m -2.950888,0 c 0,7.658091 6.223285,13.884972 13.884173,13.884972 7.660888,0 13.889566,-6.226881 13.889566,-13.884972 0,-7.654697 -6.228678,-13.885372 -13.889566,-13.885372 -7.660888,0 -13.884173,6.230675 -13.884173,13.885372"
       style="fill:#ffffff;fill-opacity:1;fill-rule:nonzero;stroke:none;stroke-width:0.199695;stroke-opacity:1"
       id="path126" /><path
       d="m 49.248843,32.594771 h 5.545721 l -4.013863,4.227338 h -3.146988 z"
       style="fill:#ffffff;fill-opacity:1;fill-rule:nonzero;stroke:none;stroke-width:0.199695;stroke-opacity:1"
       id="path138" /><path
       d="m 43.473872,45.247687 h 10.152677 v 3.385024 l -6.275804,0.004 v 2.182064 h 5.863434 v 3.391613 h -5.863434 v 2.181266 h 6.271212 v 3.387022 H 43.473872 Z"
       style="fill:#ffffff;fill-opacity:1;stroke:none;stroke-width:0.465089;stroke-linecap:butt;stroke-linejoin:miter;stroke-miterlimit:4;stroke-dasharray:none;stroke-opacity:1"
       id="path150" /></g></g></svg>
