<?xml version="1.0" encoding="utf-8"?>
<!-- Generator: Adobe Illustrator 22.1.0, SVG Export Plug-In . SVG Version: 6.00 Build 0)  -->
<svg version="1.1" id="edt" xmlns="http://www.w3.org/2000/svg" xmlns:xlink="http://www.w3.org/1999/xlink" x="0px" y="0px"
	 viewBox="0 0 96 96" style="enable-background:new 0 0 96 96;" xml:space="preserve">
<style type="text/css">
	.st0{fill:#616161;}
	.st1{fill:#FFFFFF;}
</style>
<rect id="bg" x="0.1" y="0.1" class="st0" width="95.9" height="95.9"/>
<path id="icone" class="st1" d="M64.7,67.1V40.8H31.3v26.3H64.7 M57.6,24.1h4.8v4.8h2.4c2.6,0,4.8,2.1,4.8,4.8v33.5
	c0,2.6-2.1,4.8-4.8,4.8H31.3c-2.7,0-4.8-2.2-4.8-4.8V33.7c0-2.7,2.1-4.8,4.8-4.8h2.4v-4.8h4.8v4.8h19.1V24.1 M36,45.6h4.8v4.8H36
	V45.6 M55.2,45.6H60v4.8h-4.8V45.6 M45.6,55.2h4.8V60h-4.8V55.2 M55.2,55.2H60V60h-4.8V55.2z"/>
</svg>
