<?xml version="1.0" encoding="UTF-8" standalone="no"?>
<svg
   xmlns:dc="http://purl.org/dc/elements/1.1/"
   xmlns:cc="http://creativecommons.org/ns#"
   xmlns:rdf="http://www.w3.org/1999/02/22-rdf-syntax-ns#"
   xmlns:svg="http://www.w3.org/2000/svg"
   xmlns="http://www.w3.org/2000/svg"
   xml:space="preserve"
   style="enable-background:new 0 0 96 96;"
   viewBox="0 0 96 96"
   y="0px"
   x="0px"
   id="actu-tour-3"
   version="1.1"><metadata
   id="metadata11"><rdf:RDF><cc:Work
       rdf:about=""><dc:format>image/svg+xml</dc:format><dc:type
         rdf:resource="http://purl.org/dc/dcmitype/StillImage" /><dc:title></dc:title></cc:Work></rdf:RDF></metadata><defs
   id="defs9" />
<style
   id="style2"
   type="text/css">
	.st0{fill:#EC407A;}
	.st1{fill:#FFFFFF;}
</style>
<rect
   height="95.9"
   width="95.9"
   class="st0"
   y="0.1"
   x="0.1"
   id="bg" />
<path
   style="fill:#ffffff"
   d="m 55.6,29.6 5.4,-0.1 -0.8,3.7 c -0.9,0.1 -2.3,0.5 -3.5,1.5 -3.4,2.8 -3.9,7 -4,7.6 l -2.6,13.4 1.1,0.1 c 0.6,0 0.6,0 0.7,0.1 0.1,0 0.4,0.1 1.7,0.2 l 1,0.1 0.2,-0.9 c 0,0 0.5,-3.3 1.2,-7.1 C 57.6,39.3 59.2,38 60,38 h 3.8 L 66.1,25.3 H 56.4 Z M 21.9,55.4 23.4,55.1 C 27.5,54.3 34.3,54.2 43.5,55 l 0.9,0.1 2.6,-13.3 c 0.4,-2.7 2.2,-3.9 2.8,-4.2 L 50,37.5 c 0.2,-0.2 0.3,-0.4 0.4,-0.6 L 52.6,25 h -5.3 l -0.4,2 h -2.7 l 0.4,-2 H 40.3 L 40,27 h -2.7 l 0.4,-2 H 33.4 L 33,27 h -2.7 l 0.4,-2 h -5.3 l -2.2,11.4 c -0.1,0.3 0,0.6 0.2,0.9 0.5,0.7 1.6,2.7 1.3,4.1 z m 40.8,12.4 c 0,0 -1.3,-0.2 -1.5,-0.2 -1,-0.1 -2.3,-0.3 -4,-0.5 H 57.1 C 51.6,66.4 43.3,65.4 34.7,65.2 29.4,65.1 23.2,65.6 20.5,66 l -0.7,0.1 -1.1,5.2 1.5,-0.3 c 1.6,-0.3 10.2,-1 14,-1 4.7,0 8.6,0.2 9.7,0.3 0.3,0 0.9,0.1 1.6,0.1 3.2,0.3 9.8,0.9 16.1,0.5 0.1,0 1,-0.1 1,-0.1 l 0.9,-0.1 V 67.8 H 62.7 Z M 35.4,62.2 C 31,62.1 25.3,62.5 21.8,63 l -1.4,0.2 1.1,-5 0.7,-0.1 c 0.1,0 3,-0.5 5.6,-0.7 1,0 3.9,-0.1 5.2,-0.1 2.3,0 9.4,0.3 15.1,1 v 0 c 0.3,0 0.9,0.1 1.9,0.3 2.8,0.4 8,1.1 12.6,1.6 l 1.1,0.1 v 4.5 L 62,64.6 C 60.9,64.5 43.9,62.4 35.4,62.2 Z"
   class="st1"
   id="icone" />
<text
   id="text834"
   y="77.152542"
   x="63.355934"
   style="font-style:normal;font-weight:normal;font-size:40px;line-height:1.25;font-family:sans-serif;letter-spacing:0px;word-spacing:0px;fill:#000000;fill-opacity:1;stroke:none"
   xml:space="preserve"><tspan
     style="font-style:italic;font-variant:normal;font-weight:normal;font-stretch:normal;font-size:26.66666603px;font-family:sans-serif;-inkscape-font-specification:'sans-serif, Italic';font-variant-ligatures:normal;font-variant-caps:normal;font-variant-numeric:normal;font-feature-settings:normal;text-align:start;writing-mode:lr-tb;text-anchor:start;fill:#ffffff;fill-opacity:1"
     y="77.152542"
     x="63.355934"
     id="tspan832">é</tspan></text>
</svg>