<?xml version="1.0" encoding="UTF-8" standalone="no"?>
<svg
   xmlns:dc="http://purl.org/dc/elements/1.1/"
   xmlns:cc="http://creativecommons.org/ns#"
   xmlns:rdf="http://www.w3.org/1999/02/22-rdf-syntax-ns#"
   xmlns:svg="http://www.w3.org/2000/svg"
   xmlns="http://www.w3.org/2000/svg"
   version="1.1"
   id="actu-tour-3"
   x="0px"
   y="0px"
   viewBox="0 0 96 96"
   style="enable-background:new 0 0 96 96;"
   xml:space="preserve"><defs
     id="defs9" /><style
     type="text/css"
     id="style2">
	.st0{fill:#EC407A;}
	.st1{fill:#FFFFFF;}
</style><rect
     id="bg"
     x="0.1"
     y="0.1"
     class="st0"
     width="95.9"
     height="95.9" /><text
     xml:space="preserve"
     style="font-style:normal;font-weight:normal;font-size:40px;line-height:1.25;font-family:sans-serif;letter-spacing:0px;word-spacing:0px;fill:#000000;fill-opacity:1;stroke:none"
     x="63.355934"
     y="77.152542"
     id="text834"><tspan
       id="tspan832"
       x="63.355934"
       y="77.152542"
       style="font-style:italic;font-variant:normal;font-weight:normal;font-stretch:normal;font-size:26.66666603px;font-family:sans-serif;-inkscape-font-specification:'sans-serif, Italic';font-variant-ligatures:normal;font-variant-caps:normal;font-variant-numeric:normal;font-feature-settings:normal;text-align:start;writing-mode:lr-tb;text-anchor:start;fill:#ffffff;fill-opacity:1">é</tspan></text>
<g
     id="icone-9"
     transform="matrix(0.039,0,0,-0.039,5.07,121)"><path
       style="fill:#ffffff"
       d="m 804,2300 c 5,20 34,50 22,50 -30,0 -57,-10 -74,-20 -3,-10 -8,-20 -6,-20 5,0 56,-10 58,-10"
       id="path22" /><path
       style="fill:#ffffff;fill-opacity:1;fill-rule:nonzero;stroke:none"
       d="m 1480,2110 c -320,0 -665,-130 -791,-160 -8,0 -14,0 -21,0 -75,0 -91,90 -11,160 89,80 191,110 232,140 50,30 68,50 74,70 1,0 0,0 -2,0 -3,0 -12,0 -23,0 -4,0 -8,0 -13,0 -15,0 -23,10 -23,10 0,0 22,20 36,40 6,10 10,10 12,20 3,0 1,0 -3,10 -34,0 -53,10 -98,10 -9,0 -20,0 -32,0 -64,0 -114,-30 -130,-40 -4,0 -7,0 -11,-10 -45,-70 -145,-120 -213,-210 -28,10 -62,20 -91,20 -24,0 -46,-10 -59,-10 -17,-10 38,0 75,-30 18,-10 -32,0 -82,-20 -19,-20 -20,-20 -13,-20 4,0 14,0 23,0 13,10 23,10 31,10 18,0 25,-10 32,-10 10,0 -24,-20 -50,-40 -7,-10 -9,-20 -6,-20 2,0 9,10 18,10 27,10 49,20 63,20 2,0 4,0 6,0 -10,-30 -16,-70 -16,-110 0,-200 129,-320 129,-320 0,0 -25,-20 -51,-50 -13,-20 -21,-40 -16,-40 2,0 7,0 15,10 22,30 68,60 80,60 3,0 3,-10 -1,-10 -30,-40 -30,-110 -22,-110 1,0 3,10 4,10 22,60 56,80 68,80 3,0 5,0 4,0 -12,-60 7,-120 15,-120 2,0 4,10 4,10 1,60 26,110 42,130 5,10 8,20 -3,20 -12,10 -240,110 -240,340 0,160 131,250 203,310 54,50 66,70 69,80 1,0 3,0 6,0 58,30 100,30 131,30 36,0 58,0 71,-10 15,0 -45,-60 -45,-60 9,-20 38,-20 44,-20 0,0 1,0 1,0 -19,-50 -283,-100 -334,-230 -43,-110 26,-170 130,-170 21,0 42,0 65,0 181,50 427,170 707,170 240,0 300,-160 240,-230 -40,-40 -120,-70 -250,-70 -40,0 -80,0 -130,10 -110,10 -190,20 -260,20 -60,0 -118,-10 -164,-40 -75,-50 -90,-170 83,-220 31,0 51,-10 81,-10 120,0 180,90 170,130 -20,50 -70,50 -90,50 -10,0 -10,0 -10,0 -10,-50 -30,-80 -140,-80 v 0 c -68,0 -134,80 -54,120 39,20 94,30 164,30 30,0 70,-10 110,-10 100,-20 220,-50 340,-50 60,0 120,10 180,40 210,110 70,360 -260,360"
       id="path24" /><path
       style="fill:#ffffff;fill-opacity:1;fill-rule:nonzero;stroke:none"
       d="m 1540,2580 c -50,-50 -70,-40 -120,-70 30,0 40,0 50,0 0,0 -20,-20 -90,-30 -100,-10 -240,-60 -370,-110 0,0 -11,-10 -16,-10 -13,10 -10,10 -9,10 4,0 12,10 12,10 83,40 203,110 293,140 80,40 110,30 140,50 -10,0 -20,-20 -50,-30 60,20 120,20 160,40"
       id="path26" /></g><metadata
     id="metadata2709"><rdf:RDF><cc:Work
         rdf:about=""><dc:title></dc:title></cc:Work></rdf:RDF></metadata></svg>