<svg id="icone" viewBox="0 0 24 24" fill="none" xmlns="http://www.w3.org/2000/svg">
<path d="M2 15.2514L10.4283 7.5419L22 18L10.0138 6L2 15.2514Z" fill="currentColor"/>
<path d="M11.4397 15.1615C11.0867 14.9804 10.9858 14.7504 10.9858 14.2659C11.0363 13.7374 11.1876 13.4046 11.6415 12.9397C12.0953 12.4992 12.4988 12.3182 12.9527 12.3133C13.2048 12.3084 13.2553 12.328 13.3561 12.4209C13.9109 12.8956 13.104 13.7325 11.9945 13.9136C11.8432 13.9429 11.6415 13.9919 11.6415 14.0212C11.5406 14.124 11.591 14.6036 11.6919 14.7113C11.8936 14.9853 12.2971 15.0049 12.7005 14.7553C13.104 14.5106 13.2048 14.4666 13.2553 14.5057C13.3057 14.5644 12.8518 14.956 12.5492 15.0979C12.1458 15.2887 11.7423 15.3083 11.4397 15.1615ZM12.2466 13.6542C12.3475 13.6053 12.5492 13.5025 12.6501 13.4291C12.9527 13.1746 13.1544 12.6803 13.0031 12.5286C12.7005 12.3035 12.0449 12.9152 11.7423 13.6836C11.6919 13.8059 11.6919 13.8059 11.8432 13.7765C11.944 13.757 12.0953 13.7031 12.2466 13.6542ZM6.17465 15.1223C5.13575 14.7308 4.8382 13.4535 5.60981 12.6999C5.9124 12.4063 6.24021 12.2839 6.72435 12.2839C7.07737 12.2839 7.17319 12.3035 7.40518 12.4209C7.64221 12.5384 7.67751 12.5775 7.69264 12.7146L7.70777 12.8761L7.48083 12.7097C6.8706 12.2545 5.99813 12.416 5.59972 13.062C5.20131 13.708 5.38287 14.4372 6.02839 14.814C6.5075 15.0881 6.93617 15.0881 7.42031 14.8042C7.69768 14.6427 7.70273 14.6427 7.70273 14.7504C7.70273 15.1126 6.75461 15.3426 6.17465 15.1223ZM8.26252 13.7276C8.26252 12.3182 8.26252 12.2839 8.36338 12.2839C8.46425 12.2839 8.46425 12.3182 8.46425 12.8956V13.5074H10.2294V12.8956V12.2839H10.3807H10.4815V15.1713H10.3807H10.2294V14.4372V13.7031H8.46425V14.4372C8.46425 15.137 8.46425 15.1713 8.36338 15.1713C8.26252 15.1713 8.26252 15.137 8.26252 13.7276ZM14.0622 13.7276V12.2839H14.4152C14.9195 12.2888 15.1717 12.4063 15.323 12.6852C15.4238 12.9495 15.4743 13.1893 15.323 13.4095C15.2221 13.615 14.9699 13.801 14.7682 13.801C14.5665 13.801 14.5665 13.8157 15.0708 14.4959C15.5751 15.2153 15.5751 15.1713 15.4238 15.1713C15.323 15.1713 15.2221 15.0538 14.8187 14.5106C14.5665 14.1485 14.3648 13.8402 14.3143 13.8255C14.2639 13.8059 14.2639 14.0506 14.2639 14.4813C14.2639 15.137 14.2639 15.1713 14.163 15.1713C14.0622 15.1713 14.0622 15.137 14.0622 13.7276ZM14.8691 13.5563C15.2725 13.4095 15.2725 12.6754 14.8691 12.5335C14.7682 12.5041 14.6169 12.4797 14.4656 12.4797H14.2639V13.6053H14.5161C14.6674 13.6053 14.8187 13.5857 14.8691 13.5563Z" fill="currentColor"/>
<path d="M11.5406 15.2202C11.3389 15.1566 11.0363 14.8287 10.9858 14.6085C10.8345 13.6101 11.8936 12.3328 12.9527 12.3328C13.3561 12.3328 13.5074 12.4454 13.5074 12.7684C13.5074 12.9299 13.457 13.0522 13.4066 13.1697C13.1544 13.5123 12.4988 13.8548 11.8432 13.938C11.6414 13.9723 11.6414 13.9821 11.591 14.1631C11.4902 14.4029 11.591 14.7064 11.7423 14.8042C12.0953 15.0147 12.4484 14.9657 12.9022 14.6623C13.104 14.5302 13.1544 14.491 13.2048 14.5253C13.3057 14.5889 12.8014 14.9462 12.4484 15.1077C12.1458 15.2398 11.7927 15.2887 11.5406 15.2202ZM12.2971 13.6297C12.8014 13.3801 13.0535 13.0571 13.0535 12.7146C13.0535 12.5384 13.0031 12.5041 12.9022 12.4895C12.7005 12.4601 12.5492 12.5237 12.2971 12.7733C12.0953 12.9788 11.6919 13.6444 11.6919 13.7765C11.6919 13.8402 12.0449 13.7472 12.2971 13.6297ZM6.26038 15.1517C5.82667 15.0147 5.44338 14.6623 5.25679 14.2317C5.15592 13.9968 5.16097 13.5367 5.26183 13.248C5.36774 12.9446 5.7258 12.5678 6.04857 12.4111C6.38142 12.2497 6.99164 12.2301 7.28919 12.372C7.64221 12.5384 7.70273 12.5971 7.70273 12.739V12.881L7.53126 12.7341C7.03703 12.3133 6.27047 12.3524 5.78632 12.8222C5.5392 13.062 5.41817 13.3312 5.39295 13.6933C5.3173 14.7553 6.64366 15.4111 7.54135 14.7504L7.71281 14.6232L7.69264 14.7602C7.65734 15.0832 6.78487 15.3181 6.26038 15.1517ZM8.26252 13.7276C8.26252 12.3182 8.26252 12.2839 8.36338 12.2839C8.46425 12.2839 8.46425 12.3182 8.46425 12.8956V13.5074H10.2294V12.8956C10.2294 12.3182 10.2294 12.2839 10.3302 12.2839C10.4311 12.2839 10.4311 12.3182 10.4311 13.7276C10.4311 15.137 10.4311 15.1713 10.3302 15.1713C10.2294 15.1713 10.2294 15.137 10.2294 14.4372V13.7031H8.46425V14.4372C8.46425 15.137 8.46425 15.1713 8.36338 15.1713C8.26252 15.1713 8.26252 15.137 8.26252 13.7276ZM14.0622 13.7227V12.2692L14.5161 12.2937C14.9699 12.3182 15.0708 12.3769 15.2725 12.6461C15.3734 12.7488 15.3734 12.8516 15.3734 13.062C15.3734 13.4927 15.2221 13.7178 14.7682 13.7912L14.5665 13.8255L14.6674 13.9478C14.7178 14.0163 14.9195 14.3198 15.1212 14.6183C15.4743 15.1223 15.5247 15.1713 15.4238 15.1713C15.323 15.1713 15.2221 15.0343 14.8187 14.4861C14.5665 14.1142 14.3143 13.8059 14.3143 13.801C14.2639 13.801 14.2639 14.1093 14.2639 14.4861C14.2639 15.137 14.2639 15.1713 14.163 15.1713C14.0622 15.1713 14.0622 15.137 14.0622 13.7227ZM14.9699 13.5172C15.1717 13.3752 15.2725 13.1061 15.1717 12.8663C15.1212 12.6069 14.8691 12.4797 14.5161 12.4797H14.2639V13.6689L14.5665 13.6395C14.7178 13.6248 14.8691 13.571 14.9699 13.5172Z" fill="currentColor"/>
<path d="M11.5406 15.2202C11.3389 15.1566 11.0363 14.8287 10.9858 14.6085C10.885 14.0604 11.1371 13.4633 11.6919 12.9348C12.0953 12.5335 12.4988 12.3328 12.9527 12.3328C13.3561 12.3328 13.5074 12.4454 13.5074 12.7635C13.5074 12.9054 13.457 13.0522 13.4066 13.1501C13.2048 13.4829 12.5492 13.8108 11.944 13.9234C11.6414 13.9772 11.6414 13.9821 11.591 14.1631C11.4902 14.5351 11.6919 14.8728 12.0449 14.9413C12.2971 14.9755 12.5997 14.8679 12.9022 14.6574C13.104 14.5302 13.1544 14.491 13.2048 14.5253C13.3057 14.5889 12.8014 14.9462 12.4484 15.1077C12.1458 15.2398 11.7927 15.2887 11.5406 15.2202ZM12.0953 13.7227C12.3979 13.615 12.7005 13.3948 12.9022 13.1501C13.0535 12.9837 13.0535 12.9103 13.0535 12.7244C13.0535 12.5139 13.0031 12.5041 12.8518 12.4895C12.6501 12.4699 12.3979 12.6265 12.1962 12.9054C12.0449 13.0767 11.6919 13.6836 11.6919 13.7667C11.6919 13.8206 11.8432 13.8059 12.0953 13.7227ZM6.31585 15.1566C5.97292 15.044 5.80649 14.9413 5.56946 14.6819C5.00463 14.0751 5.07019 13.1844 5.71067 12.6363C5.99813 12.3916 6.31081 12.2839 6.74452 12.2839C7.0219 12.2839 7.13789 12.3133 7.39005 12.4356C7.6523 12.558 7.70273 12.6069 7.70273 12.7097C7.70273 12.832 7.69769 12.832 7.58674 12.7537C7.15302 12.4503 6.71931 12.3671 6.30577 12.4992C5.34252 12.8076 5.0601 14.0163 5.79641 14.6623C6.3209 15.1175 6.99668 15.1517 7.54135 14.7504L7.71281 14.6232L7.69264 14.7602C7.65734 15.0636 6.79496 15.3083 6.31585 15.1566ZM8.26252 13.7276C8.26252 12.3182 8.26252 12.2839 8.36338 12.2839C8.46425 12.2839 8.46425 12.3182 8.46425 12.8956V13.5074H10.2798V12.8956C10.2798 12.3867 10.2798 12.2839 10.3807 12.2839C10.4311 12.2839 10.4311 12.4748 10.4311 13.7276C10.4311 14.9804 10.4311 15.1713 10.3807 15.1713C10.2798 15.1713 10.2798 15.0587 10.2798 14.4372V13.7031H8.46425V14.4372C8.46425 15.137 8.46425 15.1713 8.36338 15.1713C8.26252 15.1713 8.26252 15.137 8.26252 13.7276ZM14.0622 13.7276V12.2839H14.3648C14.5161 12.2839 14.7178 12.3084 14.8691 12.3377C15.323 12.4699 15.5247 12.9788 15.2725 13.4633C15.2221 13.6297 15.0204 13.7521 14.7682 13.7912L14.5665 13.8255L14.7682 14.1191C14.8691 14.2806 15.1212 14.584 15.2725 14.7896C15.5247 15.1419 15.5247 15.1713 15.4238 15.1713C15.323 15.1664 15.2221 15.0294 14.8187 14.4861C14.5665 14.1093 14.3143 13.801 14.3143 13.801C14.2639 13.801 14.2639 14.1093 14.2639 14.4861C14.2639 15.137 14.2639 15.1713 14.163 15.1713C14.0622 15.1713 14.0622 15.137 14.0622 13.7276ZM14.8187 13.5857C15.0708 13.4927 15.1717 13.3508 15.2221 13.1257C15.2725 12.739 14.9699 12.4797 14.5161 12.4797H14.2639V13.6542H14.4656C14.5665 13.6542 14.7682 13.6248 14.8187 13.5857Z" fill="currentColor"/>
<path d="M6.31585 15.1566C5.97292 15.044 5.80649 14.9413 5.56946 14.6819C5.00463 14.0751 5.07019 13.1844 5.71067 12.6363C5.99813 12.3916 6.31081 12.2839 6.73948 12.2839C7.21354 12.2888 7.70273 12.5139 7.70273 12.7293C7.70273 12.8076 7.67247 12.8027 7.4657 12.6754C7.33458 12.5922 7.14798 12.5041 7.04712 12.4797C6.21499 12.2545 5.38287 12.8859 5.38287 13.7472C5.38287 14.1338 5.5039 14.4029 5.79641 14.6574C6.3209 15.1175 6.99164 15.1517 7.54135 14.7504L7.71281 14.6232L7.69264 14.7602C7.65734 15.0636 6.79496 15.3083 6.31585 15.1566ZM11.3893 15.1126C11.0867 14.9021 11.0363 14.77 11.0363 14.3246C11.0363 13.9723 11.0363 13.8842 11.1876 13.6053C11.3893 13.2186 11.8432 12.7097 12.2466 12.509C12.4484 12.4014 12.5997 12.3622 12.9022 12.3426C13.2048 12.3231 13.2553 12.328 13.3561 12.4454C13.6083 12.6852 13.5074 13.1501 13.1544 13.4193C12.8014 13.6444 12.3475 13.845 11.944 13.9087L11.591 13.9674L11.5406 14.1729C11.5406 14.4666 11.591 14.6623 11.7423 14.7994C12.0449 15.0538 12.4484 15.0049 12.9022 14.6476C13.2553 14.4176 13.3057 14.491 13.0031 14.7553C12.6501 15.0587 12.3475 15.1909 11.944 15.2104C11.591 15.2251 11.5406 15.2153 11.3893 15.1126ZM12.1458 13.6982C12.7005 13.4976 13.2048 12.9054 13.0535 12.602C12.9527 12.3622 12.5492 12.4699 12.2466 12.8222C12.0449 13.0229 11.7927 13.4829 11.7423 13.6933C11.6919 13.8353 11.7927 13.8353 12.1458 13.6982ZM8.26252 13.7276C8.26252 12.3182 8.26252 12.2839 8.36338 12.2839C8.46425 12.2839 8.46425 12.3182 8.46425 12.8956V13.5074H10.2798V12.8956C10.2798 12.3867 10.2798 12.2839 10.3807 12.2839C10.4311 12.2839 10.4311 12.4748 10.4311 13.7276C10.4311 14.9804 10.4311 15.1713 10.3807 15.1713C10.2798 15.1713 10.2798 15.0587 10.2798 14.4372V13.7031H8.46425V14.4372C8.46425 15.137 8.46425 15.1713 8.36338 15.1713C8.26252 15.1713 8.26252 15.137 8.26252 13.7276ZM14.0622 13.7276V12.2839H14.3648C14.9699 12.2839 15.2725 12.4699 15.3734 12.8663C15.4743 13.3361 15.2221 13.7129 14.7682 13.7912L14.5665 13.8255L14.7682 14.1191C14.8691 14.2806 15.1212 14.584 15.2725 14.7896C15.5247 15.1419 15.5247 15.1713 15.4238 15.1713C15.323 15.1664 15.1717 15.0196 14.8187 14.4861C14.5665 14.1093 14.3143 13.801 14.3143 13.801C14.2639 13.801 14.2639 14.1093 14.2639 14.4861C14.2639 15.137 14.2639 15.1713 14.163 15.1713C14.0622 15.1713 14.0622 15.137 14.0622 13.7276ZM15.0204 13.4682C15.2221 13.2725 15.2725 12.9642 15.1212 12.7341C15.0204 12.5433 14.8691 12.4797 14.5161 12.4797H14.2639V13.6689L14.5665 13.6395C14.8187 13.6199 14.9195 13.5857 15.0204 13.4682Z" fill="currentColor"/>
<path d="M6.34611 15.1419C5.63503 14.956 5.2114 14.4274 5.2114 13.7276C5.2114 13.1403 5.49382 12.6999 6.04857 12.4356C6.30577 12.3084 6.41672 12.2839 6.71427 12.2839C7.21858 12.2888 7.70273 12.509 7.70273 12.7341C7.70273 12.8173 7.68256 12.8124 7.48587 12.6852C7.18328 12.4846 6.93112 12.416 6.59323 12.4454C5.7611 12.5188 5.18114 13.3165 5.40808 14.0702C5.56442 14.6036 6.14439 15.0391 6.69409 15.0391C6.99668 15.0391 7.39509 14.8972 7.58674 14.721L7.70273 14.6183V14.7406C7.70273 14.8972 7.4657 15.044 7.05216 15.1468C6.71931 15.2349 6.69409 15.2349 6.34611 15.1419ZM11.3893 15.1126C11.0867 14.9021 11.0363 14.77 11.0363 14.3246C11.0363 13.9723 11.0363 13.8842 11.1876 13.6053C11.3893 13.2186 11.8432 12.7097 12.2466 12.509C12.4484 12.4014 12.5997 12.3622 12.9022 12.3426C13.2048 12.3231 13.2553 12.328 13.3561 12.4454C13.6083 12.6852 13.5074 13.1501 13.1544 13.4193C12.8014 13.6444 12.3475 13.845 11.944 13.9087L11.591 13.9674L11.5406 14.1729C11.5406 14.4666 11.591 14.6623 11.7423 14.7994C12.0449 15.0538 12.4484 15.0049 12.9022 14.6476C13.2553 14.4176 13.3057 14.491 13.0031 14.7553C12.6501 15.0587 12.3475 15.1909 11.944 15.2104C11.591 15.2251 11.5406 15.2153 11.3893 15.1126ZM12.1458 13.6982C12.7005 13.4976 13.2048 12.9054 13.0535 12.602C12.9527 12.3622 12.5492 12.4699 12.2466 12.8222C12.0449 13.0229 11.7927 13.4829 11.7423 13.6933C11.6919 13.8353 11.7927 13.8353 12.1458 13.6982ZM8.26252 13.7276C8.26252 12.3182 8.26252 12.2839 8.36338 12.2839C8.46425 12.2839 8.46425 12.3182 8.46425 12.8956V13.5074H10.2798V12.8956C10.2798 12.3867 10.2798 12.2839 10.3807 12.2839C10.4311 12.2839 10.4311 12.4748 10.4311 13.7276C10.4311 14.9657 10.4311 15.1713 10.3807 15.1713C10.2798 15.1713 10.2798 15.044 10.2798 14.4225V13.6787L9.37202 13.664L8.46425 13.6542V14.4127C8.46425 15.137 8.46425 15.1713 8.36338 15.1713C8.26252 15.1713 8.26252 15.137 8.26252 13.7276ZM14.0622 13.7227V12.2692L14.4656 12.2986C14.9195 12.3328 15.1212 12.4209 15.2725 12.6412C15.4238 12.8418 15.4238 13.2627 15.2725 13.4633C15.1717 13.615 14.8691 13.801 14.6674 13.801C14.6169 13.801 14.5665 13.8108 14.5665 13.8206C14.5665 13.8353 14.7682 14.1338 15.0204 14.4861C15.2725 14.8385 15.4743 15.1419 15.4743 15.1566C15.3734 15.2251 15.2725 15.0881 14.8187 14.4666C14.5665 14.0995 14.3143 13.801 14.3143 13.801C14.2639 13.801 14.2639 14.1093 14.2639 14.4861C14.2639 15.137 14.2639 15.1713 14.163 15.1713C14.0622 15.1713 14.0622 15.137 14.0622 13.7227ZM14.8691 13.5759C15.2725 13.4095 15.323 12.881 15.0204 12.6167C14.8691 12.4992 14.8187 12.4797 14.5665 12.4797H14.2639V13.6542H14.5161C14.6169 13.6542 14.8187 13.6199 14.8691 13.5759Z" fill="currentColor"/>
<path d="M11.3893 15.1126C11.0867 14.9021 11.0363 14.77 11.0363 14.3246C11.0363 13.9723 11.0363 13.8842 11.1876 13.6053C11.3893 13.2186 11.8432 12.7097 12.2466 12.509C12.4484 12.4014 12.5997 12.3622 12.9022 12.3426C13.2048 12.3231 13.2553 12.328 13.3561 12.4454C13.6083 12.6852 13.5074 13.1501 13.1544 13.4193C12.8014 13.6444 12.3475 13.845 11.944 13.9087L11.591 13.9674L11.5406 14.1729C11.5406 14.4666 11.591 14.6623 11.7423 14.7994C12.0449 15.0538 12.4484 15.0049 12.9022 14.6476C13.2553 14.4176 13.3057 14.491 13.0031 14.7553C12.6501 15.0587 12.3475 15.1909 11.944 15.2104C11.591 15.2251 11.5406 15.2153 11.3893 15.1126ZM12.1458 13.6982C12.7005 13.4976 13.2048 12.9054 13.0535 12.602C12.9527 12.3622 12.5492 12.4699 12.2466 12.8222C12.0449 13.0229 11.7927 13.4829 11.7423 13.6933C11.6919 13.8353 11.7927 13.8353 12.1458 13.6982ZM6.04857 15.0245C5.49382 14.7553 5.2114 14.3149 5.2114 13.7276C5.20636 13.155 5.49382 12.7048 6.05361 12.4209C6.23012 12.328 6.34611 12.3084 6.72435 12.3084C7.14294 12.3084 7.19841 12.3182 7.4304 12.4552C7.59178 12.5531 7.68256 12.6461 7.69264 12.7195L7.71281 12.832L7.54135 12.7048C6.94625 12.2692 6.22003 12.3377 5.70059 12.8859C5.01976 13.6004 5.37782 14.7113 6.38142 15.0049C6.7647 15.1175 7.2085 15.0196 7.58674 14.7504C7.69769 14.6721 7.70273 14.677 7.70273 14.77C7.70273 14.8434 7.62204 14.9119 7.39005 15.0196C7.13285 15.1468 7.0219 15.1713 6.71931 15.1713C6.41672 15.1713 6.30577 15.1468 6.04857 15.0245ZM8.31295 13.7521C8.31295 12.9103 8.31295 12.3328 8.36338 12.3328C8.36338 12.3328 8.41382 12.602 8.41382 12.9348V13.5318L9.37202 13.5465L10.2798 13.5563V12.9495C10.2798 12.4552 10.2798 12.3377 10.3807 12.3133C10.4311 12.2888 10.4311 12.4699 10.4311 13.7276C10.4311 14.9804 10.4311 15.1713 10.3807 15.1713C10.2798 15.1713 10.2798 15.0538 10.2798 14.4127V13.6542L9.37202 13.664L8.41382 13.6787V14.4225C8.41382 14.9755 8.41382 15.1713 8.36338 15.1713C8.31295 15.1713 8.31295 14.8483 8.31295 13.7521ZM14.0622 13.7423V12.3084L14.5161 12.3328C15.0204 12.3622 15.1717 12.4405 15.323 12.7048C15.5247 13.1942 15.2725 13.6933 14.7682 13.7765C14.6674 13.7961 14.5665 13.8206 14.5665 13.8304C14.5665 13.845 14.7682 14.1436 15.0204 14.491C15.2725 14.8434 15.4743 15.137 15.4743 15.1517C15.4743 15.1615 15.4238 15.1713 15.4238 15.1713C15.3734 15.1713 15.1212 14.863 14.8691 14.4861C14.5665 14.1093 14.3143 13.801 14.2639 13.801C14.2135 13.801 14.2135 13.9234 14.2135 14.4861C14.2135 15.0636 14.2135 15.1713 14.163 15.1713C14.0622 15.1713 14.0622 14.9804 14.0622 13.7423ZM14.8691 13.5857C15.1212 13.5025 15.2221 13.292 15.2221 13.0131C15.2221 12.739 14.9699 12.5041 14.6674 12.4552C14.2135 12.3916 14.2639 12.3769 14.2135 13.0571V13.6542H14.4656C14.6169 13.6542 14.8187 13.6248 14.8691 13.5857Z" fill="currentColor"/>
<path d="M11.3893 15.1126C11.0867 14.9021 11.0363 14.77 11.0363 14.3246C11.0363 13.9723 11.0363 13.8842 11.1876 13.6053C11.3893 13.2186 11.8432 12.7097 12.2466 12.509C12.4484 12.4014 12.5997 12.3622 12.9022 12.3426C13.2048 12.3231 13.2553 12.328 13.3561 12.4454C13.6083 12.6852 13.5074 13.1501 13.1544 13.4193C12.8014 13.6444 12.3475 13.845 11.944 13.9087L11.591 13.9674L11.5406 14.1729C11.5406 14.4666 11.591 14.6623 11.7423 14.7994C12.0449 15.0538 12.4484 15.0049 12.9022 14.6476C13.2553 14.4176 13.3057 14.491 13.0031 14.7553C12.6501 15.0587 12.3475 15.1909 11.944 15.2104C11.591 15.2251 11.5406 15.2153 11.3893 15.1126ZM12.1458 13.6982C12.7005 13.4976 13.2048 12.9054 13.0535 12.602C12.9527 12.3622 12.5492 12.4699 12.2466 12.8222C12.0449 13.0229 11.7927 13.4829 11.7423 13.6933C11.6919 13.8353 11.7927 13.8353 12.1458 13.6982Z" fill="currentColor"/>
</svg>
