<?xml version="1.0" encoding="UTF-8" standalone="no"?>
<svg
   xmlns:dc="http://purl.org/dc/elements/1.1/"
   xmlns:cc="http://creativecommons.org/ns#"
   xmlns:rdf="http://www.w3.org/1999/02/22-rdf-syntax-ns#"
   xmlns:svg="http://www.w3.org/2000/svg"
   xmlns="http://www.w3.org/2000/svg"
   xml:space="preserve"
   style="enable-background:new 0 0 96 96;"
   viewBox="0 0 96 96"
   y="0px"
   x="0px"
   id="actu-tour-3"
   version="1.1"><defs
     id="defs9" /><rect
     height="95.9"
     width="95.9"
     class="st0"
     y="0.1"
     x="0.1"
     id="bg"
     style="fill:#EC407A;" /><g
     aria-label="é"
     transform="translate(6,8)"
     id="text834"
     style="font-style:normal;font-weight:normal;font-size:21.59px;line-height:1.25;font-family:sans-serif;letter-spacing:0px;word-spacing:0px;fill:#000000;fill-opacity:1;stroke:none;stroke-width:0.54"><path
       d="m 51.6,62.8 q 0,-0.2 0.1,-0.3 0,-0.1 0,-0.2 0,-0.9 -0.5,-1.4 -0.5,-0.5 -1.4,-0.5 -1,0 -1.7,0.6 -0.7,0.7 -1.1,1.8 z m 1.1,1 h -6 q 0,0.2 0,0.4 0,0.1 0,0.3 0,0.9 0.6,1.5 0.6,0.5 1.7,0.5 0.8,0 1.6,-0.2 0.7,-0.2 1.4,-0.5 L 51.7,67 q -0.7,0.3 -1.4,0.5 -0.8,0.1 -1.5,0.1 -1.7,0 -2.6,-0.8 -0.8,-0.8 -0.8,-2.2 0,-1.2 0.4,-2.3 0.4,-1 1.3,-1.9 0.5,-0.5 1.3,-0.8 0.7,-0.3 1.6,-0.3 1.3,0 2.1,0.8 0.8,0.8 0.8,2.2 0,0.3 0,0.7 -0.1,0.4 -0.2,0.8 z M 51.6,55.9 H 53 l -2.8,2.6 h -1.1 z"
       style="fill:#ffffff"
       id="path851" /></g><g
     id="g37"
     transform="matrix(0.276,0,0,0.276,-124,6.3)"><path
       class="st2"
       d="m 641,42.9 c 1,-0.4 1,-0.5 2,-0.4 0,0.1 0,0.1 0,0.1 10,6.1 10,47.1 -5,89.4 -16,45 -22,53 -28,62 -1,1 -2,2 -3,4 0,0 0,0 0,0 -2,1 -3,2 -5,1 -3,0 -6,-7 -1,-48 5,-40 28,-94.8 40,-108.1 z M 519,155 c 0,0 -1,0 -1,0 -1,0 -1,0 -2,-1 0,-1 1,-2 1,-2 12,-11 22,-15 33,-12 26,6 38,53 37,85 0,2 0,2 -1,3 -1,0 -1,0 -2,0 -1,0 -1,-1 -2,-2 -5,-36 -25,-63 -51,-69 -4,-1 -8,-2 -12,-2 z m 104,71 -4,3 c -1,1 -2,1 -3,1 -2,0 -2,-1 -2,-2 5,-26 23,-51 46,-66 16,-10 34,-14 47,-11 12,3 20,10 25,22 1,1 1,3 1,4 -1,0 -1,1 -2,0 -1,0 -2,0 -3,-1 -2,-1 -5,-2 -7,-3 -35,-8 -78,33 -98,53 z"
       id="path35"
       style="fill:#ffffff" /></g><metadata
     id="metadata863"><rdf:RDF><cc:Work
         rdf:about=""><dc:title></dc:title></cc:Work></rdf:RDF></metadata></svg>
