<?xml version="1.0" encoding="UTF-8" standalone="no"?>
<svg
   xmlns:dc="http://purl.org/dc/elements/1.1/"
   xmlns:cc="http://creativecommons.org/ns#"
   xmlns:rdf="http://www.w3.org/1999/02/22-rdf-syntax-ns#"
   xmlns:svg="http://www.w3.org/2000/svg"
   xmlns="http://www.w3.org/2000/svg"
   id="ELEA"
   viewBox="0 0 254 254"
   version="1.1">
  <g
     id="g77"
     transform="translate(-279,-173)">
    <rect
       transform="matrix(2.65,0,0,2.65,279,173)"
       style="display:inline;fill:#ffa726"
       id="bg"
       x="0.1"
       y="0.1"
       width="95.9"
       height="95.9" />
    <path
       transform="matrix(0.938,0,0,1.11,322,214)"
       id="path849"
       d="m 83.7,150 c -2.6,0 -4.7,-1 -4.7,-2 0,0 6.4,-3 14.1,-6 10.9,-5 14.9,-6 15.9,-5 1,0 3,2 5,3 2,1 4,3 4,4 0,1 -3,3 -6,5 -6,2 -8,3 -15,3 -5.4,0 -10.2,-1 -13.3,-2 z M 49.5,139 c -2.2,-1 -5.9,-3 -8.2,-4 C 36.8,133 23,121 23,120 c 0,0 15.2,-1 33.7,-1 l 33.8,-1 4.2,4 c 2.4,3 4.3,5 4.3,5 0,0 -6.2,3 -13.8,7 -12.7,5 -14.3,5 -22.7,6 -5.6,0 -10.5,-1 -13,-1 z M 124,134 C 110,127 99.9,116 90.5,99.1 88.3,95 85.4,90.8 84,89.8 81.7,88.2 49,75.2 25,66.4 12.5,61.7 8.58,59.4 5.26,54.7 2.69,50.9 2.5,50 2.5,40.6 2.5,30.6 5.12,18 7.18,18 c 0.47,0 14.22,9.2 30.62,20.5 16.3,11.3 30.1,20.7 30.7,20.8 0.5,0.1 1.4,-1 1.9,-2.5 2.3,-6.5 -4.9,-13.2 -11.5,-10.9 -3.1,1.1 -3.1,1 -2.4,-1.7 0.9,-3.6 2.3,-4.4 6.8,-3.8 9.5,1.1 15.5,11.3 11.3,19.4 L 73,62.9 95.7,78.2 c 24.3,16 29.3,20.9 33.3,27.8 4,8 4,19 1,28 l -1,3 z M 50.5,108 c -19.6,0 -20.1,-1 -26,-3 C 13.7,99.3 3.66,86.6 1.42,75.4 L 0.794,72.2 38.6,83.6 C 79.4,95.8 78.3,95.3 83.4,104 l 2.7,5 h -7.8 c -4.3,0 -16.8,-1 -27.8,-1 z m 78.5,-19 -4,-4.6 3,-5 c 2,-2.8 5,-7.8 6,-11.8 7,-23.8 -9,-48.3 -34,-49.4 -10.5,-0.5 -16.3,2 -19.1,8.2 -1,2.4 -2.2,5.8 -2.5,7.5 -0.8,3.6 -0.2,3.5 -6.9,1.5 l -5.4,-1.5 0.5,-5.2 c 0.5,-4.8 1,-5.7 6.2,-10.5 9.9,-9.32 21,-13.22 37.2,-13.17 15,0 27,5.27 40,16.87 15,13.1 24,31.7 26,52.1 0,8.4 0,8.5 -4,9.3 -2,0.2 -3,0.8 -4,1.2 -1,0.4 -3,0.8 -5,0.9 -2,0.1 -3,0.4 -2,0.8 0,0.3 -1,1 -3,1.3 -2,0.4 -4,1 -4,1.4 -1,0.3 -2,0.6 -3,0.7 -1,0.1 -2,0.2 -2,0.3 0,0.2 -2,0.4 -3,0.7 -1,0.2 -3,0.9 -4,1.5 0,0.6 -1,0.9 -1,0.6 0,-0.3 -2,-0.2 -3,0.3 -3,0.6 -4,0.3 -9,-4 z M 89.5,69.1 C 87.8,68.1 85.7,66.3 84.6,65.2 82.2,62.4 81.4,55.1 83.3,52.6 84.6,50.8 85,50.8 88,52 c 5,2.1 8.6,11.7 6.4,17.4 -0.8,2 -1.2,2 -4.9,-0.3 z M 95.3,51 C 90.7,48.2 88.7,44.6 88.6,39 88.5,33.7 90.4,30.3 95.4,26.6 98.9,24 107,23.9 110,26.4 c 6,3.9 9,13.1 6,19.6 -4,6.5 -14,9.1 -20.7,5 z M 109,45.1 c 6,-5.9 3,-15.1 -6,-15.1 -4.3,0 -6.9,1.5 -8.5,5.2 -4,9.6 7.5,17.2 14.5,9.9 z"
       style="fill:#ffffff" />
  </g>
  <metadata
     id="metadata1093">
    <rdf:RDF>
      <cc:Work
         rdf:about="">
        <dc:title></dc:title>
        <dc:format>image/svg+xml</dc:format>
        <dc:type
           rdf:resource="http://purl.org/dc/dcmitype/StillImage" />
      </cc:Work>
    </rdf:RDF>
  </metadata>
</svg>
