<?xml version="1.0" encoding="utf-8"?>
<!-- Generator: Adobe Illustrator 22.1.0, SVG Export Plug-In . SVG Version: 6.00 Build 0)  -->
<svg version="1.1" id="gestion-comptes" xmlns="http://www.w3.org/2000/svg" xmlns:xlink="http://www.w3.org/1999/xlink" x="0px"
	 y="0px" viewBox="0 0 96 96" style="enable-background:new 0 0 96 96;" xml:space="preserve">
<style type="text/css">
	.st0{fill:#EF5350;}
	.st1{fill:#FFFFFF;}
</style>
<rect id="bg" x="0.1" y="0.1" class="st0" width="95.9" height="95.9"/>
<path id="icone" class="st1" d="M42.8,25c-5.3,0-9.6,4.3-9.6,9.6s4.3,9.6,9.6,9.6s9.6-4.3,9.6-9.6S48.1,25,42.8,25 M42.8,49.1
	c-6.4,0-19.2,3.2-19.2,9.6v4.8h26.7c-0.1-0.8-0.2-1.6-0.2-2.4c0-3.6,1.2-7.2,3.4-10.1C49.7,49.7,45.6,49.1,42.8,49.1 M64.4,49.1
	c-0.3,0-0.6,0.2-0.6,0.5l-0.5,3.2c-0.7,0.3-1.4,0.7-2,1.1l-3-1.2c-0.3,0-0.6,0-0.7,0.3l-2.4,4.2c-0.1,0.3-0.1,0.6,0.1,0.8l2.5,2
	c0,0.4-0.1,0.8-0.1,1.2s0,0.8,0.1,1.2l-2.5,2c-0.2,0.2-0.3,0.5-0.1,0.8l2.4,4.2c0.1,0.3,0.5,0.3,0.7,0.3l3-1.2
	c0.6,0.4,1.3,0.8,2,1.1l0.5,3.2c0,0.3,0.3,0.5,0.6,0.5h4.8c0.3,0,0.5-0.2,0.6-0.5l0.5-3.2c0.7-0.3,1.4-0.7,2-1.1l3,1.2
	c0.3,0,0.6,0,0.8-0.3l2.4-4.2c0.1-0.3,0.1-0.6-0.1-0.8l-2.6-2c0-0.4,0.1-0.8,0.1-1.2s0-0.8-0.1-1.2l2.5-2c0.2-0.2,0.3-0.5,0.1-0.8
	L76,53c-0.1-0.3-0.5-0.3-0.8-0.3l-3,1.2c-0.6-0.4-1.3-0.8-2-1.1l-0.5-3.2c0-0.3-0.3-0.5-0.6-0.5 M66.9,57.5c2,0,3.6,1.6,3.6,3.6
	s-1.6,3.6-3.6,3.6s-3.6-1.6-3.6-3.6C63.2,59.1,64.9,57.5,66.9,57.5z"/>
</svg>
