<?xml version="1.0" encoding="utf-8"?>
<!-- Generator: Adobe Illustrator 22.1.0, SVG Export Plug-In . SVG Version: 6.00 Build 0)  -->
<svg version="1.1" id="mes-espaces-stockage-2" xmlns="http://www.w3.org/2000/svg" xmlns:xlink="http://www.w3.org/1999/xlink"
	 x="0px" y="0px" viewBox="0 0 96 96" style="enable-background:new 0 0 96 96;" xml:space="preserve">
<style type="text/css">
	.st0{fill:#FFA726;}
	.st1{fill:#FFFFFF;}
</style>
<rect id="bg" x="0.1" y="0.1" class="st0" width="95.9" height="95.9"/>
<path id="icone" class="st1" d="M24.8,53.2V27.3c0-2.9,2.3-5.2,5.2-5.2h15.5l5.2,5.2h15.5c2.9,0,5.2,2.3,5.2,5.2v20.7
	c0,2.9-2.3,5.2-5.2,5.2H50.6v5.2h2.6c1.4,0,2.6,1.2,2.6,2.6h18.1v5.2H55.8c0,1.4-1.2,2.6-2.6,2.6H42.8c-1.4,0-2.6-1.2-2.6-2.6h-18
	v-5.2h18.1c0-1.4,1.2-2.6,2.6-2.6h2.6v-5.2H29.9C27.1,58.3,24.8,56,24.8,53.2z"/>
</svg>
