<?xml version="1.0" encoding="UTF-8" standalone="no"?>
<svg
   xml:space="preserve"
   style="enable-background:new 0 0 96 96;"
   viewBox="0 0 96 96"
   y="0px"
   x="0px"
   id="mce-1"
   version="1.1"
   xmlns="http://www.w3.org/2000/svg"
   xmlns:svg="http://www.w3.org/2000/svg"><defs
     id="defs9" /><style
     id="style2"
     type="text/css">
	.st0{fill:#66BB6A;}
	.st1{fill:#FFFFFF;}
</style><rect
     height="95.9"
     width="95.9"
     class="st0"
     y="0.1"
     x="0.1"
     id="bg" /><path
     id="logo"
     d="M 32.9,28.7 48.1,7.21 C 49.1,5.82 49.2,4 48.4,2.5 47.7,0.987 46.1,0.04 44.4,0.04 H 5.47 C 3.77,0.035 2.2,0.985 1.42,2.5 0.634,4.01 0.762,5.84 1.75,7.23 L 16.9,28.7 1.75,50.1 c -0.986,1.4 -1.113,3.3 -0.33,4.8 0.78,1.5 2.35,2.5 4.05,2.5 H 44.4 c 1.7,0 3.3,-1 4.1,-2.5 0.7,-1.5 0.6,-3.4 -0.4,-4.8 z m -7.7,3.6 c 0,0.1 -0.1,0.2 -0.3,0.2 -0.1,0 -0.2,-0.1 -0.3,-0.2 l -2.5,-3.6 2.5,-3.6 c 0.1,-0.1 0.2,-0.2 0.3,-0.2 0.2,0 0.3,0.1 0.3,0.2 l 2.6,3.6 z M 25,20.7 c -1.5,0 -2.9,0.7 -3.8,1.9 L 19.5,25 5.22,4.76 v 0 C 5.14,4.65 5.14,4.51 5.2,4.4 5.26,4.28 5.38,4.21 5.51,4.21 H 44.4 c 0.2,0 0.3,0.1 0.4,0.19 0,0.11 0,0.26 0,0.37 L 30.4,25 28.7,22.6 C 27.8,21.4 26.4,20.7 25,20.7 Z M 5.22,52.6 19.6,32.3 l 1.7,2.4 c 0.8,1.2 2.2,2 3.7,2 1.5,0 2.9,-0.8 3.7,-2 l 1.7,-2.4 14.3,20.3 c 0.1,0.1 0.1,0.2 0,0.3 0,0.2 -0.1,0.2 -0.3,0.2 H 5.47 c -0.13,0 -0.26,0 -0.31,-0.2 -0.1,-0.1 0,-0.2 0.1,-0.3 z"
     class="st1"
     transform="translate(22,20.8)" /></svg>
