<svg id="icone" viewBox="0 0 24 24" fill="none" xmlns="http://www.w3.org/2000/svg">
<path d="M12.0001 13.3736V17C12.0001 18 13 19 14 19L17.9688 19C19.8762 19 21.8713 17.4984 21.9941 15.2227L22 15C22 12.6 20.1618 10.8128 18.9951 10.4795C18.9951 7.97342 16.5194 5 13.0001 5C9.48092 5.00004 7.33356 7.30894 7.00016 8.97559C5.33348 8.97562 1.96922 9.47711 2.00021 14C2.02503 17.622 4.47321 18.9999 7.00016 19H10C10.5523 19 11 18.5523 11 18C11 17.4477 10.5523 17 10 17H7.00016C6.07267 17 5.3366 16.7449 4.86249 16.3389C4.43921 15.9762 4.00929 15.3128 4.00019 13.9863C3.98866 12.303 4.56271 11.7275 4.966 11.4609C5.52199 11.0936 6.30362 10.9756 7.00016 10.9756H8.63979L8.96108 9.36816C9.08776 8.73474 10.3302 7.00004 13.0001 7C15.419 7 16.9952 9.08214 16.9952 10.4795V11.9883L18.4463 12.4023C18.4541 12.4053 18.5103 12.4269 18.6043 12.4847C18.6476 12.5114 18.6991 12.5458 18.7578 12.5898C18.9451 12.7301 19.1547 12.93 19.3487 13.1826C19.7395 13.6917 20 14.3212 20 15C20 16.1399 18.9954 17 17.9688 17H15C14 17 14.0001 17 14.0001 16V13.3707L14.4151 13.7867C14.8056 14.1773 15.4396 14.1773 15.8301 13.7867C16.2202 13.3962 16.2204 12.7631 15.8301 12.3727L13.7794 10.3219L13.6954 10.2467C13.2921 9.91783 12.7099 9.91768 12.3067 10.2467L12.2237 10.3219L10.1729 12.3727C9.78243 12.7631 9.7825 13.3962 10.1729 13.7867C10.5634 14.1773 11.1965 14.1773 11.587 13.7867L12.0001 13.3736Z" fill="currentColor"/>
</svg>
