<?xml version="1.0" encoding="UTF-8" standalone="no"?>
<svg
   xmlns:dc="http://purl.org/dc/elements/1.1/"
   xmlns:cc="http://creativecommons.org/ns#"
   xmlns:rdf="http://www.w3.org/1999/02/22-rdf-syntax-ns#"
   xmlns:svg="http://www.w3.org/2000/svg"
   xmlns="http://www.w3.org/2000/svg"
   xml:space="preserve"
   style="enable-background:new 0 0 96 96;"
   viewBox="0 0 96 96"
   y="0px"
   x="0px"
   id="mce-1"
   version="1.1"><defs
     id="defs9" /><style
     id="style2"
     type="text/css">
	.st0{fill:#66BB6A;}
	.st1{fill:#FFFFFF;}
</style><rect
     height="95.9"
     width="95.9"
     class="st0"
     y="0.1"
     x="0.1"
     id="bg" /><path
     class="st1"
     id="logo"
     transform="matrix(0.707,0,0,0.707,-52,-1.54)"
     d="m 169,57.8 a 23.9,23.9 0 0 0 -45,-3.7 17.6,17.6 0 0 0 -11,9 16.3,16.3 0 0 0 3,32.5 h 18 v -5.5 h -18 a 10.9,10.9 0 0 1 -1,-21.7 2.74,2.74 0 0 0 3,-1.8 12.2,12.2 0 0 1 9,-7.5 2.74,2.74 0 0 0 2,-1.7 18.5,18.5 0 0 1 35,3.1 2.74,2.74 0 0 0 2,2.3 13.8,13.8 0 0 1 -2,27.3 h -15 a 4.76,4.76 0 0 1 -5,-4.8 V 72.2 l 3,3.1 4,-3.9 -8,-7.7 a 2.82,2.82 0 0 0 -4,0 l -7,7.7 4,3.9 3,-3 v 13 a 10.3,10.3 0 0 0 10,10.2 h 15 a 19.2,19.2 0 0 0 5,-37.7 z" /></svg>
