<?xml version="1.0" encoding="utf-8"?>
<!-- Generator: Adobe Illustrator 22.1.0, SVG Export Plug-In . SVG Version: 6.00 Build 0)  -->
<svg version="1.1" id="grr-3" xmlns="http://www.w3.org/2000/svg" xmlns:xlink="http://www.w3.org/1999/xlink" x="0px" y="0px"
	 viewBox="0 0 96 96" style="enable-background:new 0 0 96 96;" xml:space="preserve">
<style type="text/css">
	.st0{fill:#66BB6A;}
	.st1{fill:#FFFFFF;}
</style>
<rect id="bg" x="0.1" y="0.1" class="st0" width="95.9" height="95.9"/>
<path id="icone" class="st1" d="M66,24.7L66,24.7c-3-1.8-6-1.1-7.6-0.3c-3.8-2.5-8-3.2-10.7-3.1c-2.6-0.1-6.7,0.7-10.4,3.1
	c-1.6-0.8-4.7-1.5-7.6,0.2l-0.1,0.1c-0.6,0.4-14.5,9.8-12.4,20.1c0.8,3.9,4.2,5.6,6.9,6.1c-0.6,2.3-0.9,4.5-0.9,6.4
	c0,8.4,4.2,18.4,24.4,18.4h0.3c20.1,0,24.4-10,24.4-18.4c0-1.8-0.4-4-0.9-6.3c2.7-0.5,6.3-2.2,7.1-6.1C80.5,34.4,66.6,25.1,66,24.7z
	 M25.5,46.1c-1-0.2-3.1-0.7-3.4-2.2c-1.2-5.9,6.9-12.8,10.2-15c0.2-0.1,0.3-0.2,0.5-0.2c-0.8,1.1-1.5,2.4-2.1,3.9
	C30.3,33.3,27.5,39.5,25.5,46.1z M47.7,59.2c-1.1-0.4-2.9-1.8-3.1-2.5c0.4-0.2,1.4-0.5,3.1-0.5l0,0c1.7,0,2.7,0.3,3.1,0.5
	C50.6,57.3,48.9,58.7,47.7,59.2z M50.4,70.6v-7.2c1.4-0.7,2.9-1.8,3.9-2.9c1.6-1.9,1.8-3.7,1.6-4.8c-0.2-1.4-1.4-4.5-8.1-4.5l0,0
	c-6.7,0-7.9,3.2-8.1,4.5c-0.2,1.1,0,2.9,1.6,4.8c1,1.2,2.6,2.4,4.1,3.1v7.1C30.1,70,28.2,62.8,28.2,57.3c0-6,5.1-18.4,7.1-22.7
	l0.1-0.1c3-7.8,11-8.1,12.2-8.1c0.1,0,0.1,0,0.1,0h0.1h0.1c0.1,0,9-0.5,12.2,8.1l0.1,0.2c2,4.3,7.1,16.7,7.1,22.7
	C67.2,62.7,65.4,69.9,50.4,70.6z M73.5,43.8c-0.3,1.6-2.6,2.1-3.5,2.3c-2.1-6.5-4.8-12.7-5.2-13.5c-0.6-1.5-1.3-2.8-2.1-3.9
	c0.2,0.1,0.4,0.1,0.6,0.2C66.6,31.1,74.7,38,73.5,43.8z M57,44.3c0,1.8-1.4,3.2-3.2,3.2s-3.2-1.4-3.2-3.2c0-0.2,4.4-3,4.9-2.7
	C56.4,42.2,57,43.2,57,44.3z M38.5,44.3c0,1.8,1.4,3.2,3.2,3.2s3.2-1.4,3.2-3.2c0-0.2-4.4-3-4.9-2.7C39,42.2,38.5,43.2,38.5,44.3z"
	/>
</svg>
