<?xml version="1.0" encoding="utf-8"?>
<!-- Generator: Adobe Illustrator 22.1.0, SVG Export Plug-In . SVG Version: 6.00 Build 0)  -->
<svg version="1.1" id="gestion-groupes" xmlns="http://www.w3.org/2000/svg" xmlns:xlink="http://www.w3.org/1999/xlink" x="0px"
	 y="0px" viewBox="0 0 96 96" style="enable-background:new 0 0 96 96;" xml:space="preserve">
<style type="text/css">
	.st0{fill:#EF5350;}
	.st1{fill:#FFFFFF;}
</style>
<rect id="bg" x="0.1" y="0.1" class="st0" width="95.9" height="95.9"/>
<path id="icone" class="st1" d="M78.8,64.3l-2.6-2c0-0.4,0.1-0.8,0.1-1.2s0-0.8-0.1-1.2l2.5-2c0.2-0.2,0.3-0.5,0.1-0.8L76.5,53
	c-0.1-0.3-0.5-0.3-0.8-0.3l-3,1.2c-0.6-0.4-1.3-0.8-2-1.1l-0.5-3.2c0-0.3-0.3-0.5-0.6-0.5h-4.8c-0.3,0-0.6,0.2-0.6,0.5l-0.5,3.2
	c-0.7,0.3-1.4,0.7-2,1.1l-3-1.2c-0.3,0-0.6,0-0.7,0.3l-2.4,4.2c-0.1,0.3-0.1,0.6,0.1,0.8l2.5,2c0,0.4-0.1,0.8-0.1,1.2s0,0.8,0.1,1.2
	l-2.5,2c-0.2,0.2-0.3,0.5-0.1,0.8l2.4,4.2c0.1,0.3,0.5,0.3,0.7,0.3l3-1.2c0.6,0.4,1.3,0.8,2,1.1l0.5,3.2c0,0.3,0.3,0.5,0.6,0.5h4.8
	c0.3,0,0.5-0.2,0.6-0.5l0.5-3.2c0.7-0.3,1.4-0.7,2-1.1l3,1.2c0.3,0,0.6,0,0.8-0.3l2.4-4.2C79,64.8,79,64.5,78.8,64.3z M67.3,64.7
	c-2,0-3.6-1.6-3.6-3.6s1.6-3.6,3.6-3.6s3.6,1.6,3.6,3.6S69.3,64.7,67.3,64.7z M57.7,47.3c-3.3-1.2-7-1.8-9.6-1.8
	c-5.6,0-16.9,2.8-16.9,8.5v5.6h19.3C51,54.5,53.7,50.1,57.7,47.3z M17.1,54.9v4.7h8.5V54c0-2.2,0.8-4.1,1.9-5.7
	C22.8,49.1,17.1,51.3,17.1,54.9z M31.2,43.2c2.5,0,4.6-1.3,5.9-3.2c-1.9-2.4-3.1-5.3-3.1-8.5c0-0.6,0-1.1,0.1-1.7
	c-0.9-0.4-1.9-0.6-2.9-0.6c-3.9,0-7,3.2-7,7S27.3,43.2,31.2,43.2z M48.1,23c4.7,0,8.5,3.8,8.5,8.5S52.8,40,48.1,40s-8.5-3.8-8.5-8.5
	S43.4,23,48.1,23z M65,43.2c3.9,0,7-3.2,7-7s-3.2-7-7-7c-1,0-2,0.2-2.9,0.6c0.1,0.6,0.1,1.1,0.1,1.7c0,3.2-1.2,6.1-3.1,8.5
	C60.4,41.9,62.5,43.2,65,43.2z"/>
</svg>
