<?xml version="1.0" encoding="utf-8"?>
<!-- Generator: Adobe Illustrator 22.1.0, SVG Export Plug-In . SVG Version: 6.00 Build 0)  -->
<svg version="1.1" id="portail-requetes" xmlns="http://www.w3.org/2000/svg" xmlns:xlink="http://www.w3.org/1999/xlink" x="0px"
	 y="0px" viewBox="0 0 96 96" style="enable-background:new 0 0 96 96;" xml:space="preserve">
<style type="text/css">
	.st0{fill:#EF5350;}
	.st1{fill:#FFFFFF;}
</style>
<rect id="bg" x="0.1" y="0.1" class="st0" width="95.9" height="95.9"/>
<path id="icone" class="st1" d="M48,37.6c-5.1,0-9.2,1.1-9.2,2.5s4.1,2.5,9.2,2.5s9.2-1.1,9.2-2.5C57.2,38.7,53.1,37.6,48,37.6z
	 M48,45.1c-5.1,0-9.2-1.1-9.2-2.5v13.1c0,1.4,4.1,2.5,9.2,2.5s9.2-1.1,9.2-2.5V42.6C57.2,44,53.1,45.1,48,45.1z M47,34.7h2v-4.1
	l5.7-5.7L48,18.3l-6.6,6.6l5.6,5.7V34.7z M49,61.5h-2v4.1l-5.6,5.6l6.6,6.6l6.7-6.6L49,65.6V61.5z M35.8,49.1v-2h-5.3l-5.6-5.6
	l-6.6,6.6l6.6,6.6l5.6-5.6H35.8z M71.2,41.5l-5.6,5.6h-5.3v2h5.3l5.6,5.6l6.6-6.6L71.2,41.5z M61.1,36.4h8V27h-9.4v8l-2.1,2.1
	l1.4,1.4L61.1,36.4z M35,59.7h-8v9.4h9.4v-7.9l2.1-2.1L37,57.7L35,59.7z M36.4,27H27v9.4h8l2,2.1l1.5-1.4L36.4,35V27z M59,57.7
	l-1.4,1.4l2.1,2.1v7.9h9.4v-9.4h-8L59,57.7z"/>
</svg>
