<?xml version="1.0" encoding="utf-8"?>
<!-- Generator: Adobe Illustrator 22.1.0, SVG Export Plug-In . SVG Version: 6.00 Build 0)  -->
<svg version="1.1" id="liens-utiles-1" xmlns="http://www.w3.org/2000/svg" xmlns:xlink="http://www.w3.org/1999/xlink" x="0px"
	 y="0px" viewBox="0 0 96 96" style="enable-background:new 0 0 96 96;" xml:space="preserve">
<style type="text/css">
	.st0{fill:#AB47BC;}
	.st1{fill:#FFFFFF;}
</style>
<rect id="bg" x="0.1" y="0.1" class="st0" width="95.9" height="95.9"/>
<path id="icone" class="st1" d="M59.1,31.5h-8.2v5.2h8.2c6.2,0,11.3,5,11.3,11.3c0,6.2-5,11.3-11.3,11.3l0,0h-8.2v5.2h8.2
	c9.1,0,16.5-7.4,16.5-16.5C75.6,38.9,68.2,31.5,59.1,31.5 M25.8,48c0-6.2,5.1-11.3,11.3-11.3h8.2v-5.2h-8.2
	c-9.1,0-16.5,7.4-16.5,16.5S28,64.5,37.1,64.5h8.2v-5.2h-8.2C30.9,59.3,25.8,54.3,25.8,48 M37.1,50.8h22v-5.5h-22V50.8z"/>
</svg>
