<?xml version="1.0" encoding="utf-8"?>
<!-- Generator: Adobe Illustrator 22.1.0, SVG Export Plug-In . SVG Version: 6.00 Build 0)  -->
<svg version="1.1" id="listes-diffusion" xmlns="http://www.w3.org/2000/svg" xmlns:xlink="http://www.w3.org/1999/xlink" x="0px"
	 y="0px" viewBox="0 0 96 96" style="enable-background:new 0 0 96 96;" xml:space="preserve">
<style type="text/css">
	.st0{fill:#EC407A;}
	.st1{fill:#FFFFFF;}
</style>
<rect id="bg" x="0.1" y="0.1" class="st0" width="95.9" height="95.9"/>
<path id="icone" class="st1" d="M48,50.6l21-13.1V51h5.2V32.3c0-2.9-2.4-5.2-5.2-5.2H27c-2.9,0-5.3,2.4-5.3,5.2v31.5
	c0,2.9,2.4,5.3,5.3,5.3h21v-5.3H27V37.5L48,50.6z M69,32.3L48,45.4L27,32.3H69z M76.7,64.3H55v3.6h21.7V64.3 M76.7,57.1H55v3.6h21.7
	V57.1 M55,75.1h21.7v-3.6H55V75.1"/>
</svg>
