<svg id="icone" viewBox="0 0 24 24" fill="none" xmlns="http://www.w3.org/2000/svg">
<path fill-rule="evenodd" clip-rule="evenodd" d="M11.144 3.00001C11.3395 3.00002 11.5307 3.05731 11.6939 3.1648L15.2584 5.51171C15.6815 5.79025 15.8294 6.3411 15.6029 6.79414L15.4905 7.01891C15.2273 7.54546 14.5684 7.73178 14.0683 7.42109L11.4437 5.79025L11.4437 13.7917C11.4437 15.5636 10.0012 17 8.22184 17C6.44246 17 5 15.5636 5 13.7917C5 12.0199 6.44246 10.5835 8.22184 10.5835C8.66146 10.5835 9.08051 10.6712 9.46233 10.8299L9.46233 4C9.46233 3.44771 9.91006 2.99999 10.4624 3L11.144 3.00001ZM9.46233 13.7917C9.46233 13.1095 8.90694 12.5565 8.22184 12.5565C7.53673 12.5565 6.98134 13.1095 6.98134 13.7917C6.98134 14.4739 7.53673 15.027 8.22184 15.027C8.90694 15.027 9.46233 14.4739 9.46233 13.7917Z" fill="currentColor"/>
<path d="M20 14C20 13.4477 20.4477 13 21 13C21.5523 13 22 13.4477 22 14V16C22 16.5523 21.5523 17 21 17C20.4477 17 20 16.5523 20 16V14Z" fill="currentColor"/>
<path fill-rule="evenodd" clip-rule="evenodd" d="M6 10C6 9.44772 5.55228 9 5 9H4C2.89543 9 2 9.89543 2 11V19C2 20.1046 2.89543 21 4 21H14.1176C15.1572 21 16 20.1572 16 19.1176L16.4357 19.2458C17.7166 19.6225 19 18.6623 19 17.3271V12.6729C19 11.3377 17.7166 10.3775 16.4357 10.7542L16 10.8824C16 9.84276 15.1572 9 14.1176 9H14C13.4477 9 13 9.44772 13 10C13 10.5523 13.4477 11 14 11V13.5553L17 12.6729V17.3271L14 16.4447V19H4V11H5C5.55228 11 6 10.5523 6 10Z" fill="currentColor"/>
</svg>
