<?xml version="1.0" encoding="utf-8"?>
<!-- Generator: Adobe Illustrator 22.1.0, SVG Export Plug-In . SVG Version: 6.00 Build 0)  -->
<svg version="1.1" id="mediacentre-2" xmlns="http://www.w3.org/2000/svg" xmlns:xlink="http://www.w3.org/1999/xlink" x="0px"
	 y="0px" viewBox="0 0 96 96" style="enable-background:new 0 0 96 96;" xml:space="preserve">
<style type="text/css">
	.st0{fill:#AB47BC;}
	.st1{fill:#FFFFFF;}
</style>
<rect id="bg" x="0.1" y="0.1" class="st0" width="95.9" height="95.9"/>
<path id="icone" class="st1" d="M57.4,34.8l3.2,3.9l4.5-5.8l5.8,7.7h-18 M73.4,41.9v-18c0-1.4-1.2-2.6-2.6-2.6h-18
	c-1.4,0-2.6,1.1-2.6,2.6v18c0,1.4,1.1,2.6,2.6,2.6h18C72.3,44.5,73.4,43.3,73.4,41.9z M33.4,29h7.1l-7.1-7V29 M24.4,20h10.3l7.7,7.7
	v15.4c0,1.4-1.2,2.6-2.6,2.6H24.4c-1.4,0-2.6-1.2-2.6-2.6V22.5C21.8,21.2,22.9,20,24.4,20 M69.6,54.2l2.6,5.1h-3.9l-2.6-5.1h-2.6
	l2.6,5.1h-3.9l-2.6-5.1h-2.6l2.6,5.1h-3.9l-2.6-5.1h-1.3c-1.4,0-2.6,1.2-2.6,2.6v15.4c0,1.4,1.2,2.6,2.6,2.6H72
	c1.4,0,2.6-1.2,2.6-2.6v-18L69.6,54.2z M32.1,53.1c-6,0-10.8,4.8-10.8,10.8v8.4c0,2,1.6,3.6,3.6,3.6h3.6v-9.6h-4.8v-2.4
	c0-4.7,3.8-8.4,8.4-8.4s8.4,3.8,8.4,8.4v2.4h-4.8V76h3.6c2,0,3.6-1.6,3.6-3.6V64C42.9,57.9,38.1,53.1,32.1,53.1z"/>
</svg>
