<?xml version="1.0" encoding="utf-8"?>
<!-- Generator: Adobe Illustrator 22.1.0, SVG Export Plug-In . SVG Version: 6.00 Build 0)  -->
<svg version="1.1" id="webocentre" xmlns="http://www.w3.org/2000/svg" xmlns:xlink="http://www.w3.org/1999/xlink" x="0px" y="0px"
	 viewBox="0 0 96 96" style="enable-background:new 0 0 96 96;" xml:space="preserve">
<style type="text/css">
	.st0{fill:#EC407A;}
	.st1{fill:#FFFFFF;}
</style>
<rect id="bg" x="0.1" y="0.1" class="st0" width="95.9" height="95.9"/>
<path id="icone" class="st1" d="M48.1,16.7c-13.2,0-23.9,10.7-23.9,23.9c0,12.2,9.2,22.3,21,23.7l3.1,7.6l2.8-7.6
	C62.9,62.8,72,52.8,72,40.6C72,27.4,61.3,16.7,48.1,16.7z M48.1,54.8c-7.9,0-14.3-6.4-14.3-14.3s6.4-14.3,14.3-14.3
	s14.3,6.4,14.3,14.3S56,54.8,48.1,54.8z M48.1,35.1c3,0,5.5,2.5,5.5,5.5s-2.5,5.5-5.5,5.5s-5.5-2.5-5.5-5.5S45.1,35.1,48.1,35.1z
	 M48.1,78.2c8.9,0,16.2,0.7,16.2,1.6s-7.3,1.6-16.2,1.6s-16.2-0.7-16.2-1.6S39.2,78.2,48.1,78.2z"/>
</svg>
