<?xml version="1.0" encoding="utf-8"?>
<!-- Generator: Adobe Illustrator 22.1.0, SVG Export Plug-In . SVG Version: 6.00 Build 0)  -->
<svg version="1.1" id="maintenance-info-lycee-1" xmlns="http://www.w3.org/2000/svg" xmlns:xlink="http://www.w3.org/1999/xlink"
	 x="0px" y="0px" viewBox="0 0 96 96" style="enable-background:new 0 0 96 96;" xml:space="preserve">
<style type="text/css">
	.st0{fill:#EF5350;}
	.st1{fill:#FFFFFF;}
</style>
<rect id="bg" x="0.1" y="0.1" class="st0" width="95.9" height="95.9"/>
<path id="icone" class="st1" d="M73.7,59.6v-9.5c-0.7-0.3-1.3-0.6-1.8-1.2l-3.4-3.3v14H27.1V33.8h24c-0.8-1.6-1.3-3.4-1.3-5.2H27.1
	c-2.9,0-5.2,2.3-5.2,5.2v25.8c0,2.9,2.3,5.2,5.2,5.2H16.8V70h62v-5.2H68.5C71.4,64.8,73.7,62.5,73.7,59.6z M79.1,41.9L68.5,31.3
	c1-2.7,0.5-5.8-1.7-8c-2.3-2.3-5.8-2.8-8.6-1.5l5,5l-3.5,3.5l-5.1-5c-1.4,2.8-0.8,6.3,1.5,8.6c2.2,2.2,5.4,2.8,8,1.7l10.6,10.6
	c0.5,0.5,1.2,0.5,1.6,0l2.7-2.7C79.5,43,79.5,42.2,79.1,41.9z"/>
</svg>
