<?xml version="1.0" encoding="utf-8"?>
<!-- Generator: Adobe Illustrator 22.1.0, SVG Export Plug-In . SVG Version: 6.00 Build 0)  -->
<svg version="1.1" id="moodle" xmlns="http://www.w3.org/2000/svg" xmlns:xlink="http://www.w3.org/1999/xlink" x="0px" y="0px"
	 viewBox="0 0 96 96" style="enable-background:new 0 0 96 96;" xml:space="preserve">
<style type="text/css">
	.st0{fill:#FFA726;}
	.st1{fill:#FFFFFF;}
</style>
<rect id="bg" x="0.1" y="0.1" class="st0" width="95.9" height="95.9"/>
<path id="icone" class="st1" d="M63.5,30.1c-11.6-2.4-16.4,3.3-16.4,3.3s-4.8-5.7-16.4-3.3S19.4,42.3,19.4,42.3v24.3h11V43.7
	c0,0,0.3-5.6,5.6-5.6s5.7,5.7,5.7,5.7l0.1,22.8h5.4h5.4l0.1-22.8c0,0,0.4-5.7,5.7-5.7s5.6,5.6,5.6,5.6v22.9h11V42.3
	C74.8,42.3,75.1,32.5,63.5,30.1z"/>
</svg>
