<?xml version="1.0" encoding="utf-8"?>
<!-- Generator: Adobe Illustrator 22.1.0, SVG Export Plug-In . SVG Version: 6.00 Build 0)  -->
<svg version="1.1" id="outils-admin-rh-2" xmlns="http://www.w3.org/2000/svg" xmlns:xlink="http://www.w3.org/1999/xlink" x="0px"
	 y="0px" viewBox="0 0 96 96" style="enable-background:new 0 0 96 96;" xml:space="preserve">
<style type="text/css">
	.st0{fill:#26C6DA;}
	.st1{fill:#FFFFFF;}
</style>
<rect id="bg" x="0.1" y="0.1" class="st0" width="95.9" height="95.9"/>
<path id="icone" class="st1" d="M48,42.7c-2.7,0-4.8,2.1-4.8,4.8c0,2.6,2.2,4.8,4.8,4.8s4.8-2.1,4.8-4.8
	C52.8,44.9,50.7,42.7,48,42.7 M38.4,46.2c-2.2,0-4,1.8-4,4s1.8,4,4,4c1.4,0,2.6-0.7,3.3-1.8c-1.1-1.4-1.7-3-1.7-4.8
	c0-0.3,0-0.6,0.1-1C39.5,46.3,39,46.2,38.4,46.2 M57.6,46.2c-0.6,0-1.2,0.1-1.7,0.4c0.1,0.3,0.1,0.6,0.1,1c0,1.8-0.7,3.5-1.7,4.8
	c0.7,1.1,1.9,1.8,3.3,1.8c2.2,0,4-1.8,4-4C61.6,48,59.8,46.2,57.6,46.2 M48,55.5c-3.2,0-9.6,1.6-9.6,4.8v3.2h19.2v-3.2
	C57.6,57.1,51.2,55.5,48,55.5 M36.3,57.1c-2.7,0.5-5.9,1.7-5.9,3.8v2.7h4.8v-3.2C35.2,59.1,35.6,58,36.3,57.1 M59.7,57.1
	c0.6,0.9,1.1,2,1.1,3.2v3.2h4.8v-2.7C65.6,58.8,62.4,57.6,59.7,57.1z M23.6,67.3h48.9V75H23.6V67.3z M48,21L23.6,33.9V39h48.9v-5.1
	L48,21z"/>
</svg>
