<?xml version="1.0" encoding="UTF-8" standalone="no"?>
<svg
   xmlns:dc="http://purl.org/dc/elements/1.1/"
   xmlns:cc="http://creativecommons.org/ns#"
   xmlns:rdf="http://www.w3.org/1999/02/22-rdf-syntax-ns#"
   xmlns:svg="http://www.w3.org/2000/svg"
   xmlns="http://www.w3.org/2000/svg"
   xml:space="preserve"
   viewBox="0 0 96 96"
   y="0px"
   x="0px"
   id="pearltrees"
   version="1.1"
   width="96"
   height="96"><defs /><rect
     height="95.9"
     width="95.9"
     class="st0"
     y="0.1"
     x="0.1"
     id="bg"
     style="display:inline;fill:#ffa726" /><path
     style="display:inline;fill:#ffffff"
     d="m 46.4,19.3 c -3,5.5 -8,14.9 -8,14.9 0,0 -10.7,2 -16.9,3.3 -3,0.5 -3,2.3 -1.5,3.8 4.4,4.4 11.4,12.9 11.4,12.9 0,0 -1,11.4 -1.8,17.4 0,2 0.8,3 3.8,2 6,-2 15,-8 15,-8 0,0 11,5 16,8 2,1 4,0 4,-2 -1,-6 -3,-17.4 -3,-17.4 0,0 8,-7.6 13,-12.6 2,-2.3 1,-3.8 -2,-4.2 -6,-1.2 -17,-3.2 -17,-3.2 0,0 -5,-9.4 -9,-14.8 -1,-2.1 -3,-2.8 -4,-0.1 z"
     class="cls-2"
     id="path5" /><metadata
     id="metadata880"><rdf:RDF><cc:Work
         rdf:about=""><dc:title></dc:title></cc:Work></rdf:RDF></metadata></svg>