<?xml version="1.0" encoding="UTF-8" standalone="no"?>
<svg
   xmlns:dc="http://purl.org/dc/elements/1.1/"
   xmlns:cc="http://creativecommons.org/ns#"
   xmlns:rdf="http://www.w3.org/1999/02/22-rdf-syntax-ns#"
   xmlns:svg="http://www.w3.org/2000/svg"
   xmlns="http://www.w3.org/2000/svg"
   xml:space="preserve"
   viewBox="0 0 96 96"
   y="0px"
   x="0px"
   version="1.1"
   width="96"
   height="96"><defs
     id="defs2" /><rect
     height="95.9"
     width="95.9"
     class="st0"
     y="0.1"
     x="0.1"
     id="bg"
     style="display:inline;fill:#ffa726" /><path
     style="fill:#ffffff"
     id="icone"
     d="m 13.3,82.3 c -2.7,-1 -1.3,-6.6 6.2,-24.6 3.8,-9.2 4.2,-14 1.3,-14.5 C 16,42.3 4.09,52.2 1.9,58.8 0.883,61.9 0.966,62.5 2.56,63.7 4.14,64.8 4.16,65 2.75,65 0.412,65 -0.289,63.4 0.426,59.5 1.71,52.7 13.1,42 19.1,42 22,42 25,44.2 25,46.4 25,48.1 22,56.8 17.5,68 15.5,73 14,78 14.2,79.2 14.4,81 15.7,79.9 21.4,73 34.4,57.2 44,49 51.5,47.5 c 2,-0.4 1.2,0.3 -2.4,2 -7.5,3.5 -14.4,9.7 -25.2,22.5 -5.1,6.1 -9.3,11 -9.3,10.9 -0.1,0 -0.7,-0.3 -1.3,-0.6 z"
     transform="matrix(1.14,0,0,1.14,19,-22.7)" /><metadata
     id="metadata886"><rdf:RDF><cc:Work
         rdf:about=""><dc:title></dc:title></cc:Work></rdf:RDF></metadata></svg>
