<svg id="icone" viewBox="0 0 24 24" fill="none" xmlns="http://www.w3.org/2000/svg">
<path fill-rule="evenodd" clip-rule="evenodd" d="M15.1379 5.4538C18.3306 4.66745 20.9138 4.88733 21.7356 6.237C22.4577 7.4242 21.6593 9.22555 19.8293 11.072C19.8717 11.3756 19.8957 11.6851 19.8957 11.9997L19.886 12.36C19.6886 16.0584 16.4686 18.9995 12.5266 18.9997C10.701 18.9996 9.0315 18.3675 7.74435 17.3229C5.0767 17.8017 2.9882 17.4898 2.26486 16.3015C1.40199 14.8827 2.71036 12.5869 5.35666 10.3864C6.12376 7.2986 9.04197 4.99981 12.5266 4.99969C13.4462 4.99975 14.3261 5.16136 15.1379 5.4538ZM17.8235 12.8005C16.788 13.5753 15.5934 14.3273 14.2756 15.0085L13.7707 15.2624C12.651 15.8129 11.5363 16.2657 10.4651 16.6198C11.0937 16.8631 11.7882 16.9997 12.5266 16.9997C15.2778 16.9995 17.4166 15.116 17.8235 12.8005ZM5.13205 13.4313C4.55212 14.1132 4.24243 14.6715 4.11935 15.0632C4.07122 15.2166 4.06187 15.3161 4.06076 15.3727C4.11362 15.4014 4.2101 15.4476 4.37814 15.4899C4.76878 15.5883 5.37063 15.6347 6.18576 15.5651C5.74989 14.867 5.43835 14.0913 5.27951 13.2643C5.22948 13.3206 5.17938 13.3757 5.13205 13.4313ZM12.5266 6.99969C9.46402 6.99983 7.15859 9.3339 7.15842 11.9997C7.15842 13.1829 7.61309 14.3 8.38595 15.1774C9.86166 14.8035 11.5308 14.1807 13.2356 13.2995C14.9909 12.3921 16.4735 11.3716 17.6018 10.3786C16.8892 8.45479 14.944 6.99987 12.5266 6.99969ZM19.6203 7.05048C19.2063 6.94634 18.5565 6.89819 17.6662 6.987C18.2423 7.52006 18.7264 8.1414 19.0949 8.8288C19.5299 8.27279 19.7742 7.81321 19.8801 7.47626C19.9285 7.32193 19.9387 7.22225 19.9397 7.16571C19.8867 7.137 19.7886 7.09286 19.6203 7.05048Z" fill="currentColor"/>
</svg>
