<?xml version="1.0" encoding="UTF-8" standalone="no"?>
<svg
   xmlns:dc="http://purl.org/dc/elements/1.1/"
   xmlns:cc="http://creativecommons.org/ns#"
   xmlns:rdf="http://www.w3.org/1999/02/22-rdf-syntax-ns#"
   xmlns:svg="http://www.w3.org/2000/svg"
   xmlns="http://www.w3.org/2000/svg"
   height="96"
   width="96"
   version="1.1"
   id="formation"
   x="0px"
   y="0px"
   viewBox="0 0 96 96"
   xml:space="preserve"><defs
     id="defs9" /><rect
     id="rect817"
     x="0.1"
     y="0.1"
     class="st0"
     width="95.9"
     height="95.9" /><rect
     style="fill:#ffa726"
     height="95.9"
     width="95.9"
     class="st0"
     y="0.1"
     x="0.1"
     id="bg" /><g
     id="icone"
     style="fill:#ffffff"
     transform="matrix(0.265,0,0,0.265,14.6,15.2)"><path
       id="path2"
       d="m 52.8,81.7 c 15,0 27.3,-12.2 27.3,-27.3 0,-15.1 -12.2,-27.3 -27.3,-27.3 -15.1,0 -27.2,12.3 -27.2,27.3 0,15 12.2,27.3 27.2,27.3 z m 0,-44.2 c 9.3,0 17,7.6 17,17 0,9.4 -7.6,17 -17,17 -9.4,0 -17,-7.6 -17,-17 0,-9.4 7.7,-17 17,-17 z" /><path
       id="path4"
       d="m 85.1,113 c -2.8,0 -5.3,2 -5.5,5 l -4.2,60 c 0,0 -0.1,0 -0.1,1 l -3.8,58 c -0.1,2 -2,4 -4.2,4 h -29 c -2.2,0 -4.1,-2 -4.2,-4 l -3.8,-58 c -0.1,-3 -1.6,-4 -3.6,-5 -1.1,0 -4.3,-1 -4.8,-2 -0.4,0 -0.6,-4 -0.7,-5 l -3.5,-62 v 0 c 6.5,-2 12.9,-4 19.4,-6.3 2.9,3.3 5.8,6.3 8.8,10.3 l 3.1,3 c 1,1 2.4,2 3.9,2 v 0 c 1.5,0 2.9,0 3.9,-2 l 3.6,-4 c 2.9,-3 5.6,-6 8.3,-9.4 L 114,109 c 0,0 1,0 2,0 l 40,-9 c 3,-0.2 5,-2.9 4,-5.7 0,-2.8 -3,-4.6 -6,-4 l -39,8.1 -44.5,-10 c -0.2,-0.1 -0.5,-0.1 -0.7,-0.1 -1.3,-0.1 -5.7,-0.2 -8.4,3 -2.8,3.3 -5.6,6.5 -8.5,9.7 -2.9,-3.2 -5.7,-6.4 -8.5,-9.7 -2.6,-3 -5.9,-4 -9.5,-2.8 -6.9,2.3 -13.8,4.5 -20.7,6.6 -4.4,1.4 -6.8,4.7 -6.8,8.9 0,1 0,1 0,2 l 3.4,61 0.1,1 c 0.6,8 1.9,12 9.4,15 l 3.6,55 c 0.5,7 6.9,13 14.5,13 h 29 c 7.6,0 14,-6 14.5,-13 l 3.8,-58 c 0,0 0,0 0.1,-1 L 90,119 c 0,-3 -2.1,-5 -4.9,-6 z" /><path
       id="path6"
       d="M 244,4.8 H 52.8 c -2.8,0 -5.2,2.3 -5.2,5.2 0,2.9 2.3,5.2 5.2,5.2 H 238 V 149 H 102 c -3.3,0 -5.7,3 -5.7,5 0,3 2.3,6 5.7,6 h 142 c 2,0 5,-3 5,-6 V 10 c 0,-2.8 -3,-5.2 -5,-5.2 z" /></g><metadata
     id="metadata844"><rdf:RDF><cc:Work
         rdf:about=""><dc:title></dc:title></cc:Work></rdf:RDF></metadata></svg>