<?xml version="1.0" encoding="UTF-8" standalone="no"?>
<svg
   xmlns:dc="http://purl.org/dc/elements/1.1/"
   xmlns:cc="http://creativecommons.org/ns#"
   xmlns:rdf="http://www.w3.org/1999/02/22-rdf-syntax-ns#"
   xmlns:svg="http://www.w3.org/2000/svg"
   xmlns="http://www.w3.org/2000/svg"
   xml:space="preserve"
   width="95.9"
   version="1.1"
   height="95.9"
   id="RCVLneeria"><defs /><style
     id="style2"
     type="text/css">
	.st0{fill:#EC407A;}
	.st1{fill:#FFFFFF;}
</style><rect
     style="fill:#ec407a"
     height="95.9"
     width="95.9"
     class="st0"
     y="0"
     x="0"
     id="bg" /><path
     id="icone"
     d="M 42.9,74.1 C 32.9,71.6 27.6,63.8 23,55.9 21.7,52.4 20.9,52.1 21.1,44.6 21.1,39 21.9,39 23,35.1 27.4,27.5 39.6,21.8 39.6,21.8 c 0,0 2.2,-2 9.9,-2 l 6.7,0.5 4.4,1.5 c 5.5,1.8 5.5,5.7 4.4,3.8 -7.7,-3.8 -16.6,-3.8 -23.2,0 -4.4,1.9 -8.9,5.7 -11.1,9.5 -3.4,7.9 -2.2,13.5 0,19.2 6.7,14.8 26.6,19.8 37.6,7.6 2.2,-1.8 6.6,-7.6 6.6,-9.5 v 0 c 2.6,-5.3 0,5.7 0,5.7 v 0 c -3.5,6.1 -8.8,11 -13.2,13.5 -6.7,3.7 -14.4,3.7 -18.8,2.5 z m 2.2,-8.7 C 35.1,64.2 28.5,52.4 30.7,42.8 31.8,31.3 44,21.8 55,23.6 c 7.8,2 16,7.9 18.2,15.8 1.1,2.7 0.6,1.2 1.3,5.1 0,7.8 -2.1,10.4 -6.5,16.2 l -1.9,1.2 c 0,0 3.3,-3.8 4.4,-5.8 1.1,-1.8 1.1,-3.7 1.1,-7.5 0,-4 0,-5.8 -1.1,-7.7 -2.2,-3.8 -6.6,-7.6 -9.9,-9.6 0,0 -3.3,-1.9 -7.8,-1.9 -5.5,0 -5.5,0 -8.8,1.9 -6.6,3.8 -12.2,13.3 -10,21.1 1.1,5.7 6.7,11.8 13.3,13 z m 4.4,0 c -1.1,0 -5.5,-1.2 -6.6,-3.5 v 0 c 3.3,2.3 9.9,2.3 14.4,0 6.6,-3.8 11.1,-11.9 6,-19.1 -2.9,-4.4 -6,-5.7 -6,-5.7 v 0 c 0,0 -5.6,-2 -7.8,-2 -3.3,0 -6.6,2 -9.9,5.8 l -3.3,5.7 c 0,0 0,2 0,0 v 0 c -1.5,-3 1.9,-7.8 3.1,-9.8 7.8,-8.3 15,-6.4 22.9,-3 2.7,1.9 4.9,3.3 7.1,7.1 1.1,3.7 1.1,3.7 1.1,7.7 0,7.5 -9.9,16.8 -15.5,16.8 z"
     style="fill:#ffffff" /><metadata
     id="metadata856"><rdf:RDF><cc:Work
         rdf:about=""><dc:title></dc:title></cc:Work></rdf:RDF></metadata></svg>