<?xml version="1.0" encoding="utf-8"?>
<!-- Generator: Adobe Illustrator 22.1.0, SVG Export Plug-In . SVG Version: 6.00 Build 0)  -->
<svg version="1.1" id="mon-cdi-3" xmlns="http://www.w3.org/2000/svg" xmlns:xlink="http://www.w3.org/1999/xlink" x="0px"
	 y="0px" viewBox="0 0 96 96" style="enable-background:new 0 0 96 96;" xml:space="preserve">
<style type="text/css">
	.st0{fill:#AB47BC;}
	.st1{fill:#FFFFFF;}
</style>
<rect id="bg" x="0.1" y="0.1" class="st0" width="95.9" height="95.9"/>
<path id="icone" class="st1" d="M66.6,18.2l-13.4,12v29.4l13.4-12V18.2 M33.2,26.2c-5.2,0-10.8,1.1-14.7,4v39.2
	c0,0.7,0.7,1.3,1.3,1.3c0.3,0,0.4-0.2,0.7-0.2c3.6-1.7,8.8-2.9,12.7-2.9c5.2,0,10.8,1.1,14.7,4c3.6-2.3,10.2-4,14.7-4
	c4.4,0,9,0.8,12.7,2.8c0.3,0.1,0.4,0.1,0.7,0.1c0.7,0,1.3-0.7,1.3-1.3v-39c-1.6-1.2-3.3-2-5.3-2.7v5.3v14.7v16
	c-2.9-0.9-6.2-1.3-9.4-1.3c-4.5,0-11.1,1.7-14.7,4V47.6v-12v-5.3C44,27.3,38.4,26.2,33.2,26.2L33.2,26.2z"/>
</svg>
