<?xml version="1.0" encoding="UTF-8"?>
<!-- Created with Inkscape (http://www.inkscape.org/) -->
<svg width="96" height="96" version="1.1" viewBox="0 0 25.4 25.4" xmlns="http://www.w3.org/2000/svg">
 <rect x="-.0029639" y=".0010122" width="25.405" height="25.4" ry="0" fill="#66bb6a" stroke-width=".39574"/>
 <g>
  <g transform="matrix(.18737 0 0 .18737 -.16343 -1.9664)" fill="#fff">
   <g transform="matrix(.17634 0 0 .17842 26.388 60.243)">
    <path transform="matrix(8.0077 0 0 7.914 -144.7 -278.82)" d="m75.465 11.535c-0.38335-0.018241-0.76758-0.01192-1.1504 0.017578-1.7519 0.12929-3.463 0.76028-4.877 1.8027-0.50493 0.37082-0.97152 0.79396-1.3926 1.2578-1.2999-0.79399-2.85-1.1696-4.3691-1.0586-1.5571 0.10775-3.0723 0.72589-4.2617 1.7363-1.1653 0.98277-2.0131 2.3365-2.3867 3.8145-0.37524 1.46-0.28675 3.0338 0.24805 4.4434 0.46573 1.2408 1.2732 2.349 2.3105 3.1738-1.2269 2.7104-2.4532 5.4222-3.6797 8.1328-11.691-1.59e-4 -23.383-0.001081-35.074 0-0.039483 9.37e-4 -0.077704 9.41e-4 -0.11719 0.001953-0.92639 0.040319-1.819 0.52401-2.375 1.2734-0.44166 0.58393-0.66729 1.3227-0.64258 2.0566 4.31e-4 11.291-0.001481 22.584 0 33.875 0.003556 0.97436 0.48448 1.9275 1.252 2.5137 0.5783 0.4522 1.3136 0.68342 2.043 0.6582h21.158c-0.20487 0.3797-0.35059 0.78752-0.47852 1.1992-0.71696 2.1812-1.4388 4.3607-2.1523 6.543-0.10899 0.36241-0.099593 0.80275 0.16797 1.0938 0.25658 0.28804 0.68218 0.33474 1.0371 0.24414 0.37504-0.10596 0.74026-0.24573 1.1113-0.36523 1.9761-0.66782 3.9528-1.3309 5.9277-2.002 0.6761-0.25724 1.3028-0.63612 1.8789-1.0742 0.44143-0.33533 0.80357-0.76006 1.1992-1.1465 1.4798-1.497 2.9616-2.9933 4.4414-4.4902 5.5659-9.37e-4 11.131 0.001045 16.697-0.001953 1.0014-0.010493 1.9749-0.545 2.541-1.3789 0.39756-0.56879 0.59251-1.272 0.56836-1.9668v-16.695c1.5171-1.537 3.0381-3.0699 4.5527-4.6094 0.47285-0.51204 0.59307-1.3146 0.30273-1.9492-0.12109-0.29072-0.3405-0.51688-0.5625-0.73047-0.95083-0.96058-1.9011-1.9219-2.8516-2.8828 0.098608-0.097295 0.19938-0.1939 0.26367-0.31641 0.076071-0.10342 0.1165-0.22789 0.17383-0.3418l3.6426-8.0488c1.4124 0.32935 2.925 0.22017 4.2734-0.31445 1.4322-0.55991 2.673-1.5921 3.4844-2.8984 0.80033-1.2777 1.1843-2.8124 1.0801-4.3164-0.097595-1.4912-0.67627-2.9444-1.6289-4.0957-0.89663-1.0917-2.121-1.9111-3.4727-2.3223 0.25297-1.6518 0.051507-3.37-0.57226-4.9199-0.61543-1.5397-1.6446-2.9113-2.9551-3.9277-0.61651-0.48135-1.294-0.8822-2.0098-1.1973-1.0539-0.46431-2.1956-0.73238-3.3457-0.78711zm-0.1582 2.6855c0.65549 0.026925 1.3061 0.14853 1.9258 0.36524 0.24288 0.084449 0.48094 0.18199 0.71289 0.29297 1.0869 0.51994 2.0295 1.3401 2.6934 2.3457 0.74363 1.1175 1.1428 2.4582 1.127 3.8008-0.006048 0.6869-0.12388 1.3718-0.33398 2.0254-0.12865 0.4388-0.008742 0.9389 0.30273 1.2734 0.2374 0.2632 0.5824 0.42042 0.93555 0.4375 1.0543 0.097291 2.0687 0.57598 2.8086 1.334 0.82116 0.83009 1.2966 1.9891 1.3008 3.1562 0.010908 1.0894-0.39224 2.1747-1.1074 2.9961-0.16736 0.1938-0.35111 0.37245-0.54883 0.53516-0.012805 0.01058-0.072219 0.058186-0.10352 0.082031-0.85764 0.66923-1.9635 1.0081-3.0488 0.94141-0.51871-0.031829-1.0337-0.14784-1.5098-0.35742-0.4206-0.20638-0.94628-0.16534-1.332 0.099609-0.23553 0.15606-0.41229 0.39099-0.51562 0.65234l-3.6152 8.0371c-1.1316-0.49767-2.2557-1.0138-3.3828-1.5215-4.0921-1.852-8.1826-3.7079-12.275-5.5586-0.17112-0.077148-0.34256-0.15332-0.51367-0.23047 1.2325-2.7246 2.468-5.4487 3.6992-8.1738 0.18661-0.44043 0.10957-0.97614-0.19141-1.3477-0.1322-0.17263-0.31475-0.29883-0.50586-0.39844-0.96621-0.55773-1.7172-1.4728-2.0801-2.5273-0.36016-1.0271-0.3443-2.1794 0.041015-3.1973 0.40174-1.0809 1.2155-2.0004 2.2402-2.5293 0.98411-0.51461 2.1535-0.66049 3.2344-0.40625 0.7701 0.17864 1.4953 0.55182 2.082 1.082 0.64035 0.66612 1.0332 1.5655 1.084 2.4883 0.038919 0.62826-0.079071 1.2621-0.33203 1.8379-0.16896 0.42948-0.092619 0.94305 0.19336 1.3047 0.28464 0.37197 0.77465 0.57235 1.2383 0.50586 0.45511-0.057871 0.86806-0.3668 1.0488-0.78906 0.52768-1.2135 0.67757-2.588 0.42383-3.8867-0.1666-0.86794-0.50966-1.7012-1-2.4355 0.88351-0.99009 2.0675-1.7057 3.3535-2.0312 0.63563-0.16331 1.2957-0.23005 1.9512-0.20312zm7.6484 11.422c-0.31365-0.032033-0.64028 0.066185-0.87695 0.27734-0.32352 0.27722-0.46597 0.7431-0.35352 1.1543 0.087081 0.34411 0.34427 0.63632 0.67188 0.77148 0.4653 0.21891 0.80567 0.68158 0.875 1.1914 0.089125 0.57164-0.1712 1.1795-0.64648 1.5098-0.44218 0.32088-1.0553 0.3852-1.5527 0.1582-0.3692-0.17552-0.82985-0.13219-1.1582 0.11133-0.3591 0.2546-0.5434 0.72797-0.44922 1.1582 0.073153 0.3752 0.34914 0.70172 0.70508 0.83984 0.84808 0.37353 1.831 0.42277 2.7129 0.13867 0.90135-0.28303 1.689-0.90947 2.1641-1.7266 0.44082-0.74604 0.61938-1.6422 0.49414-2.5-0.134-0.95938-0.63974-1.8625-1.3945-2.4707-0.26915-0.21756-0.56699-0.39981-0.88476-0.53711-0.097746-0.040446-0.20209-0.065494-0.30664-0.076172zm-17.334 2.7715c-0.54463 0.022946-1.0695 0.39891-1.2812 0.9082-0.75287 1.677-1.528 3.3449-2.2676 5.0273-0.25166 0.66821 0.048293 1.5388 0.74805 1.7871 0.7009 0.27804 1.5127-0.18089 1.7812-0.85352 0.74882-1.668 1.5184-3.3265 2.2539-5 0.23914-0.65673-0.022767-1.4843-0.69336-1.7656-0.17455-0.078654-0.35947-0.11116-0.54102-0.10352zm4.4297 2.0059c-0.54463 0.022945-1.0715 0.39696-1.2832 0.90625-0.75287 1.677-1.528 3.3449-2.2676 5.0273-0.25166 0.66821 0.048293 1.5387 0.74805 1.7871 0.7009 0.27804 1.5127-0.17894 1.7812-0.85156 0.74882-1.668 1.5184-3.3285 2.2539-5.002 0.23914-0.65673-0.022767-1.4843-0.69336-1.7656-0.17455-0.078654-0.35752-0.10921-0.53906-0.10156zm4.3223 1.957c-0.54465 0.02293-1.0716 0.39697-1.2832 0.90625-0.75346 1.6773-1.5265 3.3468-2.2676 5.0293-0.24917 0.66854 0.050428 1.5368 0.75 1.7852 0.70092 0.27811 1.5106-0.17913 1.7793-0.85156 0.74882-1.668 1.5204-3.3285 2.2559-5.002 0.23893-0.65672-0.024625-1.4844-0.69531-1.7656-0.17452-0.078691-0.35751-0.10921-0.53906-0.10156zm-53.434 5.3535h37.504c2.0089 0.90658 4.0172 1.8146 6.0254 2.7227 2.5923 1.1744 5.1853 2.3486 7.7773 3.5234v0.30664c-0.41659 0.42152-0.83341 0.84215-1.25 1.2637-0.28605-0.27926-0.55226-0.58121-0.85547-0.8418-0.69893-0.57912-1.6804-0.77735-2.5469-0.52148-0.51779 0.14478-0.98253 0.45191-1.3457 0.84961-2.7862 2.8202-5.575 5.6369-8.3594 8.459-0.39889 0.42836-0.48741 1.1117-0.21484 1.6309 0.2515 0.50629 0.81905 0.82578 1.377 0.77344 0.37806-0.026063 0.73072-0.22128 0.98047-0.50586 2.7783-2.8112 5.5576-5.6224 8.3359-8.4336 0.20569 0.20813 0.41149 0.41687 0.61719 0.625-8.1621 8.2591-16.324 16.518-24.486 24.777-7.8776-5.62e-4 -15.755-4.54e-4 -23.633-0.001953-0.20187-1.87e-4 -0.35436-0.20572-0.32422-0.40234 3.74e-4 -11.299-0.001499-22.598 0-33.896-1.88e-4 -0.20418 0.20427-0.35866 0.39844-0.32812zm7.5566 6.6777c-0.58159 0.018031-1.1225 0.4386-1.291 1.002-0.17726 0.54207 0.005615 1.1784 0.44336 1.5391 0.28461 0.24581 0.66445 0.35588 1.0352 0.33398 9.0655-6.82e-4 18.132 0.002396 27.197 0 0.58255-0.010748 1.1288-0.42585 1.3027-0.98828 0.18288-0.54047 0.005287-1.1803-0.42969-1.5449-0.28543-0.25158-0.66999-0.36406-1.0449-0.3418-9.0655 6.82e-4 -18.132-0.002396-27.197 0h-0.011719-0.003906zm45.527 2.1406c0.93083 0.94144 1.8621 1.8828 2.793 2.8242-1.3875 1.4039-2.7746 2.807-4.1621 4.2109-0.93083-0.94144-1.8621-1.8828-2.793-2.8242 1.3875-1.4039 2.7746-2.807 4.1621-4.2109zm-23.211 4.9336c-7.4337 6.32e-4 -14.867-4.35e-4 -22.301 0.001953h-0.011719-0.003906c-0.58159 0.01803-1.1225 0.4386-1.291 1.002-0.17726 0.54207 0.005615 1.1784 0.44336 1.5391 0.28461 0.24581 0.66445 0.35588 1.0352 0.33398 7.4337-6.32e-4 14.869 0.002376 22.303 0 0.58205-0.01074 1.128-0.42473 1.3027-0.98633 0.18539-0.54512 0.002691-1.1909-0.43945-1.5547-0.28452-0.24594-0.66644-0.35778-1.0371-0.33594zm17.039 1.3125c0.93083 0.94144 1.8602 1.8828 2.791 2.8242-7.0821 7.1658-14.164 14.332-21.246 21.498-0.93042-0.94185-1.8606-1.8843-2.791-2.8262 7.0817-7.1654 14.164-14.331 21.246-21.496zm4.3945 5.2715v13.926c0.016283 0.20537-0.17275 0.39031-0.375 0.36523h-13.748c4.7075-4.7631 9.4156-9.5279 14.123-14.291zm-32.623 0.49219c-3.7094 0.001011-7.4176-0.001497-11.127 0.001953-0.58159 0.01803-1.1225 0.4386-1.291 1.002-0.17726 0.54207 0.005615 1.1784 0.44336 1.5391 0.28461 0.24581 0.66445 0.35588 1.0352 0.33398 3.7095-0.001011 7.4195 0.003449 11.129 0 0.57607-0.018177 1.1138-0.43029 1.2871-0.98633 0.18351-0.54091 0.00597-1.182-0.42969-1.5469-0.28542-0.25159-0.67196-0.36602-1.0469-0.34375zm5.1016 17.898c0.84343 0.85341 1.6878 1.7071 2.5312 2.5605-0.28271 0.17285-0.59785 0.27302-0.91016 0.375-0.99473 0.33558-1.9896 0.67224-2.9844 1.0078 0.39034-1.1792 0.77262-2.3617 1.168-3.5391 0.056518-0.13901 0.12296-0.2731 0.19531-0.4043zm0.69141 3.3066c0.11125 0.016583 0.22273 0.032247 0.33398 0.048828-0.10228 0.056679-0.20436 0.11324-0.30664 0.16992-0.004047-0.068435-0.047595-0.17415-0.027343-0.21875z" fill="#fff" stroke-width=".12562"/>
   </g>
   <g transform="matrix(.37875 .17148 -.17148 .37875 88.059 13.056)">
    <g fill="#fff"></g>
   </g>
  </g>
 </g>
</svg>
