<?xml version="1.0" encoding="utf-8"?>
<!-- Generator: Adobe Illustrator 22.1.0, SVG Export Plug-In . SVG Version: 6.00 Build 0)  -->
<svg version="1.1" id="derniere-actu-centre-2" xmlns="http://www.w3.org/2000/svg" xmlns:xlink="http://www.w3.org/1999/xlink"
	 x="0px" y="0px" viewBox="0 0 96 96" style="enable-background:new 0 0 96 96;" xml:space="preserve">
<style type="text/css">
	.st0{fill:#EC407A;}
	.st1{fill:#FFFFFF;}
</style>
<rect id="bg" x="0.1" y="0.1" class="st0" width="95.9" height="95.9"/>
<path id="icone" class="st1" d="M65.6,47.6c-7.4,0-13.3,6-13.3,13.3c0,7.4,6,13.3,13.3,13.3S79,68.3,79,60.9
	C79,53.6,73,47.6,65.6,47.6z M65.6,70.8c-5.4,0-9.8-4.4-9.8-9.8s4.4-9.8,9.8-9.8s9.8,4.4,9.8,9.8C75.5,66.4,71,70.8,65.6,70.8z
	 M66.6,54.6h-2v7.6l6.6,4.3l1.1-1.7l-5.7-3.7V54.6z M49.2,64c-0.3,0.4-0.6,0.8-0.8,1.2c-0.3,0.5-0.8,0.7-1.3,0.7
	c-0.3,0-0.5-0.1-0.8-0.2c-0.7-0.4-0.9-1.4-0.5-2.1c0.9-1.4,2-2.7,3.2-4c0.1-1.6,0.5-3.1,1-4.5c-0.5-0.1-1-0.1-1.5-0.2
	c-3.3-0.6-7.6-1.6-11-1c0,0-2.6,0.2-5.4,2.1c0,0-0.5,0.3-0.8-0.1C31,55.5,31.7,55,31.7,55s4.3-4.2,12.5-2.7c2.4,0.5,4.7,0.7,6.8,0.6
	c1.9-3.6,5.2-6.3,9-7.7c0.3-1.3,0.3-2.5-0.3-3.4c-1.9-3-7.9-0.3-7.9-0.3c-0.1,0-4.7,2-4.5,4.8c0.1,2.4,2.7,2.3,3,2.3
	c0.8,0,1.5,0.6,1.6,1.4c0,0.8-0.6,1.5-1.4,1.6c-2.4,0.1-5.9-1.2-6.1-5.1c-0.3-4.9,6-7.6,6.3-7.7C51,38.7,59,35,62.3,40.2
	c0.8,1.3,1.1,2.7,0.9,4.2c0.8-0.1,1.6-0.2,2.4-0.2c2.6,0,5,0.6,7.2,1.7V25.8l-4.1,4.1l-4.1-4.1l-4.1,4.1l-4.1-4.1l-4.1,4.1l-4.1-4.1
	L44,29.9l-4.1-4.1l-4.1,4.1l-4.1-4.1l-4.1,4.1l-4.1-4.1v39.6c0,2.7,2.2,4.9,5,4.9H52C50.6,68.5,49.7,66.3,49.2,64z M36.1,36
	c1.2-1,2.9-1.4,4.7-1.1c2.3,0.3,4.6,1.6,5.8,3.2c0.5,0.7,0.3,1.6-0.3,2.1c-0.7,0.5-1.6,0.3-2.1-0.3c-0.7-1-2.3-1.8-3.8-2
	c-1-0.1-1.9,0-2.5,0.5c-2.5,2-2.5,4.9-0.1,8.7c0.9,1.3,2.1,2.7,3.5,4c-0.2,0-0.4,0-0.6,0c-1.2,0-2.3,0.1-3.3,0.3
	c-0.8-0.9-1.5-1.7-2.1-2.6C32.1,43.6,32.4,39,36.1,36z M44.6,59c-0.9-1.3-2.3-2.7-3.7-4.2c1.6,0.1,3.2,0.3,4.7,0.6
	c0.5,0.6,1.1,1.3,1.5,1.9c0.5,0.7,0.3,1.6-0.4,2.1c-0.3,0.2-0.6,0.3-0.8,0.3C45.4,59.6,44.9,59.4,44.6,59z"/>
</svg>
