<?xml version="1.0" encoding="utf-8"?>
<!-- Generator: Adobe Illustrator 22.1.0, SVG Export Plug-In . SVG Version: 6.00 Build 0)  -->
<svg version="1.1" id="derniere-actu-etab-1" xmlns="http://www.w3.org/2000/svg" xmlns:xlink="http://www.w3.org/1999/xlink"
	 x="0px" y="0px" viewBox="0 0 96 96" style="enable-background:new 0 0 96 96;" xml:space="preserve">
<style type="text/css">
	.st0{fill:#EC407A;}
	.st1{fill:#FFFFFF;}
</style>
<rect id="bg" x="0.1" y="0.1" class="st0" width="95.9" height="95.9"/>
<path id="icone" class="st1" d="M48.9,60.9c0-2.6,0.6-5,1.6-7.2v-3.3h2c1.7-2.1,4-3.9,6.5-5H28.3V38h39.6v6.3c1.8,0.2,3.4,0.7,5,1.5
	v-20l-4.1,4.1l-4.1-4.1l-4.1,4.1l-4.1-4.1l-4.1,4.1l-4.1-4.1L44,29.9l-4.1-4.1l-4.1,4.1l-4.1-4.1l-4.1,4.1l-4.1-4.1v39.6
	c0,2.7,2.2,5,5,5H52C50,67.6,48.9,64.4,48.9,60.9z M43,58.4v7h-4.3v-5.2h-3.5v5.2h-4.3v-7h-2.6l8.6-7.9l8.6,7.9H43z M65.6,47.6
	c-7.4,0-13.3,6-13.3,13.3c0,7.4,6,13.3,13.3,13.3S79,68.3,79,60.9C79,53.6,73,47.6,65.6,47.6z M65.6,70.8c-5.4,0-9.8-4.4-9.8-9.8
	s4.4-9.8,9.8-9.8s9.8,4.4,9.8,9.8C75.5,66.4,71,70.8,65.6,70.8z M66.6,54.6h-2v7.6l6.6,4.3l1.1-1.7l-5.7-3.7V54.6z"/>
</svg>
