<?xml version="1.0" encoding="UTF-8" standalone="no"?>
<svg
   xmlns:dc="http://purl.org/dc/elements/1.1/"
   xmlns:cc="http://creativecommons.org/ns#"
   xmlns:rdf="http://www.w3.org/1999/02/22-rdf-syntax-ns#"
   xmlns:svg="http://www.w3.org/2000/svg"
   xmlns="http://www.w3.org/2000/svg"
   xml:space="preserve"
   style="enable-background:new 0 0 96 96;"
   viewBox="0 0 96 96"
   y="0px"
   x="0px"
   id="derniere-actu-default"
   version="1.1"><metadata
   id="metadata11"><rdf:RDF><cc:Work
       rdf:about=""><dc:format>image/svg+xml</dc:format><dc:type
         rdf:resource="http://purl.org/dc/dcmitype/StillImage" /><dc:title></dc:title></cc:Work></rdf:RDF></metadata><defs
   id="defs9" />
<style
   id="style2"
   type="text/css">
	.st0{fill:#EC407A;}
	.st1{fill:#FFFFFF;}
</style>
<rect
   style="fill:#ef5350;fill-opacity:1"
   height="95.9"
   width="95.9"
   class="st0"
   y="0.1"
   x="0.1"
   id="bg" />
<path
   d="M65.6,47.6c-7.4,0-13.3,6-13.3,13.3c0,7.4,6,13.3,13.3,13.3S79,68.3,79,60.9  C79,53.6,73,47.6,65.6,47.6z M65.6,70.8c-5.4,0-9.8-4.4-9.8-9.8s4.4-9.8,9.8-9.8s9.8,4.4,9.8,9.8C75.5,66.4,71,70.8,65.6,70.8z   M66.6,54.6h-2v7.6l6.6,4.3l1.1-1.7l-5.7-3.7V54.6z M50.6,53.8v-3.3h2c1.7-2.1,4-3.9,6.5-5H28.3v-7.4h39.6v6.3  c1.8,0.2,3.4,0.7,5,1.5V25.8l-4.1,4.1l-4.1-4.1l-4.1,4.1l-4.1-4.1l-4.1,4.1l-4.1-4.1L44,29.9l-4.1-4.1l-4.1,4.1l-4.1-4.1l-4.1,4.1  l-4.1-4.1v39.6c0,2.7,2.2,5,5,5H52c-1.8-2.7-2.9-5.9-2.9-9.4C48.9,58.4,49.5,56,50.6,53.8z M45.6,65.4H28.3V50.5h17.3V65.4z"
   class="st1"
   id="icone" />
</svg>