<?xml version="1.0" encoding="utf-8"?>
<!-- Generator: Adobe Illustrator 22.1.0, SVG Export Plug-In . SVG Version: 6.00 Build 0)  -->
<svg version="1.1" id="sacoche" xmlns="http://www.w3.org/2000/svg" xmlns:xlink="http://www.w3.org/1999/xlink" x="0px" y="0px"
	 viewBox="0 0 96 96" style="enable-background:new 0 0 96 96;" xml:space="preserve">
<style type="text/css">
	.st0{fill:#26C6DA;}
	.st1{fill:#FFFFFF;}
</style>
<rect id="bg" x="0.1" y="0.1" class="st0" width="95.9" height="95.9"/>
<path id="icone" class="st1" d="M54.8,71.7c1.3,0,2.4,1.1,2.4,2.4s-1.1,2.4-2.4,2.4s-2.4-1.1-2.4-2.4S53.5,71.7,54.8,71.7
	 M54.8,68.7c-3,0-5.4,2.4-5.4,5.4s2.4,5.4,5.4,5.4s5.4-2.4,5.4-5.4S57.8,68.7,54.8,68.7L54.8,68.7z M43.3,18.6h9.3
	c2.6,0,4.7,2.1,4.7,4.7V28h9.3c2.6,0,4.7,2.1,4.7,4.7v25.7c0,2.6-2.1,4.7-4.7,4.7H29.3c-2.6,0-4.7-2.1-4.7-4.7V32.6
	c0-2.6,2.1-4.7,4.7-4.7h9.3v-4.7C38.7,20.7,40.8,18.6,43.3,18.6 M52.7,27.9v-4.7h-9.3v4.7L52.7,27.9 M44.5,54.8l15.4-15.4l-3.3-3.3
	L44.5,48.2l-4.9-4.9l-3.3,3.3L44.5,54.8z M28.1,68.7c3,0,5.4,2.4,5.4,5.4s-2.4,5.4-5.4,5.4s-5.4-2.4-5.4-5.4S25.1,68.7,28.1,68.7z
	 M41.4,68.7c3,0,5.4,2.4,5.4,5.4s-2.4,5.4-5.4,5.4S36,77.1,36,74.1S38.4,68.7,41.4,68.7z M68.1,68.7c3,0,5.4,2.4,5.4,5.4
	s-2.4,5.4-5.4,5.4s-5.4-2.4-5.4-5.4S65.1,68.7,68.1,68.7z"/>
</svg>
