<?xml version="1.0" encoding="UTF-8" standalone="no"?>
<svg
   xml:space="preserve"
   style="enable-background:new 0 0 96 96;"
   viewBox="0 0 96 96"
   y="0px"
   x="0px"
   id="outils-sondages-2"
   version="1.1">
<style
     id="style2"
     type="text/css">
	.st0{fill:#3E7AB4;}
	.st1{fill:#FFFFFF;}
</style><rect
     height="95.9"
     width="95.9"
     class="st0"
     y="0.1"
     x="0.1"
     id="bg" /><g
     class="st1"
     transform="translate(-2,8)"
     id="icone"><path
       transform="translate(19.2,7.8)"
       d="M 57.6,56.6 H 6.36 A 5.11,5.11 0 0 1 1.25,51.5 V 22.8 A 5.11,5.11 0 0 1 6.36,17.7 H 47.2 v 1.5 H 6.36 a 3.61,3.61 0 0 0 -3.61,3.6 v 28.7 a 3.61,3.61 0 0 0 3.61,3.6 H 57.6 a 3.61,3.61 0 0 0 3.6,-3.6 V 22.8 a 3.61,3.61 0 0 0 -3.6,-3.6 h -6 v -1.5 h 6 a 5.11,5.11 0 0 1 5.1,5.1 v 28.7 a 5.11,5.11 0 0 1 -5.1,5.1 z"
       id="path2" /><path
       transform="translate(19.2,7.8)"
       d="m 41.1,30.5 a 0.75,0.75 0 0 1 -0.5,-0.3 l -2.9,-2.8 a 0.71,0.71 0 0 1 -0.2,-0.6 0.72,0.72 0 0 1 0.2,-0.5 L 57.4,7.92 A 1.9,1.9 0 0 1 60,10.6 L 41.7,30.2 a 0.77,0.77 0 0 1 -0.6,0.3 z M 39.3,26.9 41.1,28.6 59,9.58 A 0.421,0.421 0 0 0 58.4,9 Z"
       id="path4" /><path
       transform="translate(19.2,7.8)"
       d="m 29.7,42.7 a 0.75,0.75 0 0 1 -0.5,-0.2 l -3.7,-3.7 a 0.75,0.75 0 0 1 0,-1.1 L 37.7,26.3 a 0.76,0.76 0 0 1 1,0 l 2.9,2.9 a 0.76,0.76 0 0 1 0,1 L 30.3,42.4 a 0.77,0.77 0 0 1 -0.6,0.3 z m -2.6,-4.4 2.6,2.5 10.4,-11.1 -1.9,-1.8 z"
       id="path6" /><path
       transform="translate(19.2,7.8)"
       d="M 22.9,45.8 A 0.73,0.73 0 0 1 22.4,45.6 0.75,0.75 0 0 1 22.3,44.7 L 25.4,38 a 0.752,0.752 0 0 1 1.3,0.6 l -2.2,5 4.9,-2.3 a 0.74,0.74 0 0 1 1,0.4 0.75,0.75 0 0 1 -0.4,1 l -6.7,3.1 a 0.67,0.67 0 0 1 -0.4,0 z"
       id="path8" /><path
       transform="translate(19.2,7.8)"
       d="M 14.3,52.5 H 8.07 A 2.07,2.07 0 0 1 6,50.4 V 25.1 A 2.08,2.08 0 0 1 8.07,23 h 6.23 a 2.08,2.08 0 0 1 2,2.1 v 25.3 a 2.08,2.08 0 0 1 -2,2.1 z M 8.07,24.5 A 0.58,0.58 0 0 0 7.5,25.1 V 50.4 A 0.58,0.58 0 0 0 8.07,51 h 6.23 a 0.58,0.58 0 0 0 0.5,-0.6 V 25.1 a 0.58,0.58 0 0 0 -0.5,-0.6 z"
       id="path10" /><path
       transform="translate(19.2,7.8)"
       d="M 12.9,32.4 H 9.4 A 0.76,0.76 0 0 1 8.65,31.6 V 28.1 A 0.76,0.76 0 0 1 9.4,27.3 h 3.5 a 0.76,0.76 0 0 1 0.8,0.8 v 3.5 a 0.76,0.76 0 0 1 -0.8,0.8 z m -2.8,-1.5 h 2 v -2 h -2 z"
       id="path12" /><path
       transform="translate(19.2,7.8)"
       d="M 12.9,40.3 H 9.4 A 0.76,0.76 0 0 1 8.65,39.5 V 36 A 0.76,0.76 0 0 1 9.4,35.2 h 3.5 a 0.76,0.76 0 0 1 0.8,0.8 v 3.5 a 0.76,0.76 0 0 1 -0.8,0.8 z m -2.8,-1.5 h 2 v -2 h -2 z"
       id="path14" /><path
       transform="translate(19.2,7.8)"
       d="M 12.9,48.1 H 9.4 A 0.75,0.75 0 0 1 8.65,47.4 V 43.9 A 0.75,0.75 0 0 1 9.4,43.1 h 3.5 a 0.75,0.75 0 0 1 0.8,0.8 v 3.5 a 0.75,0.75 0 0 1 -0.8,0.7 z m -2.8,-1.5 h 2 v -2 h -2 z"
       id="path16" /><path
       transform="translate(19.2,7.8)"
       d="m 30.9,48.2 a 14.4,14.4 0 0 1 -8.4,-2.6 0.75,0.75 0 0 1 0.9,-1.2 c 0.2,0.2 6.1,4.6 14.7,0.5 11,-5.2 18.1,1.3 18.1,1.4 a 0.75,0.75 0 0 1 -1,1.1 C 55,47.1 48.8,41.5 38.8,46.3 a 18.1,18.1 0 0 1 -7.9,1.9 z"
       id="path18" /></g></svg>
