<?xml version="1.0" encoding="UTF-8" standalone="no"?>
<!-- Generator: Adobe Illustrator 22.1.0, SVG Export Plug-In . SVG Version: 6.00 Build 0)  -->

<svg
   version="1.1"
   id="wisemapping"
   x="0px"
   y="0px"
   viewBox="0 0 96 96"
   style="enable-background:new 0 0 96 96;"
   xml:space="preserve"
   xmlns="http://www.w3.org/2000/svg"
   xmlns:svg="http://www.w3.org/2000/svg"><defs
     id="defs1" /><style
     type="text/css"
     id="style1">
	.st0{fill:#FFA726;}
	.st1{fill:#FFFFFF;}
</style><rect
     id="bg"
     x="0.1"
     y="0.1"
     class="st0"
     width="95.9"
     height="95.9" /><g
     id="g1"><path
       d="M 26,10 H 42"
       stroke="#ffffff"
       stroke-width="4"
       stroke-linecap="round"
       stroke-linejoin="round"
       id="path3"
       transform="matrix(0.688,0,0,1.34,49.7,14.9)" /><path
       d="M 26,10 H 42"
       stroke="#ffffff"
       stroke-width="4"
       stroke-linecap="round"
       stroke-linejoin="round"
       id="path3-2"
       transform="matrix(0.688,0,0,1.34,49.5,52.4)" /><path
       stroke-width="1"
       id="path4"
       transform="matrix(1.25,0,0,1.34,43.9,15.6)"
       stroke="#ffffff"
       d="M 18,38 C 12,36 16,24 10,24 m 8,-14 c -6,2 -2,14 -8,14"
       style="fill:none" /><path
       d="M 18,38 C 12,36 16,24 10,24 m 8,-14 c -6,2 -2,14 -8,14"
       stroke="#ffffff"
       stroke-width="1"
       stroke-linecap="round"
       stroke-linejoin="round"
       id="path4-2"
       transform="matrix(-1.25,0,0,1.34,55.5,15.2)"
       style="fill:none" /><path
       d="M 26,10 H 42"
       stroke="#ffffff"
       stroke-width="4"
       stroke-linecap="round"
       stroke-linejoin="round"
       id="path3-9"
       transform="matrix(0.688,0,0,1.34,2.71,14.9)" /><path
       d="M 26,10 H 42"
       stroke="#ffffff"
       stroke-width="4"
       stroke-linecap="round"
       stroke-linejoin="round"
       id="path3-9-0"
       transform="matrix(0.688,0,0,1.34,2.46,52.4)" /><path
       d="M 26,10 H 42"
       stroke="#ffffff"
       stroke-width="4"
       stroke-linecap="round"
       stroke-linejoin="round"
       id="path3-9-6"
       transform="matrix(0.688,0,0,1.34,26.7,34.1)" /></g></svg>
