<?xml version="1.0" encoding="UTF-8" standalone="no"?>
<svg
   xmlns:dc="http://purl.org/dc/elements/1.1/"
   xmlns:cc="http://creativecommons.org/ns#"
   xmlns:rdf="http://www.w3.org/1999/02/22-rdf-syntax-ns#"
   xmlns:svg="http://www.w3.org/2000/svg"
   xmlns="http://www.w3.org/2000/svg"
   height="96"
   width="96"
   xml:space="preserve"
   viewBox="0 0 96 96"
   y="0px"
   x="0px"
   id="carte-jeune-1"
   version="1.1"><defs /><rect
     style="fill:#ec407a"
     height="95.9"
     width="95.9"
     class="st0"
     y="0.1"
     x="0.1"
     id="bg" /><path
     style="fill:#ffffff"
     d="m 38.4,51.8 c -7,-12.3 -14,-23.3 -21,-33.9 9,0 17,0 25,0 2,3.2 4.1,6.7 6.4,9.8 2.4,-3.3 3.9,-6 6.2,-9.8 8.2,0 16.5,0 24.8,0 -7.2,12.2 -14.6,24.2 -20.4,33.9 0,8.4 0,16.9 0,25.5 -7,0 -14,0 -21,0 0,-8.5 0,-17.1 0,-25.5 z"
     id="icone" /><metadata
     id="metadata869"><rdf:RDF><cc:Work
         rdf:about=""><dc:title></dc:title></cc:Work></rdf:RDF></metadata></svg>