<?xml version="1.0" encoding="utf-8"?>
<!-- Generator: Adobe Illustrator 22.1.0, SVG Export Plug-In . SVG Version: 6.00 Build 0)  -->
<svg version="1.1" id="desc-touraine" xmlns="http://www.w3.org/2000/svg" xmlns:xlink="http://www.w3.org/1999/xlink" x="0px"
	 y="0px" viewBox="0 0 96 96" style="enable-background:new 0 0 96 96;" xml:space="preserve">
<style type="text/css">
	.st0{fill:#EC407A;}
	.st1{fill:#FFFFFF;}
</style>
<rect id="bg" x="0.1" y="0.1" class="st0" width="95.9" height="95.9"/>
<path id="icone" class="st1" d="M34.5,37.3c-1.5,1.8-2.5,3.9-3.1,6.1c-0.6,2.2-0.7,4.5-0.4,6.9c0.3,2.4,1,4.7,2.1,7s2.5,4.3,4.2,6.1
	c1.7,2.3,5.3,4.9,9.8,6c4.4,1.1,9.7,0.8,13.9-0.9c14-5.6,16.2-19.7,14.7-27.4c-0.8-4-3.6-9.6-8.3-14.1c-4.5-4.2-11-7.5-17.8-7.5
	c-14,0-22.8,8-26.6,16.1c-3.9,8.3-3.4,15.2-0.8,23.1c1.4,4.2,5.8,10,11.6,13.8c4,2.7,11.7,4.2,15.9,3.9c8.5-0.6,12.6-3.7,12.6-3.7
	s-7.4,1.8-11.8,1.7c-2.6,0-15.8-0.3-22.7-16.9C23.6,47.2,27.4,40,29,37.3c1.5-2.7,4.7-7,11.6-9.7c5.7-2.2,10.4-1.9,14.8-0.3
	c4.4,1.7,8.8,5.1,11.7,10.4s2.6,7.9,2.6,9.9s-1,7.6-6.5,11.7c-5.8,4.2-16.3,4.6-21.4-3.8L65.4,44c-1.6-3.4-3.4-6.1-5.4-8.1
	s-4.1-3.4-6.2-4.3c-2.2-0.8-4.4-1.1-6.6-0.9c-2.2,0.2-4.4,0.8-6.6,1.9C37.9,34,36,35.5,34.5,37.3z M49.8,38.6c2,0.7,3.6,2,4.9,3.9
	L39,50.2c-0.6-2.5-0.4-4.7,0.5-6.7s2.4-3.4,4.3-4.4C45.8,38.2,47.9,38,49.8,38.6z"/>
</svg>
