<?xml version="1.0" encoding="UTF-8" standalone="no"?>
<!-- Generator: Adobe Illustrator 22.1.0, SVG Export Plug-In . SVG Version: 6.00 Build 0)  -->

<svg
   version="1.1"
   id="actu-etab-1"
   x="0px"
   y="0px"
   viewBox="0 0 96 96"
   style="enable-background:new 0 0 96 96;"
   xml:space="preserve"
   sodipodi:docname="ActualitesDRAAF.svg"
   inkscape:version="1.1.2 (0a00cf5339, 2022-02-04)"
   xmlns:inkscape="http://www.inkscape.org/namespaces/inkscape"
   xmlns:sodipodi="http://sodipodi.sourceforge.net/DTD/sodipodi-0.dtd"
   xmlns="http://www.w3.org/2000/svg"
   xmlns:svg="http://www.w3.org/2000/svg"><defs
   id="defs929" /><sodipodi:namedview
   id="namedview927"
   pagecolor="#ffffff"
   bordercolor="#666666"
   borderopacity="1.0"
   inkscape:pageshadow="2"
   inkscape:pageopacity="0.0"
   inkscape:pagecheckerboard="0"
   showgrid="false"
   inkscape:zoom="9.09375"
   inkscape:cx="45.030928"
   inkscape:cy="48.769759"
   inkscape:window-width="2514"
   inkscape:window-height="1376"
   inkscape:window-x="0"
   inkscape:window-y="0"
   inkscape:window-maximized="1"
   inkscape:current-layer="actu-etab-1" />
<style
   type="text/css"
   id="style922">
	.st0{fill:#EC407A;}
	.st1{fill:#FFFFFF;}
</style>
<rect
   id="bg"
   x="0.1"
   y="0.1"
   class="st0"
   width="95.9"
   height="95.9" />
<path
   id="icone"
   class="st1"
   d="M 23.5 25.800781 L 23.5 65.400391 C 23.5 68.100391 25.7 70.400391 28.5 70.400391 L 68.099609 70.400391 C 70.799609 70.400391 73.099609 68.200391 73.099609 65.400391 L 73.099609 25.800781 L 68.699219 29.900391 L 64.599609 25.800781 L 60.5 29.900391 L 56.400391 25.800781 L 52.300781 29.900391 L 48.199219 25.800781 L 44 29.900391 L 39.900391 25.800781 L 35.800781 29.900391 L 31.699219 25.800781 L 27.599609 29.900391 L 23.5 25.800781 z M 59.753906 34.091797 L 60.349609 38.828125 C 60.695945 41.583249 59.568141 44.196906 57.589844 45.880859 C 57.820232 46.020374 58.046359 46.172181 58.265625 46.337891 L 58.273438 46.345703 L 60.794922 48.302734 L 62.050781 49.279297 L 59.123047 53.050781 L 59.121094 53.052734 C 58.020713 54.462365 56.527407 55.39305 54.912109 55.824219 L 54.925781 55.833984 L 56.181641 56.808594 L 53.253906 60.578125 C 50.570295 64.033438 45.546983 64.665937 42.091797 61.982422 L 40.847656 61.015625 L 37.929688 64.773438 L 35.416016 62.822266 L 38.333984 59.064453 L 38.34375 59.052734 L 37.087891 58.076172 C 35.421962 56.782307 34.337305 54.878011 34.074219 52.785156 C 33.811026 50.692168 34.391699 48.578015 35.685547 46.912109 L 38.603516 43.15625 L 39.873047 44.142578 L 39.919922 44.177734 C 39.924623 42.427405 40.497276 40.715049 41.582031 39.318359 L 44.458984 35.615234 L 45.728516 36.601562 L 48.228516 38.542969 C 48.454872 38.718745 48.667121 38.906747 48.869141 39.101562 C 50.012279 36.769791 52.264323 35.031809 55.017578 34.685547 L 58.175781 34.289062 L 59.753906 34.091797 z M 56.992188 37.644531 L 55.414062 37.84375 C 52.786057 38.17426 50.950267 40.529508 51.271484 43.158203 L 51.271484 43.160156 L 51.271484 43.162109 L 51.472656 44.753906 L 53.050781 44.556641 C 55.685197 44.225338 57.522536 41.858774 57.191406 39.224609 L 56.992188 37.644531 z M 45.019531 40.080078 L 44.095703 41.271484 C 43.318847 42.271733 42.970929 43.538091 43.128906 44.794922 C 43.286814 46.051638 43.937148 47.191813 44.9375 47.96875 L 46.193359 48.945312 L 47.15625 47.705078 C 48.741908 45.606624 48.35461 42.669729 46.277344 41.056641 L 45.019531 40.080078 z M 39.164062 47.621094 L 38.197266 48.863281 C 37.42031 49.863657 37.074395 51.13004 37.232422 52.386719 C 37.390395 53.643401 38.040703 54.785595 39.041016 55.5625 L 40.296875 56.537109 L 40.490234 56.287109 L 41.261719 55.294922 C 41.261719 55.294922 41.263672 55.292969 41.263672 55.292969 L 41.269531 55.287109 L 41.269531 55.285156 C 42.889486 53.187873 42.512776 50.223098 40.419922 48.597656 L 39.164062 47.621094 z M 53.291016 47.908203 C 53.139967 47.913681 52.989541 47.925483 52.839844 47.945312 C 51.641707 48.104026 50.505647 48.719169 49.699219 49.757812 L 49.697266 49.757812 L 48.732422 51.001953 L 49.972656 51.964844 C 52.065649 53.546294 54.993597 53.16261 56.609375 51.097656 L 57.585938 49.839844 L 56.345703 48.876953 C 56.345703 48.876953 56.34375 48.876953 56.34375 48.876953 C 55.426147 48.184009 54.348357 47.86986 53.291016 47.908203 z M 47.398438 55.394531 C 47.246339 55.399141 47.094192 55.410524 46.943359 55.429688 C 45.746899 55.581701 44.608378 56.190277 43.796875 57.220703 C 43.794872 57.223304 43.793022 57.225916 43.791016 57.228516 C 43.791016 57.228516 43.789062 57.230469 43.789062 57.230469 C 43.789062 57.230469 43.787109 57.232422 43.787109 57.232422 L 43.783203 57.236328 C 43.780614 57.239645 43.777973 57.242769 43.775391 57.246094 L 42.798828 58.503906 L 44.042969 59.46875 C 46.139859 61.097327 49.111598 60.723921 50.740234 58.626953 L 51.716797 57.369141 L 50.462891 56.396484 C 49.545329 55.687754 48.463126 55.362261 47.398438 55.394531 z " />
<g
   inkscape:groupmode="layer"
   id="layer1"
   inkscape:label="educ"
   style="display:none"><g
     id="g2184"><path
       d="m 37.589207,52.770745 c 0,-6.026985 4.908896,-10.932685 10.933285,-10.932685 6.029182,0 10.935482,4.9057 10.935482,10.932685 0,6.026987 -4.9063,10.928292 -10.935482,10.928292 -6.024389,0 -10.933285,-4.901305 -10.933285,-10.928292 m -2.950888,0 c 0,7.658091 6.223285,13.884972 13.884173,13.884972 7.660888,0 13.889566,-6.226881 13.889566,-13.884972 0,-7.654697 -6.228678,-13.885372 -13.889566,-13.885372 -7.660888,0 -13.884173,6.230675 -13.884173,13.885372"
       style="fill:#f9ba42;fill-opacity:1;fill-rule:nonzero;stroke:none;stroke-width:0.199695"
       id="path126" /><path
       d="m 49.248843,32.594771 h 5.545721 l -4.013863,4.227338 h -3.146988 z"
       style="fill:#f9ba42;fill-opacity:1;fill-rule:nonzero;stroke:none;stroke-width:0.199695"
       id="path138" /><path
       d="m 43.473872,45.247687 h 10.152677 v 3.385024 l -6.275804,0.004 v 2.182064 h 5.863434 v 3.391613 h -5.863434 v 2.181266 h 6.271212 v 3.387022 H 43.473872 Z"
       style="fill:none;stroke:#fee1a1;stroke-width:0.465089;stroke-linecap:butt;stroke-linejoin:miter;stroke-miterlimit:4;stroke-dasharray:none;stroke-opacity:1"
       id="path150" /></g></g><g
   inkscape:groupmode="layer"
   id="layer4"
   inkscape:label="epi" /></svg>
