<?xml version="1.0" encoding="utf-8"?>
<!-- Generator: Adobe Illustrator 22.1.0, SVG Export Plug-In . SVG Version: 6.00 Build 0)  -->
<svg version="1.1" id="actu-centre-2" xmlns="http://www.w3.org/2000/svg" xmlns:xlink="http://www.w3.org/1999/xlink" x="0px"
	 y="0px" viewBox="0 0 96 96" style="enable-background:new 0 0 96 96;" xml:space="preserve">
<style type="text/css">
	.st0{fill:#EC407A;}
	.st1{fill:#FFFFFF;}
</style>
<rect id="bg" x="0.1" y="0.1" class="st0" width="95.9" height="95.9"/>
<path id="icone" class="st1" d="M68.7,29.9l-4.1-4.1l-4.1,4.1l-4.1-4.1l-4.1,4.1l-4.1-4.1L44,29.9l-4.1-4.1l-4.1,4.1l-4.1-4.1
	l-4.1,4.1l-4.1-4.1v39.6c0,2.7,2.2,4.9,5,4.9h39.6c2.7,0,5-2.2,5-4.9V25.8L68.7,29.9z M50.6,38.8c0.3-0.1,8.3-3.8,11.6,1.4
	c1.6,2.5,1,5.8-0.5,8.9c-1.4,0.9-3.1,1.6-4.8,2c2.4-3.2,4.2-7.2,2.8-9.3c-1.9-3-7.9-0.3-7.9-0.3c-0.1,0-4.7,2-4.5,4.8
	c0.1,2.4,2.7,2.3,3,2.3c0.8,0,1.5,0.6,1.6,1.4c0,0.8-0.6,1.5-1.4,1.6c-2.4,0.1-5.9-1.2-6.1-5.1C44,41.6,50.3,38.9,50.6,38.8z
	 M36.1,36c1.2-1,2.9-1.4,4.7-1.1c2.3,0.3,4.6,1.6,5.8,3.2c0.5,0.7,0.3,1.6-0.3,2.1c-0.7,0.5-1.6,0.3-2.1-0.3c-0.7-1-2.3-1.8-3.8-2
	c-1-0.1-1.9,0-2.5,0.5c-2.5,2-2.5,4.9-0.1,8.7c0.9,1.3,2.1,2.7,3.5,4c-0.2,0-0.4,0-0.6,0c-1.2,0-2.3,0.1-3.3,0.3
	c-0.8-0.9-1.5-1.7-2.1-2.6C32.1,43.6,32.4,39,36.1,36z M44.6,59c-0.9-1.3-2.3-2.7-3.7-4.2c1.6,0.1,3.2,0.3,4.7,0.6
	c0.5,0.6,1.1,1.3,1.5,1.9c0.5,0.7,0.3,1.6-0.4,2.1c-0.3,0.2-0.6,0.3-0.8,0.3C45.4,59.6,44.9,59.4,44.6,59z M53.8,58.9
	c-2.1,2.1-4.1,4.1-5.4,6.3c-0.3,0.5-0.8,0.7-1.3,0.7c-0.3,0-0.5-0.1-0.8-0.2c-0.7-0.4-0.9-1.4-0.5-2.1c1.5-2.4,3.6-4.5,5.9-6.8
	c0.2-0.2,0.4-0.4,0.6-0.6c0.2,0,0.5,0,0.7,0c1.3,0,2.6-0.1,3.7-0.3C55.8,57,54.8,58,53.8,58.9z M65.6,50.4c0,0-5.2,6.5-17.1,4.5
	c-3.3-0.6-7.6-1.6-11-1c0,0-2.6,0.2-5.4,2.1c0,0-0.5,0.3-0.8-0.1C31,55.5,31.7,55,31.7,55s4.3-4.2,12.5-2.7c8.8,1.7,15.7,0,20.2-3.8
	c0,0,0.9-0.8,1.6,0.2C66.6,49.7,65.6,50.4,65.6,50.4z"/>
</svg>
