<?xml version="1.0" encoding="UTF-8" standalone="no"?>
<!-- Generator: Adobe Illustrator 22.1.0, SVG Export Plug-In . SVG Version: 6.00 Build 0)  -->

<svg
   version="1.1"
   id="actu-etab-1"
   x="0px"
   y="0px"
   viewBox="0 0 96 96"
   style="enable-background:new 0 0 96 96;"
   xml:space="preserve"
   sodipodi:docname="ActualitesRectorat.svg"
   inkscape:version="1.1.2 (0a00cf5339, 2022-02-04)"
   xmlns:inkscape="http://www.inkscape.org/namespaces/inkscape"
   xmlns:sodipodi="http://sodipodi.sourceforge.net/DTD/sodipodi-0.dtd"
   xmlns="http://www.w3.org/2000/svg"
   xmlns:svg="http://www.w3.org/2000/svg"><defs
   id="defs929" /><sodipodi:namedview
   id="namedview927"
   pagecolor="#ffffff"
   bordercolor="#666666"
   borderopacity="1.0"
   inkscape:pageshadow="2"
   inkscape:pageopacity="0.0"
   inkscape:pagecheckerboard="0"
   showgrid="false"
   inkscape:zoom="9.09375"
   inkscape:cx="45.030928"
   inkscape:cy="66.364261"
   inkscape:window-width="2514"
   inkscape:window-height="1376"
   inkscape:window-x="0"
   inkscape:window-y="0"
   inkscape:window-maximized="1"
   inkscape:current-layer="actu-etab-1" />
<style
   type="text/css"
   id="style922">
	.st0{fill:#EC407A;}
	.st1{fill:#FFFFFF;}
</style>
<rect
   id="bg"
   x="0.1"
   y="0.1"
   class="st0"
   width="95.9"
   height="95.9" />
<path
   id="icone"
   class="st1"
   d="M 23.5 25.800781 L 23.5 65.400391 C 23.5 68.100391 25.7 70.400391 28.5 70.400391 L 68.099609 70.400391 C 70.799609 70.400391 73.099609 68.200391 73.099609 65.400391 L 73.099609 25.800781 L 68.699219 29.900391 L 64.599609 25.800781 L 60.5 29.900391 L 56.400391 25.800781 L 52.300781 29.900391 L 48.199219 25.800781 L 44 29.900391 L 39.900391 25.800781 L 35.800781 29.900391 L 31.699219 25.800781 L 27.599609 29.900391 L 23.5 25.800781 z M 49.248047 32.595703 L 54.794922 32.595703 L 50.78125 36.822266 L 47.632812 36.822266 L 49.248047 32.595703 z M 48.523438 38.884766 C 56.184325 38.884766 62.412109 45.116787 62.412109 52.771484 C 62.412109 60.429575 56.184325 66.65625 48.523438 66.65625 C 40.86255 66.65625 34.638672 60.429575 34.638672 52.771484 C 34.638672 45.116787 40.86255 38.884766 48.523438 38.884766 z M 48.523438 41.837891 C 42.499049 41.837891 37.589844 46.744499 37.589844 52.771484 C 37.589844 58.798471 42.499049 63.699219 48.523438 63.699219 C 54.552619 63.699219 59.457031 58.798471 59.457031 52.771484 C 59.457031 46.744499 54.552619 41.837891 48.523438 41.837891 z M 43.474609 45.248047 L 53.626953 45.248047 L 53.626953 48.632812 L 47.351562 48.636719 L 47.351562 50.818359 L 53.214844 50.818359 L 53.214844 54.210938 L 47.351562 54.210938 L 47.351562 56.392578 L 53.621094 56.392578 L 53.621094 59.779297 L 43.474609 59.779297 L 43.474609 45.248047 z " />
<g
   inkscape:groupmode="layer"
   id="layer1"
   inkscape:label="educ"><g
     id="g2184" /></g></svg>
