<?xml version="1.0" encoding="utf-8"?>
<!-- Generator: Adobe Illustrator 22.1.0, SVG Export Plug-In . SVG Version: 6.00 Build 0)  -->
<svg version="1.1" id="actu-etab-1" xmlns="http://www.w3.org/2000/svg" xmlns:xlink="http://www.w3.org/1999/xlink" x="0px"
	 y="0px" viewBox="0 0 96 96" style="enable-background:new 0 0 96 96;" xml:space="preserve">
<style type="text/css">
	.st0{fill:#EC407A;}
	.st1{fill:#FFFFFF;}
</style>
<rect id="bg" x="0.1" y="0.1" class="st0" width="95.9" height="95.9"/>
<path id="icone" class="st1" d="M68.7,29.9l-4.1-4.1l-4.1,4.1l-4.1-4.1l-4.1,4.1l-4.1-4.1L44,29.9l-4.1-4.1l-4.1,4.1l-4.1-4.1
	l-4.1,4.1l-4.1-4.1v39.6c0,2.7,2.2,5,5,5h39.6c2.7,0,5-2.2,5-5V25.8L68.7,29.9z M43,58.4v7h-4.3v-5.2h-3.5v5.2h-4.3v-7h-2.6l8.6-7.9
	l8.6,7.9H43z M67.9,65.4H50.6v-5h17.3C67.9,60.4,67.9,65.4,67.9,65.4z M67.9,55.5H50.6v-5h17.3C67.9,50.5,67.9,55.5,67.9,55.5z
	 M67.9,45.6H28.3v-7.4h39.6C67.9,38.2,67.9,45.6,67.9,45.6z"/>
</svg>
