<?xml version="1.0" encoding="utf-8"?>
<!-- Generator: Adobe Illustrator 22.1.0, SVG Export Plug-In . SVG Version: 6.00 Build 0)  -->
<svg version="1.1" id="admin-listes-1" xmlns="http://www.w3.org/2000/svg" xmlns:xlink="http://www.w3.org/1999/xlink" x="0px"
	 y="0px" viewBox="0 0 96 96" style="enable-background:new 0 0 96 96;" xml:space="preserve">
<style type="text/css">
	.st0{fill:#EF5350;}
	.st1{fill:#FFFFFF;}
</style>
<rect id="bg" x="0.1" y="0.1" class="st0" width="95.9" height="95.9"/>
<path id="icone" class="st1" d="M65.7,52.3c-0.3,0-0.5,0.2-0.5,0.4l-0.4,2.8c-0.6,0.3-1.2,0.6-1.8,1l-2.6-1c-0.2,0-0.5,0-0.6,0.3
	l-2.1,3.6c-0.1,0.2-0.1,0.5,0.1,0.7l2.2,1.7c0,0.4-0.1,0.7-0.1,1s0,0.7,0.1,1l-2.2,1.7c-0.2,0.2-0.3,0.4-0.1,0.7l2.1,3.6
	c0.1,0.3,0.4,0.3,0.6,0.3l2.6-1c0.5,0.4,1.1,0.7,1.8,1l0.4,2.8c0,0.3,0.3,0.4,0.5,0.4h4.2c0.2,0,0.5-0.2,0.5-0.4l0.4-2.8
	c0.6-0.3,1.2-0.6,1.8-1l2.6,1c0.3,0,0.5,0,0.7-0.3l2.1-3.6c0.1-0.2,0.1-0.5-0.1-0.7l-2.2-1.7c0-0.4,0.1-0.7,0.1-1s0-0.7-0.1-1
	l2.2-1.7c0.2-0.2,0.3-0.4,0.1-0.7l-2.1-3.6c-0.1-0.3-0.4-0.3-0.7-0.3l-2.6,1c-0.6-0.4-1.1-0.7-1.8-1l-0.4-2.8c0-0.3-0.3-0.4-0.5-0.4
	 M67.8,59.6c1.7,0,3.1,1.4,3.1,3.1s-1.4,3.1-3.1,3.1c-1.8,0-3.1-1.4-3.1-3.1C64.7,61,66.1,59.6,67.8,59.6z M69.6,26.9H22v7.9h47.6
	V26.9 M52.5,62.6c0-1.4,0.2-2.7,0.5-4H22v7.9h31C52.7,65.3,52.5,63.9,52.5,62.6z M67.8,47.2c0.6,0,1.2,0,1.8,0.1v-4.6H22v7.9h36.1
	C60.8,48.5,64.1,47.2,67.8,47.2z"/>
</svg>
