<?xml version="1.0" encoding="utf-8"?>
<!-- Generator: Adobe Illustrator 22.1.0, SVG Export Plug-In . SVG Version: 6.00 Build 0)  -->
<svg version="1.1" id="aide-portail-ent-1" xmlns="http://www.w3.org/2000/svg" xmlns:xlink="http://www.w3.org/1999/xlink" x="0px"
	 y="0px" viewBox="0 0 96 96" style="enable-background:new 0 0 96 96;" xml:space="preserve">
<style type="text/css">
	.st0{fill:#EC407A;}
	.st1{fill:#FFFFFF;}
</style>
<rect id="bg" class="st0" width="95.9" height="95.9"/>
<path id="icone" class="st1" d="M55.8,46.1l-2.3,2.3c-1.8,1.8-3,3.4-3,7.2h-5.1v-1.3c0-2.8,1.1-5.4,3-7.2l3.2-3.2
	c0.9-0.9,1.5-2.2,1.5-3.6c0-2.8-2.3-5.1-5.1-5.1s-5.1,2.3-5.1,5.1h-5.1c0-5.6,4.6-10.2,10.2-10.2s10.2,4.6,10.2,10.2
	C58.2,42.6,57.3,44.6,55.8,46.1 M50.5,65.8h-5.1v-5.1h5.1 M48,22.5c-14.1,0-25.5,11.4-25.5,25.5S33.9,73.5,48,73.5
	S73.5,62.1,73.5,48S62,22.5,48,22.5z"/>
</svg>
