<?xml version="1.0" encoding="utf-8"?>
<!-- Generator: Adobe Illustrator 22.1.0, SVG Export Plug-In . SVG Version: 6.00 Build 0)  -->
<svg version="1.1" id="aides-infos-region" xmlns="http://www.w3.org/2000/svg" xmlns:xlink="http://www.w3.org/1999/xlink" x="0px"
	 y="0px" viewBox="0 0 96 96" style="enable-background:new 0 0 96 96;" xml:space="preserve">
<style type="text/css">
	.st0{fill:#EC407A;}
	.st1{fill:#FFFFFF;}
</style>
<rect id="bg" x="0.1" y="0.1" class="st0" width="95.9" height="95.9"/>
<path id="icone" class="st1" d="M48,20.1c-10.8,0-19.5,8.7-19.5,19.5C28.5,54.3,48,75.9,48,75.9s19.5-21.6,19.5-36.2
	C67.5,28.9,58.8,20.1,48,20.1z M49.6,59H45v-4.6h4.6V59z M54.9,43.2c-1.3,1.5-3.3,2.5-4.3,3.8s-1,2.8-1,4.3H45c0-2.5,0-4.7,1-6.2
	s3-2.4,4.3-3.4c3.7-3.4,2.8-8.3-2.3-8.6c-2.5,0-4.6,2-4.6,4.6h-4.6c0-5.1,4.1-9.1,9.1-9.1C56.2,28.8,59.8,37.1,54.9,43.2z"/>
</svg>
