<?xml version="1.0" encoding="UTF-8" standalone="no"?>
<svg
   xmlns:dc="http://purl.org/dc/elements/1.1/"
   xmlns:cc="http://creativecommons.org/ns#"
   xmlns:rdf="http://www.w3.org/1999/02/22-rdf-syntax-ns#"
   xmlns:svg="http://www.w3.org/2000/svg"
   xmlns="http://www.w3.org/2000/svg"
   xml:space="preserve"
   style="enable-background:new 0 0 96 96;"
   viewBox="0 0 96 96"
   y="0px"
   x="0px"
   id="actu-default"
   version="1.1"><metadata
   id="metadata11"><rdf:RDF><cc:Work
       rdf:about=""><dc:format>image/svg+xml</dc:format><dc:type
         rdf:resource="http://purl.org/dc/dcmitype/StillImage" /><dc:title></dc:title></cc:Work></rdf:RDF></metadata><defs
   id="defs9" />
<style
   id="style2"
   type="text/css">
	.st0{fill:#EC407A;}
	.st1{fill:#FFFFFF;}
</style>
<rect
   style="fill:#ef5350;fill-opacity:1"
   height="95.9"
   width="95.9"
   class="st0"
   y="0.1"
   x="0.1"
   id="bg" />
<path
   d="M67.9,45.6H28.3v-7.4h39.6 M67.9,55.5H50.6v-4.9h17.3 M67.9,65.4H50.6v-5h17.3 M45.6,65.4H28.3V50.5  h17.3 M68.7,29.9l-4.1-4.1l-4.1,4.1l-4.1-4.1l-4.1,4.1l-4.1-4.1L44,29.9l-4.1-4.1l-4.1,4.1l-4.1-4.1l-4.1,4.1l-4.1-4.1v39.6  c0,2.7,2.2,4.9,5,4.9h39.6c2.7,0,4.9-2.2,4.9-4.9V25.8L68.7,29.9z"
   class="st1"
   id="icone" />
</svg>