<?xml version="1.0" encoding="utf-8"?>
<!-- Generator: Adobe Illustrator 22.1.0, SVG Export Plug-In . SVG Version: 6.00 Build 0)  -->
<svg version="1.1" id="cahier-textes-num" xmlns="http://www.w3.org/2000/svg" xmlns:xlink="http://www.w3.org/1999/xlink" x="0px"
	 y="0px" viewBox="0 0 96 96" style="enable-background:new 0 0 96 96;" xml:space="preserve">
<style type="text/css">
	.st0{fill:#616161;}
	.st1{fill:#FFFFFF;}
</style>
<rect id="bg" x="0.1" y="0.1" class="st0" width="95.9" height="95.9"/>
<path id="icone" class="st1" d="M64.3,24.3h-2.5v17.3l-6.2-3.7l-6.2,3.7V24.3H34.7c-2.7,0-4.9,2.2-4.9,4.9v2.5h4.9v4.9h-4.9v9.9h4.9
	v4.9h-4.9v9.9h4.9v4.9h-4.9v2.5c0,2.6,2.3,4.9,4.9,4.9h29.6c2.6,0,4.9-2.3,4.9-4.9V29.3C69.2,26.7,66.9,24.3,64.3,24.3z M50.7,63.8
	c-0.1-0.2-0.3-0.2-0.7-0.2c-0.3,0-0.5,0.1-0.6,0.3c-0.2,0.2-0.2,0.6-0.2,1.1v2.4c0,0.5,0.1,0.9,0.3,1.1s0.4,0.3,0.7,0.3
	s0.5-0.1,0.6-0.2s0.2-0.4,0.2-1v-0.3h1.9l0.1,0.3c0,0.9-0.2,1.7-0.7,2.2s-1.2,0.7-2.1,0.7c-0.9,0-1.6-0.3-2.2-0.8
	c-0.5-0.6-0.8-1.3-0.8-2.3V65c0-1,0.3-1.8,0.8-2.3c0.5-0.6,1.2-0.8,2.1-0.8c0.9,0,1.6,0.3,2.1,0.8s0.7,1.2,0.7,2.2V65l-0.1,0.2h-0.2
	h-1.8v-0.3C50.9,64.2,50.8,64,50.7,63.8z M59,63.7h-1.8v6.7h-2.1v-6.7h-1.8V62H59V63.7z M65.7,70.5h-2l-2.1-4.3v4.3h-2.1V62h2
	l2.1,4.3V62h2.1V70.5z M24.8,46.5h4.9v4.9h-4.9V46.5z M24.8,61.3h4.9v4.9h-4.9V61.3z M24.8,31.7h4.9v4.9h-4.9V31.7z"/>
</svg>
