<?xml version="1.0" encoding="UTF-8" standalone="no"?>
<svg
   xmlns:dc="http://purl.org/dc/elements/1.1/"
   xmlns:cc="http://creativecommons.org/ns#"
   xmlns:rdf="http://www.w3.org/1999/02/22-rdf-syntax-ns#"
   xmlns:svg="http://www.w3.org/2000/svg"
   xmlns="http://www.w3.org/2000/svg"
   xmlns:sodipodi="http://sodipodi.sourceforge.net/DTD/sodipodi-0.dtd"
   xmlns:inkscape="http://www.inkscape.org/namespaces/inkscape"
   width="71.9pt"
   height="71.9pt"
   version="1.1"
   viewBox="0 0 254 254"
   id="svg79"
   sodipodi:docname="Capytale.svg"
   inkscape:version="1.0.2 (394de47547, 2021-03-26)">
  <sodipodi:namedview
     inkscape:zoom="5.22"
     inkscape:cx="26"
     inkscape:cy="68.5"
     inkscape:window-width="1868"
     inkscape:window-height="1016"
     inkscape:window-x="1972"
     inkscape:window-y="27"
     inkscape:window-maximized="1"
     inkscape:current-layer="g77" />
  <defs
     id="defs7" />
  <g
     transform="translate(-279,-173)"
     id="g77">
    <rect
       height="95.9"
       width="95.9"
       class="st0"
       y="0.1"
       x="0.1"
       id="bg"
       style="display:inline;fill:#ffa726"
       transform="matrix(2.65,0,0,2.65,279,173)" />
    <g
       transform="matrix(0.5,0,0,0.5,155,49)"
       id="g63"
       fill="#ffffff">
      <path
         d="m 357,418 q 18,0 32,7 13,6 20,18 7,11 7,28 0,10 -3,20 -3,9 -9,17 -7,8 -18,13 -10,5 -26,5 h -24 v 57 H 310 V 418 Z m 3,82 q 9,0 15,-3 5,-3 9,-7 3,-5 4,-10 2,-5 2,-8 0,-4 -1,-9 -2,-5 -5,-9 -3,-5 -9,-7 -5,-3 -14,-3 h -25 v 56 z"
         id="path61" />
    </g>
    <g
       transform="matrix(0.493,0,0,0.493,153,53.7)"
       id="g71">
      <path
         d="m 644,455 c 13,-2 17,-1 36,-16 0,0 12,5 18,5 9,1 18,0 26,-4 5,-2 10,-6 10,-11 1,-4 -2,-8 -5,-10 -2,-2 -9,-2 -9,-2 0,0 -2,-2 -3,-3 -5,-2 -9,-3 -14,-3 -7,1 -15,3 -21,6 -14,5 -25,17 -39,19 -27,2 -49,-22 -74,-16 -21,5 -40,25 -50,43 l -23,44 h 8 l -46,-89 h -32 l 60,111 v 54 h 27 v -54 l 30,-55 c 0,0 17,-24 31,-28 22,-8 47,12 70,9 z"
         id="path69"
         fill="#fff" />
    </g>
    <ellipse
       cx="704"
       cy="262"
       rx="5"
       ry="2.5"
       id="ellipse73"
       transform="matrix(0.477,0,0,0.477,163,136)"
       fill="#ffa726" />
    <path
       d="m 706,274 c 4,5 10,8 19,8"
       fill="none"
       stroke="#ffa726"
       stroke-linecap="round"
       stroke-width="3.5"
       id="path75"
       transform="matrix(0.495,0,0,0.495,151,131)" />
  </g>
  <metadata
     id="metadata1093">
    <rdf:RDF>
      <cc:Work
         rdf:about="">
        <dc:title></dc:title>
      </cc:Work>
    </rdf:RDF>
  </metadata>
</svg>
