<?xml version="1.0" encoding="UTF-8" standalone="no"?>
<svg
   xmlns:dc="http://purl.org/dc/elements/1.1/"
   xmlns:cc="http://creativecommons.org/ns#"
   xmlns:rdf="http://www.w3.org/1999/02/22-rdf-syntax-ns#"
   xmlns:svg="http://www.w3.org/2000/svg"
   xmlns="http://www.w3.org/2000/svg"
   version="1.1"
   id="svg2"
   width="95.9"
   height="95.9"
   viewBox="0 0 95.9 95.9">
  <defs
     id="defs6" />
  <rect
     height="95.9"
     width="95.9"
     class="st0"
     y="0"
     x="0"
     id="bg"
     style="fill:#ec407a" />
  <path
     class="cls-1"
     d="M 36.4,32.4 Q 49.2,19 62.7,19 a 12.7,12.7 0 0 1 7.8,2.3 8.18,8.18 0 0 1 3,6.7 c 0,6.3 -3.7,11.4 -10.8,15.9 a 56.4,56.4 0 0 1 -22.6,8 l -3.9,0.4 q -0.7,2.7 -0.9,4.2 a 19.9,19.9 0 0 0 -0.4,4 10.8,10.8 0 0 0 3.7,8.7 12.9,12.9 0 0 0 8.6,3 19.9,19.9 0 0 0 10.1,-3 81.3,81.3 0 0 0 8.9,-6.7 l 1.7,1.3 A 40.1,40.1 0 0 1 59.7,71.3 32.6,32.6 0 0 1 40.5,78.1 16.8,16.8 0 0 1 28.6,73.3 17.8,17.8 0 0 1 23.5,59.5 q 0,-13.9 12.7,-27.4 m 20.9,8.7 q 7.5,-6.7 7.5,-13.4 a 5.97,5.97 0 0 0 -1,-3.9 4.08,4.08 0 0 0 -3.3,-1.5 12.4,12.4 0 0 0 -8.2,3.7 46.5,46.5 0 0 0 -7.3,7.9 62.3,62.3 0 0 0 -5.2,10.1 c -0.8,1.7 -1.7,3.5 -2.4,5.7 a 37.5,37.5 0 0 0 19.7,-8.6"
     id="path46"
     style="fill:#ffffff;stroke-width:1.135" />
  <metadata
     id="metadata875">
    <rdf:RDF>
      <cc:Work
         rdf:about="">
        <dc:title></dc:title>
      </cc:Work>
    </rdf:RDF>
  </metadata>
</svg>
