<?xml version="1.0" encoding="utf-8"?>
<!-- Generator: Adobe Illustrator 25.1.0, SVG Export Plug-In . SVG Version: 6.00 Build 0)  -->
<svg version="1.1" id="oae" xmlns="http://www.w3.org/2000/svg" xmlns:xlink="http://www.w3.org/1999/xlink" x="0px" y="0px"
	 viewBox="0 0 96 96" style="enable-background:new 0 0 96 96;" xml:space="preserve">
<style type="text/css">
	.st0{fill:#EC407A;}
	.st1{fill:#FFFFFF;}
	.st2{fill:url(#SVGID_1_);}
	.st3{fill:url(#SVGID_2_);}
	.st4{fill:none;}
</style>
<rect id="bg" x="0" y="0.1" class="st0" width="95.9" height="95.9"/>
<g>
	<g id="corel">
		<g>
			<path class="st1" d="M25.1,69.7c-0.3,0-0.7,0-1,0.2c-0.4,0.2-0.8,0.4-1.3,0.4c-0.4,0.1-0.9,0.1-1.3,0.1c-0.8,0-1.5-0.1-2.2-0.4
				c-0.7-0.2-1.3-0.6-1.8-1.1c-0.5-0.5-0.9-1.1-1.2-1.8c-0.3-0.7-0.4-1.6-0.4-2.6c0-0.8,0.1-1.6,0.4-2.3c0.3-0.7,0.6-1.3,1.1-1.8
				s1.1-0.9,1.8-1.2c0.7-0.3,1.5-0.4,2.3-0.4c0.5,0,0.9,0,1.3,0.1c0.4,0.1,0.8,0.2,1.2,0.4c0.3,0.2,0.7,0.2,1,0.2
				c0.3,0,0.6-0.2,0.8-0.5c0.3-0.4,0.4-0.8,0.4-1.2c-0.1-0.5-0.3-0.8-0.7-1c-0.6-0.3-1.2-0.5-1.9-0.7c-0.7-0.2-1.4-0.2-2.1-0.2
				c-1.3,0-2.4,0.2-3.5,0.6c-1.1,0.4-2,1-2.8,1.8c-0.8,0.8-1.4,1.7-1.8,2.7c-0.4,1.1-0.6,2.2-0.6,3.4c0,1.4,0.2,2.7,0.7,3.8
				c0.5,1.1,1.1,2,1.9,2.7c0.8,0.7,1.8,1.3,2.8,1.6c1,0.4,2.2,0.6,3.3,0.6c0.5,0,0.9,0,1.4-0.1c0.5-0.1,0.9-0.2,1.3-0.3
				c0.4-0.1,0.9-0.3,1.3-0.5c0.4-0.2,0.7-0.5,0.7-0.9c0.1-0.4,0-0.8-0.4-1.2C25.7,69.9,25.4,69.8,25.1,69.7z M36.4,60.8
				c-1-0.6-2.1-0.9-3.3-0.9c-1.2,0-2.3,0.3-3.3,0.9c-1,0.6-1.8,1.4-2.4,2.4c-0.6,1-0.9,2.2-0.9,3.5c0,1.3,0.3,2.5,0.9,3.5
				c0.6,1,1.4,1.8,2.4,2.4c1,0.6,2.1,0.8,3.3,0.8c1.2,0,2.3-0.3,3.3-0.8c1-0.6,1.8-1.4,2.4-2.4c0.6-1,0.9-2.2,0.9-3.5
				c0-1.3-0.3-2.5-0.9-3.5C38.2,62.1,37.4,61.3,36.4,60.8z M36.2,68.8c-0.3,0.6-0.8,1.1-1.3,1.4s-1.2,0.5-1.9,0.5s-1.3-0.2-1.9-0.5
				c-0.6-0.3-1-0.8-1.3-1.4c-0.3-0.6-0.5-1.3-0.5-2.1c0-0.8,0.2-1.5,0.5-2.1c0.3-0.6,0.8-1.1,1.3-1.4c0.6-0.3,1.2-0.5,1.9-0.5
				s1.3,0.2,1.9,0.5s1,0.8,1.3,1.4c0.3,0.6,0.5,1.3,0.5,2.1C36.7,67.5,36.6,68.2,36.2,68.8z M76.1,72.4l-6.7-11.6
				c-0.5-0.9-1.6-1.2-2.4-0.8c-0.8,0.5-1,1.6-0.5,2.4l6.4,11l-6.4,11.1c-0.5,0.9-0.3,2,0.5,2.4s1.9,0.1,2.4-0.8L76,74.6
				c0.1-0.2,0.2-0.4,0.2-0.6C76.4,73.5,76.4,72.9,76.1,72.4z M49.1,61.3c0-0.4-0.2-0.7-0.5-1c-0.3-0.3-0.7-0.4-1.2-0.4
				c-0.4,0-0.8,0-1.2,0.1c-0.4,0.1-0.8,0.2-1.1,0.4c-0.4,0.2-0.7,0.5-1,0.8c-0.2,0.2-0.4,0.4-0.5,0.7v-0.3c0-0.4-0.1-0.8-0.4-1.1
				c-0.3-0.3-0.6-0.4-1-0.4c-0.4,0-0.8,0.1-1,0.4c-0.3,0.3-0.4,0.6-0.4,1.1v10c0,0.4,0.1,0.8,0.4,1.1c0.3,0.3,0.6,0.4,1,0.4
				c0.4,0,0.8-0.1,1-0.4c0.3-0.3,0.4-0.6,0.4-1.1v-5.7c0-0.6,0.1-1.1,0.2-1.5c0.2-0.4,0.4-0.8,0.6-1.1c0.3-0.3,0.5-0.5,0.8-0.6
				c0.3-0.1,0.6-0.2,0.9-0.2c0.3,0,0.6,0.1,0.9,0.2c0.3,0.1,0.5,0.2,0.8,0.2c0.3,0,0.6-0.1,0.9-0.4C49,62.2,49.1,61.8,49.1,61.3z
				 M63.6,55.2c-0.4,0-0.8,0.1-1.1,0.4c-0.3,0.3-0.4,0.6-0.4,1.1v15c0,0.4,0.1,0.8,0.4,1.1c0.3,0.3,0.6,0.4,1,0.4
				c0.4,0,0.8-0.1,1.1-0.4c0.3-0.3,0.4-0.6,0.4-1.1v-15c0-0.4-0.1-0.8-0.4-1.1C64.3,55.3,64,55.2,63.6,55.2z M59,61.8
				c-0.6-0.6-1.2-1.1-2-1.4c-0.7-0.3-1.5-0.5-2.3-0.5c-1.1,0-2.1,0.3-3,0.8c-1,0.5-1.7,1.3-2.3,2.4c-0.6,1-0.9,2.3-0.9,3.7
				c0,1.2,0.3,2.4,0.8,3.3c0.5,1,1.3,1.8,2.3,2.3c1,0.6,2.2,0.9,3.6,0.9c0.8,0,1.6-0.1,2.4-0.4c0.8-0.3,1.4-0.6,1.8-0.9
				c0.5-0.4,0.7-0.8,0.7-1.2c0-0.3-0.1-0.6-0.4-0.8c-0.2-0.2-0.5-0.4-0.9-0.4c-0.3,0-0.5,0.1-0.8,0.2c-0.2,0.1-0.4,0.2-0.6,0.4
				c-0.2,0.1-0.5,0.3-0.9,0.4c-0.4,0.1-0.8,0.1-1.4,0.1c-0.6,0-1.3-0.2-1.8-0.5c-0.6-0.3-1-0.8-1.4-1.4c-0.2-0.4-0.4-0.8-0.5-1.2h8
				c0.4,0,0.7-0.1,1-0.4c0.3-0.2,0.4-0.6,0.5-0.9c0-0.9-0.2-1.7-0.5-2.5C60,63.1,59.6,62.4,59,61.8z M57.7,65.2h-6.4
				c0-0.2,0.1-0.4,0.1-0.6c0.2-0.5,0.4-0.9,0.7-1.2c0.3-0.3,0.7-0.5,1.1-0.7c0.4-0.1,0.9-0.2,1.4-0.2c0.5,0,1,0.1,1.4,0.3
				c0.4,0.2,0.8,0.5,1.1,0.9c0.3,0.4,0.5,0.8,0.5,1.3V65.2z"/>
		</g>
	</g>
	<g id="y">
		<g>
			
				<linearGradient id="SVGID_1_" gradientUnits="userSpaceOnUse" x1="73.8021" y1="57.296" x2="81.662" y2="44.7109" gradientTransform="matrix(1 0 0 1 0 17)">
				<stop  offset="0.2242" style="stop-color:#FFFFFF;stop-opacity:0"/>
				<stop  offset="0.7888" style="stop-color:#FFFFFF"/>
			</linearGradient>
			<path class="st2" d="M82.5,60c-0.8-0.5-1.9-0.1-2.4,0.8L75.9,68c-0.5,0.9-0.3,2,0.5,2.4c0.8,0.5,1.9,0.1,2.4-0.8l4.2-7.3
				C83.5,61.5,83.3,60.4,82.5,60z"/>
		</g>
	</g>
	<g id="é">
		<g>
			
				<linearGradient id="SVGID_2_" gradientUnits="userSpaceOnUse" x1="54.6874" y1="43.9623" x2="57.6667" y2="38.8019" gradientTransform="matrix(1 0 0 1 0 17)">
				<stop  offset="0.1903" style="stop-color:#FFFFFF;stop-opacity:0"/>
				<stop  offset="0.7888" style="stop-color:#FFFFFF"/>
			</linearGradient>
			<path class="st3" d="M57.6,55.8c-0.6-0.4-1.5-0.1-1.9,0.6L54.3,59c-0.4,0.7-0.2,1.6,0.4,2c0.6,0.4,1.5,0.1,1.9-0.6l1.5-2.6
				C58.5,57.1,58.3,56.2,57.6,55.8z"/>
		</g>
	</g>
</g>
<g>
	<path class="st4" d="M-114,8.8c-1.3-2.3-4.1-3.2-6.1-2c-2.1,1.2-2.7,4-1.3,6.3l16.4,28.2l-16.4,28.5c-1.3,2.3-0.7,5.1,1.3,6.3
		c2,1.2,4.8,0.3,6.1-2l17.2-29.7c0.3-0.5,0.5-1.1,0.6-1.6c0.5-1.3,0.4-2.8-0.4-4.2L-114,8.8z"/>
	<ellipse transform="matrix(0.9732 -0.2298 0.2298 0.9732 -11.9073 -18.1679)" class="st4" cx="-84" cy="42" rx="6" ry="6"/>
</g>
<ellipse transform="matrix(0.9732 -0.2298 0.2298 0.9732 -12.6372 57.7265)" class="st4" cx="241.6" cy="83.1" rx="6" ry="6"/>
<path class="st1" d="M50.2,13.5c-10.9,0-19.8,8.9-19.8,19.8c0,10.9,8.9,19.8,19.8,19.8S70,44.2,70,33.3C70,22.3,61.1,13.5,50.2,13.5
	z M51.9,34.4c0,0.1-0.1,0.3-0.2,0.4l-4.3,7.4c-0.3,0.6-1,0.8-1.5,0.5c-0.5-0.3-0.7-1-0.3-1.6l4.1-7.1L45.6,27
	c-0.3-0.6-0.2-1.3,0.3-1.6c0.5-0.3,1.2-0.1,1.5,0.5l4.3,7.4C52,33.7,52,34.1,51.9,34.4z M52,32.1c-0.5-0.3-0.7-1-0.3-1.6l2.7-4.7
	c0.3-0.6,1-0.8,1.5-0.5c0.5,0.3,0.7,1,0.3,1.6l-2.7,4.7C53.2,32.2,52.5,32.4,52,32.1z M55,35.7c-0.8,0-1.5-0.7-1.5-1.5
	c0-0.8,0.7-1.5,1.5-1.5s1.5,0.7,1.5,1.5C56.5,35.1,55.8,35.7,55,35.7z"/>
</svg>
