<?xml version="1.0" encoding="utf-8"?>
<!-- Generator: Adobe Illustrator 22.1.0, SVG Export Plug-In . SVG Version: 6.00 Build 0)  -->
<svg version="1.1" id="doc-etab-3" xmlns="http://www.w3.org/2000/svg" xmlns:xlink="http://www.w3.org/1999/xlink" x="0px" y="0px"
	 viewBox="0 0 96 96" style="enable-background:new 0 0 96 96;" xml:space="preserve">
<style type="text/css">
	.st0{fill:#AB47BC;}
	.st1{fill:#FFFFFF;}
</style>
<rect id="bg" x="0.1" y="0.1" class="st0" width="95.9" height="95.9"/>
<path id="icone" class="st1" d="M36,36h32v11.1l4,3.6V36c0-2.2-1.8-4-4-4H52l-4-4H36c-2.2,0-4,1.8-4,4v24c0,2.2,1.8,4,4,4h14.8
	l4.5-4H36V36z M28,36h-4v10v18c0,2.2,1.8,4,4,4h25.1v-4H28V36z M66.8,52l-11,9.8h3.3v8.6h5.5v-6.5h4.3v6.5h5.5v-8.6h3.3L66.8,52z"/>
</svg>
