<?xml version="1.0" encoding="UTF-8" standalone="no"?>
<svg
   xmlns:dc="http://purl.org/dc/elements/1.1/"
   xmlns:cc="http://creativecommons.org/ns#"
   xmlns:rdf="http://www.w3.org/1999/02/22-rdf-syntax-ns#"
   xmlns:svg="http://www.w3.org/2000/svg"
   xmlns="http://www.w3.org/2000/svg"
   xml:space="preserve"
   style="enable-background:new 0 0 96 96;"
   viewBox="0 0 96 96"
   y="0px"
   x="0px"
   id="actu-tour-3"
   version="1.1"><defs
     id="defs9" /><rect
     height="95.9"
     width="95.9"
     class="st0"
     y="0.1"
     x="0.1"
     id="bg"
     style="fill:#EC407A;" /><g
     aria-label="é"
     transform="translate(12,-2)"
     id="text834"
     style="font-style:normal;font-weight:normal;font-size:21.59px;line-height:1.25;font-family:sans-serif;letter-spacing:0px;word-spacing:0px;fill:#000000;fill-opacity:1;stroke:none;stroke-width:0.54"><path
       d="m 51.6,62.8 q 0,-0.2 0.1,-0.3 0,-0.1 0,-0.2 0,-0.9 -0.5,-1.4 -0.5,-0.5 -1.4,-0.5 -1,0 -1.7,0.6 -0.7,0.7 -1.1,1.8 z m 1.1,1 h -6 q 0,0.2 0,0.4 0,0.1 0,0.3 0,0.9 0.6,1.5 0.6,0.5 1.7,0.5 0.8,0 1.6,-0.2 0.7,-0.2 1.4,-0.5 L 51.7,67 q -0.7,0.3 -1.4,0.5 -0.8,0.1 -1.5,0.1 -1.7,0 -2.6,-0.8 -0.8,-0.8 -0.8,-2.2 0,-1.2 0.4,-2.3 0.4,-1 1.3,-1.9 0.5,-0.5 1.3,-0.8 0.7,-0.3 1.6,-0.3 1.3,0 2.1,0.8 0.8,0.8 0.8,2.2 0,0.3 0,0.7 -0.1,0.4 -0.2,0.8 z M 51.6,55.9 H 53 l -2.8,2.6 h -1.1 z"
       style="fill:#ffffff"
       id="path851" /></g><path
     d="m 2260,2600 -30,-30 c -20,-30 -20,-30 -10,-40 20,-10 0,-40 -40,-70 -30,-20 -40,-30 -30,-30 30,0 20,-40 -20,-70 -20,-10 -40,-30 -30,-30 30,-10 -10,-60 -50,-60 -20,0 -20,0 -10,-20 10,-10 10,-20 10,-20 0,0 -30,-30 -60,-70 -30,-30 -60,-60 -60,-70 0,-10 0,-10 -10,-10 0,0 -30,-20 -60,-50 -60,-60 -150,-110 -260,-140 -60,-10 -60,-10 -40,-20 20,-10 30,-20 20,-30 0,-10 10,-20 20,-30 20,-10 30,-20 30,-20 l 40,-20 c 10,-10 30,-20 30,-30 0,0 10,-10 20,-10 20,-10 30,-30 10,-60 0,-30 -50,-20 -50,0 0,10 -10,0 -30,-40 -30,-60 -40,-90 -20,-90 10,0 10,-50 0,-70 -20,-20 -50,-10 -50,10 0,10 10,30 20,40 l 10,30 -20,-30 c -10,-10 -30,-20 -30,-10 -10,0 -10,0 10,-60 10,-50 -30,-100 -50,-50 0,10 -10,0 -10,-30 0,-40 -10,-50 -40,-60 -50,-10 -60,0 -60,60 0,40 0,50 10,40 10,0 10,0 0,10 0,10 -10,20 -10,30 10,30 -10,60 -30,60 h -20 l 20,-10 c 20,-10 30,-40 10,-40 -10,0 -10,0 0,-10 10,-20 10,-20 0,-30 -20,-20 -20,-20 -10,-20 20,-10 20,-30 10,-60 -20,-50 -80,-30 -80,20 0,10 0,10 -10,0 -10,-10 -40,-30 -60,-20 0,0 -10,20 -10,40 0,30 0,30 30,30 10,0 30,0 40,-10 10,-10 10,-10 10,0 0,10 10,10 30,10 40,0 20,10 -30,20 -50,0 -70,10 -60,20 0,10 60,10 60,0 10,-10 10,-10 10,0 0,10 -10,20 -30,20 -20,10 -30,20 -30,30 0,10 30,20 50,10 10,-10 10,-10 10,0 0,10 -10,20 -20,20 -20,10 -30,20 -30,30 0,0 0,10 -10,10 -10,0 -10,-10 0,-20 30,-50 -20,-30 -50,20 -20,40 -20,50 0,50 20,10 20,10 10,20 -10,20 -10,50 10,60 0,0 10,-10 10,-20 0,-10 10,-20 20,-10 10,10 10,10 0,30 -10,30 0,50 10,30 10,-10 10,-10 10,10 -10,20 0,30 10,50 20,20 20,30 0,30 -10,0 -20,-10 -30,-20 0,-10 -10,-10 -10,-10 0,10 -10,0 -20,-10 -10,-10 -50,-30 -70,-40 -50,-30 -60,-30 -183,-30 H 843 c -3,10 -16,10 -28,10 -17,-10 -28,0 -38,10 -9,10 -23,20 -38,20 -19,0 -24,0 -23,20 1,20 -4,20 -25,20 -52,0 -55,0 -37,30 l 16,20 h -35 c -40,0 -45,10 -12,30 l 22,10 h -25 c -43,0 -55,20 -29,30 13,10 31,20 41,20 9,0 20,10 23,10 3,10 -4,10 -17,10 -28,0 -55,20 -45,30 4,0 32,10 64,10 55,0 55,0 27,20 -41,10 -23,20 134,30 72,0 138,10 145,20 6,0 19,10 27,10 8,0 30,10 60,10 30,20 50,20 100,10 50,-10 140,0 160,20 10,0 30,30 50,60 40,60 70,70 110,50 10,-10 30,-30 30,-40 0,-10 0,-20 10,-20 0,0 20,10 50,30 70,30 160,90 250,160 40,30 70,60 80,60 20,0 160,80 250,150 70,50 90,70 100,60 z m -640,-770 c -10,-20 -20,-10 -10,10 0,10 10,10 10,0 10,0 10,-10 0,-10 z m 40,-10 c 0,-10 0,-10 10,0 0,20 20,10 30,-10 10,-20 10,-20 10,-10 0,30 30,30 40,0 0,-10 -10,-40 -30,-50 0,0 -20,10 -40,30 -10,10 -30,20 -30,20 l -10,10 c 0,10 0,20 10,20 10,0 10,-10 10,-10 z m -460,-170 c 0,0 0,-10 -10,-10 l -10,10 c 0,10 10,10 10,10 10,0 10,0 10,-10 z m -30,-30 c 10,-10 10,-20 0,-20 -10,-20 -10,-10 -20,20 -10,30 10,30 20,0 z m 520,0 c 20,-20 10,-70 -10,-70 -30,-10 -40,30 -30,60 20,30 30,30 40,10 z m -550,-30 c 0,-30 -20,-40 -40,-20 -10,10 -10,10 0,30 20,20 40,10 40,-10 z m 60,-40 c 10,-10 30,-40 30,-60 20,-20 20,-30 10,-30 -20,0 -90,90 -90,110 10,20 30,10 50,-20 z m -40,-40 c 20,-20 20,-20 0,-40 -20,-20 -20,-20 -40,-10 -20,10 -20,20 0,50 10,40 20,40 40,0 z m 60,-80 c 0,-20 0,-30 -20,-40 -30,-10 -50,0 -50,30 0,60 60,70 70,10 z"
     id="path2"
     style="fill:#ffffff"
     transform="matrix(0.036,0,0,-0.036,-3.08,113)" /><metadata
     id="metadata861"><rdf:RDF><cc:Work
         rdf:about=""><dc:title></dc:title></cc:Work></rdf:RDF></metadata></svg>
