<?xml version="1.0" encoding="UTF-8" standalone="no"?>
<svg
   xmlns:dc="http://purl.org/dc/elements/1.1/"
   xmlns:cc="http://creativecommons.org/ns#"
   xmlns:rdf="http://www.w3.org/1999/02/22-rdf-syntax-ns#"
   xmlns:svg="http://www.w3.org/2000/svg"
   xmlns="http://www.w3.org/2000/svg"
   version="1.1"
   id="moodle"
   x="0px"
   y="0px"
   viewBox="0 0 96 96"
   style="enable-background:new 0 0 96 96;"
   xml:space="preserve"><metadata
   id="metadata11"><rdf:RDF><cc:Work
       rdf:about=""><dc:format>image/svg+xml</dc:format><dc:type
         rdf:resource="http://purl.org/dc/dcmitype/StillImage" /><dc:title></dc:title></cc:Work></rdf:RDF></metadata><defs
   id="defs9" /><style
   type="text/css"
   id="style2">
	.st0{fill:#FFA726;}
	.st1{fill:#FFFFFF;}
</style><rect
   id="bg"
   x="0.1"
   y="0.1"
   class="st0"
   width="95.9"
   height="95.9" /><path
   d="m 22,19.8 v 24.4 h 5.1 v 9.2 l 9.2,-9.2 h 10 V 23.6 c 0,-2.1 -1.7,-3.8 -3.8,-3.8 z m 1,1 h 19.5 v 0 c 1.6,0 2.8,1.2 2.8,2.8 v 0 19.6 H 35.9 L 28.1,51 V 43.2 H 23 Z"
   id="path6"
   transform="translate(14.2,22.9)"
   class="st1" /><path
   d="M 31.4,0.381 V 21 c 0,2.1 1.6,3.8 3.7,3.8 v 0 0 H 55.8 V 14.7 L 64.9,5.55 H 55.8 V 0.381 Z m 1,0.999 h 22.4 v 5.17 h 7.7 l -7.7,7.75 v 9.5 H 35.1 c -1.5,0 -2.7,-1.3 -2.7,-2.8 v 0 z"
   id="path8"
   transform="translate(14.2,22.9)"
   class="st1" /><path
   d="M 7.96,4.03 V 14.1 l -9.17,9.1 h 9.17 v 5.2 H 32.4 V 7.81 c 0,-2.09 -1.7,-3.79 -3.8,-3.78 z m 1,1 H 28.6 v 0 c 1.6,0 2.8,1.23 2.8,2.78 V 27.4 H 8.96 V 22.2 H 1.21 l 7.75,-7.7 z"
   id="path10"
   transform="translate(14.2,22.9)"
   class="st1" /> /&gt;</svg>