<?xml version="1.0" encoding="utf-8"?>
<!-- Generator: Adobe Illustrator 22.1.0, SVG Export Plug-In . SVG Version: 6.00 Build 0)  -->
<svg version="1.1" id="previsu-courriel" xmlns="http://www.w3.org/2000/svg" xmlns:xlink="http://www.w3.org/1999/xlink" x="0px"
	 y="0px" viewBox="0 0 96 96" style="enable-background:new 0 0 96 96;" xml:space="preserve">
<style type="text/css">
	.st0{fill:#EC407A;}
	.st1{fill:#FFFFFF;}
</style>
<rect id="bg" x="0.1" y="0.1" class="st0" width="95.9" height="95.9"/>
<path id="icone" class="st1" d="M48,50.6l21-13.1v12.9c1.8,0.3,3.6,0.9,5.2,1.7V32.3c0-2.9-2.4-5.2-5.2-5.2H27
	c-2.9,0-5.3,2.4-5.3,5.2v31.5c0,2.9,2.4,5.3,5.3,5.3h20.7c-0.5-1.1-1-2.2-1.4-3.4c0.2-0.6,0.5-1.3,0.7-1.9H27V37.5L48,50.6z
	 M69,32.3L48,45.4L27,32.3H69z M66,56.4c-6.1,0-11.4,3.8-13.5,9.2c2.1,5.4,7.4,9.2,13.5,9.2s11.4-3.8,13.5-9.2
	C77.4,60.3,72.1,56.4,66,56.4z M66,71.8c-3.4,0-6.1-2.7-6.1-6.1s2.7-6.1,6.1-6.1c3.4,0,6.1,2.7,6.1,6.1C72.1,69,69.4,71.8,66,71.8z
	 M66,61.9c2,0,3.7,1.7,3.7,3.7c0,2-1.7,3.7-3.7,3.7s-3.7-1.7-3.7-3.7S64,61.9,66,61.9z"/>
</svg>
