<?xml version="1.0" encoding="utf-8"?>
<!-- Generator: Adobe Illustrator 22.1.0, SVG Export Plug-In . SVG Version: 6.00 Build 0)  -->
<svg version="1.1" id="mce-1" xmlns="http://www.w3.org/2000/svg" xmlns:xlink="http://www.w3.org/1999/xlink" x="0px" y="0px"
	 viewBox="0 0 96 96" style="enable-background:new 0 0 96 96;" xml:space="preserve">
<style type="text/css">
	.st0{fill:#66BB6A;}
	.st1{fill:#FFFFFF;}
</style>
<rect id="bg" x="0.1" y="0.1" class="st0" width="95.9" height="95.9"/>
<path id="icone" class="st1" d="M26,27.6h44.2c2.3,0,4.4,2.2,4.4,4.5v31.8c0,2.4-2.1,4.5-4.4,4.5H26c-2.3,0-4.4-2.2-4.4-4.5V32.1
	C21.6,29.8,23.7,27.6,26,27.6 M52.5,34.4v2.3h17.7v-2.3H52.5 M52.5,39v2.3h16.6h1.1V39H52.5 M52.5,43.5v2.3H68v-2.3H52.5 M39.3,52.4
	c-4.4,0-13.2,2.5-13.2,7v2.3h26.5v-2.3C52.5,54.9,43.7,52.4,39.3,52.4 M39.3,34.4c-3.7,0-6.6,3.1-6.6,6.8c0,3.8,3,6.8,6.6,6.8
	c3.7,0,6.6-3.1,6.6-6.8C45.9,37.5,42.9,34.4,39.3,34.4z"/>
</svg>
