<?xml version="1.0" encoding="utf-8"?>
<!-- Generator: Adobe Illustrator 22.1.0, SVG Export Plug-In . SVG Version: 6.00 Build 0)  -->
<svg version="1.1" id="param-etab-1" xmlns="http://www.w3.org/2000/svg" xmlns:xlink="http://www.w3.org/1999/xlink" x="0px"
	 y="0px" viewBox="0 0 96 96" style="enable-background:new 0 0 96 96;" xml:space="preserve">
<style type="text/css">
	.st0{fill:#EF5350;}
	.st1{fill:#FFFFFF;}
</style>
<rect id="bg" x="0.1" y="0.1" class="st0" width="95.9" height="95.9"/>
<path id="icone" class="st1" d="M59.5,68.5l-2.6-2c0-0.4,0.1-0.8,0.1-1.2c0-0.4,0-0.8-0.1-1.2l2.5-2c0.2-0.2,0.3-0.5,0.1-0.8
	l-2.4-4.2c-0.1-0.3-0.5-0.3-0.8-0.3l-3,1.2c-0.6-0.4-1.3-0.8-2-1.1L51,53.8c0-0.3-0.3-0.5-0.6-0.5h-4.8c-0.3,0-0.6,0.2-0.6,0.5
	L44.5,57c-0.7,0.3-1.4,0.7-2,1.1l-3-1.2c-0.3,0-0.6,0-0.7,0.3l-2.4,4.2c-0.1,0.3-0.1,0.6,0.1,0.8l2.5,2c0,0.4-0.1,0.8-0.1,1.2
	c0,0.4,0,0.8,0.1,1.2l-2.5,2c-0.2,0.2-0.3,0.5-0.1,0.8l2.4,4.2c0.1,0.3,0.5,0.3,0.7,0.3l3-1.2c0.6,0.4,1.3,0.8,2,1.1L45,77
	c0,0.3,0.3,0.5,0.6,0.5h4.8c0.3,0,0.5-0.2,0.6-0.5l0.5-3.2c0.7-0.3,1.4-0.7,2-1.1l3,1.2c0.3,0,0.6,0,0.8-0.3l2.4-4.2
	C59.8,69,59.7,68.7,59.5,68.5z M48,68.9c-2,0-3.6-1.6-3.6-3.6s1.6-3.6,3.6-3.6s3.6,1.6,3.6,3.6S50,68.9,48,68.9z M48,18.7L16.2,47.3
	h9.5v25.5H33c-1.1-2.3-1.8-4.8-1.8-7.5c0-9.2,7.5-16.7,16.7-16.7s16.7,7.5,16.7,16.7c0,2.7-0.7,5.3-1.8,7.5h7.3V47.3h9.5L48,18.7z"
	/>
</svg>
