<?xml version="1.0" encoding="utf-8"?>
<!-- Generator: Adobe Illustrator 22.1.0, SVG Export Plug-In . SVG Version: 6.00 Build 0)  -->
<svg version="1.1" id="folios-2" xmlns="http://www.w3.org/2000/svg" xmlns:xlink="http://www.w3.org/1999/xlink" x="0px" y="0px"
	 viewBox="0 0 96 96" style="enable-background:new 0 0 96 96;" xml:space="preserve">
<style type="text/css">
	.st0{fill:#26C6DA;}
	.st1{fill:#FFFFFF;}
</style>
<rect id="bg" x="0.1" y="0.1" class="st0" width="95.9" height="95.9"/>
<path id="icone" class="st1" d="M72.2,44.1c0,0-9.5,0-9.6,0c-1,0-1.8-0.8-1.8-1.8c0-0.4,0.2-0.8,0.4-1.1l9.4-9.4
	c1.5-1.5,1.5-4,0-5.6L70,25.4c-1.5-1.5-4-1.5-5.6,0L55,34.9c-0.3,0.3-0.7,0.4-1.1,0.4c-1,0-1.9-0.8-1.9-1.8c0-0.9,0-9.5,0-9.5
	c0-2.2-1.8-3.9-3.9-3.9l0,0l0,0c-2.2,0-3.9,1.8-3.9,3.9v10.4c-0.3,0.5-0.9,0.9-1.6,0.9c-0.5,0-1-0.2-1.3-0.5
	c-0.2-0.2-9.4-9.3-9.4-9.3c-1.5-1.5-4-1.5-5.6,0l-0.7,0.7c-1.5,1.5-1.5,4,0,5.6l9.6,9.6c0.2,0.3,0.3,0.6,0.3,1c0,1-0.8,1.8-1.8,1.8
	c-0.1,0-9.6,0-9.6,0c-2.2,0-3.9,1.8-3.9,3.9c0,2.2,1.8,3.9,3.9,3.9h9.6c1,0,1.8,0.8,1.8,1.8c0,0.4-0.2,0.8-0.4,1.1l-9.5,9.5
	c-1.5,1.5-1.5,4,0,5.6l0.7,0.7c1.5,1.5,4,1.5,5.6,0l9.5-9.5c0.3-0.3,0.7-0.4,1.1-0.4c0.7,0,1.3,0.4,1.6,0.9v10.5
	c0,2.2,1.8,3.9,3.9,3.9l0,0l0,0c2.2,0,3.9-1.8,3.9-3.9c0,0,0-8.7,0-9.6c0-1,0.9-1.8,1.9-1.8c0.4,0,0.7,0.1,1,0.3l9.6,9.6
	c1.5,1.5,4,1.5,5.6,0l0.7-0.7c1.5-1.5,1.5-4,0-5.6c0,0-9.4-9.5-9.3-9.3c-0.3-0.3-0.6-0.8-0.6-1.3c0-1,0.8-1.8,1.8-1.8h9.5
	c2.2,0,3.9-1.8,3.9-3.9C76.1,45.9,74.4,44.1,72.2,44.1z M54.5,43.1h-6.2v3.2h4v4.2h-4v7.9h-3.1V39.2h9.2L54.5,43.1L54.5,43.1z"/>
</svg>
