<?xml version="1.0" encoding="UTF-8" standalone="no"?>
<svg
   xmlns:dc="http://purl.org/dc/elements/1.1/"
   xmlns:cc="http://creativecommons.org/ns#"
   xmlns:rdf="http://www.w3.org/1999/02/22-rdf-syntax-ns#"
   xmlns:svg="http://www.w3.org/2000/svg"
   xmlns="http://www.w3.org/2000/svg"
   version="1.1"
   id="glpi"
   x="0px"
   y="0px"
   viewBox="0 0 96 96"
   style="enable-background:new 0 0 96 96;"
   xml:space="preserve"><defs
     id="defs9" /><style
     type="text/css"
     id="style2">
	.st0{fill:#EF5350;}
	.st1{fill:#FFFFFF;}
</style><rect
     id="bg"
     x="0.1"
     y="0.1"
     class="st0"
     width="95.9"
     height="95.9" /><path
     id="icone"
     class="st1"
     d="M31.5,64.1c2,1.3,4.6,2.4,7.6,3.4c3-1.8,5.8-3.6,8.3-5.5c-5.9-2.9-11-7.9-11-16.8  c0-22.3,28.2-20.8,32.9-20.4v-4.4c0,0-29.3-2.3-41.9,10.3C17.8,40.3,18.6,55.6,31.5,64.1z M61.8,65.1c-2.3,1.6-4.8,3.3-7.6,4.8  c4.6,0.4,9.5,0.3,14.2-0.3v-4.4C68.4,65.2,65.7,65.4,61.8,65.1z M72.4,43.8c-3.8-9.2-27.3,0.6-27.3,0.6s16.2-0.8,16.2,4.1  C61.5,63.9,21,80.4,21,80.4C55.1,69.9,76.2,53,72.4,43.8z" /><metadata
     id="metadata840"><rdf:RDF><cc:Work
         rdf:about=""><dc:title></dc:title></cc:Work></rdf:RDF></metadata></svg>