<?xml version="1.0" encoding="utf-8"?>
<!-- Generator: Adobe Illustrator 22.1.0, SVG Export Plug-In . SVG Version: 6.00 Build 0)  -->
<svg version="1.1" id="info-portail-etoile-4" xmlns="http://www.w3.org/2000/svg" xmlns:xlink="http://www.w3.org/1999/xlink"
	 x="0px" y="0px" viewBox="0 0 96 96" style="enable-background:new 0 0 96 96;" xml:space="preserve">
<style type="text/css">
	.st0{fill:#26C6DA;}
	.st1{fill:#FFFFFF;}
</style>
<rect id="bg" x="0.1" y="0.1" class="st0" width="95.9" height="95.9"/>
<path id="icone" class="st1" d="M22.5,21.5c28.9,0,52.4,23.4,52.4,52.4h-9.5C65.3,50.2,46.1,31,22.5,31l0,0V21.5 M22.5,40.5
	c18.4,0,33.3,14.9,33.3,33.3h-9.5C46.3,60.7,35.6,50,22.5,50V40.5z M30.3,57.7l2,6.4l6.7,0.2l-5.5,3.8l1.9,6.5L30,70.5l-5.5,3.9
	l2.2-6.4l-5.3-4.1l6.7,0.1L30.3,57.7z"/>
</svg>
