<?xml version="1.0" encoding="UTF-8" standalone="no"?>
<svg
   height="96"
   width="96"
   xml:space="preserve"
   viewBox="0 0 96 96"
   y="0px"
   x="0px"
   id="instantMetiers"
   version="1.1"
   xmlns="http://www.w3.org/2000/svg"
   xmlns:svg="http://www.w3.org/2000/svg"
   xmlns:rdf="http://www.w3.org/1999/02/22-rdf-syntax-ns#"
   xmlns:cc="http://creativecommons.org/ns#"><defs
     id="defs9" /><rect
     style="fill:#26c6da"
     height="95.9"
     width="95.9"
     class="st0"
     y="0.1"
     x="0.1"
     id="bg" /><metadata
     id="metadata866"><rdf:RDF><cc:Work
         rdf:about="" /></rdf:RDF></metadata><g
     id="g2752"
     transform="matrix(0.168,0,0,-0.168,74.9,66.9)"><path
       d="M 0,0 -32.1,133 -91.6,19 C -98.8,5.24 -108,-3.27 -122,-3.27 c -14,0 -23,8.51 -30,22.27 L -212,133 -244,0 h -59 l 55,217 c 5,16 14,24 30,24 13,0 23,-7 30,-20 l 68,-134 68,134 c 6.2,13 15.7,20 28.4,20 14.44,0 23.927,-8 28.18,-24 L 59.6,0 Z"
       style="fill:#ffffff;fill-opacity:1;fill-rule:nonzero;stroke:none"
       id="path2754" /><path
       d="m 204,387 h 61 V 147 h -61 z"
       style="fill:#ffffff;fill-opacity:1;fill-rule:nonzero;stroke:none"
       id="path2750"
       transform="matrix(1.02,0,0,1.02,-573,-150)" /></g></svg>
