<?xml version="1.0" encoding="utf-8"?>
<!-- Generator: Adobe Illustrator 22.1.0, SVG Export Plug-In . SVG Version: 6.00 Build 0)  -->
<svg version="1.1" id="menu-cantine-1" xmlns="http://www.w3.org/2000/svg" xmlns:xlink="http://www.w3.org/1999/xlink" x="0px"
	 y="0px" viewBox="0 0 96 96" style="enable-background:new 0 0 96 96;" xml:space="preserve">
<style type="text/css">
	.st0{fill:#616161;}
	.st1{fill:#FFFFFF;}
</style>
<rect id="bg" x="0.1" y="0.1" class="st0" width="95.9" height="95.9"/>
<path id="icone" class="st1" d="M43.7,20.2c-1.1,0-2,0.9-2,2l0.1,12.9c0,1.1-0.9,2-2,2s-2-0.9-2-2l0.1-12.9c0-1.1-0.9-2-2-2
	s-2,0.9-2,2L34,35.1c0,1.1-0.9,2-2,2s-2-0.9-2-2l0.1-12.9c0-1.1-0.9-2-2-2s-2,0.9-2,2v16.4c0,0,1,2,2.5,3.4c1.6,1.4,3.3,2.1,3.3,2.1
	v29.2c0,2.2,1.8,4,4,4s4-1.8,4-4l0.3-28.9c0,0,1.6-0.7,3.3-2.2c1.7-1.4,2.2-2.8,2.2-2.8V22.2C45.7,21.1,44.8,20.2,43.7,20.2z M66,19
	c-2.5,0-9.1,2.6-9.1,7.9s0,26.8,0,26.8h5.5L62,73.3c0,2.2,1.8,4,4,4c2.2,0,4-1.8,4-4v-53C70,20.3,68.5,19,66,19z"/>
</svg>
