<?xml version="1.0" encoding="UTF-8" standalone="no"?>
<svg
   xmlns:dc="http://purl.org/dc/elements/1.1/"
   xmlns:cc="http://creativecommons.org/ns#"
   xmlns:rdf="http://www.w3.org/1999/02/22-rdf-syntax-ns#"
   xmlns:svg="http://www.w3.org/2000/svg"
   xmlns="http://www.w3.org/2000/svg"
   xml:space="preserve"
   version="1.1"
   id="monDesk"
   x="0px"
   y="0px"
   viewBox="0 0 96 96"
   width="96"
   height="96"><defs /><rect
     id="bg"
     x="0.1"
     y="0.1"
     class="st0"
     width="95.9"
     height="95.9"
     style="fill:#ffa726" /><path
     id="icone"
     d="m 61.8,61.6 c 1.6,-7.1 3.2,-14.1 4.3,-21.3 -3.3,0 -3.5,4 -4.8,6.1 -3.1,5.1 -5.9,10.4 -10,14.7 -3.2,1.4 -5,-3.2 -3.9,-5.7 0.4,-3.8 -1.2,-7.3 -2.2,-10.8 0.1,-1.8 -2,-4 -2.5,-1.1 -1,3.1 -1.8,6.3 -3.1,9.3 -1.8,4.8 -4.9,9.6 -10,11.2 -3.4,1.3 -7.2,1.4 -10.7,0.2 -2.9,-2 2,-6.6 3.7,-3.5 1.5,1.8 4.5,1.7 6.5,0.7 4,-2.4 6.2,-7 7.1,-11.5 0.9,-5.3 2.1,-10.6 4.2,-15.6 -0.3,-3.2 -4.5,-2.8 -6.5,-1.4 -2.9,1.7 -3.9,5.2 -4.4,8.3 -1.5,3.3 -6.5,0.7 -4.1,-2.3 2.1,-5.5 7.5,-9.1 13.2,-10 2.8,-0.7 6.6,-1.9 8.7,0.8 2.1,2.8 1.7,6.5 2.9,9.7 1,3.4 2.1,6.7 3.5,9.9 3,1.6 4.2,-2.7 5.5,-4.6 4.3,-6.7 8.5,-13.9 15.1,-18.5 3.9,0 2.1,4.9 1,6.9 -1.6,6.8 -2.7,13.8 -4.8,20.4 -0.6,2.1 -0.7,6 2.4,5.6 2.6,-1.7 4.5,2.1 1.7,3.2 -3.6,1.8 -7.4,3.2 -11.3,4.1 -2.7,0.2 -2.6,-3.3 -1.5,-4.8 z"
     style="fill:#ffffff" /><metadata
     id="metadata1098"><rdf:RDF><cc:Work
         rdf:about=""><dc:title></dc:title></cc:Work></rdf:RDF></metadata></svg>