<?xml version="1.0" encoding="UTF-8" standalone="no"?>
<svg
   xmlns:dc="http://purl.org/dc/elements/1.1/"
   xmlns:cc="http://creativecommons.org/ns#"
   xmlns:rdf="http://www.w3.org/1999/02/22-rdf-syntax-ns#"
   xmlns:svg="http://www.w3.org/2000/svg"
   xmlns="http://www.w3.org/2000/svg"
   xml:space="preserve"
   height="96"
   width="96"
   viewBox="0 0 96 96"
   y="0px"
   x="0px"
   id="MSOffice"
   version="1.1"><defs
     id="defs9" /><rect
     style="fill:#3e7ab4"
     height="95.9"
     width="95.9"
     class="st0"
     y="0.1"
     x="0.1"
     id="bg" /><g
     transform="matrix(0.005,0,0,0.005,3.9,1.68)"
     id="Layer_x0020_1"><path
       style="fill:#ffffff"
       id="path6"
       d="m 10400,4190 v 9710 L 3330,12900 c 170,-100 370,-200 610,-300 200,-100 360,-100 550,-200 390,-100 790,-300 1150,-400 l 10,-6670 z m -7210,8610 c 0,0 60,100 120,100 70,100 90,100 160,100 120,100 240,100 360,200 240,0 450,100 700,200 l 4200,1600 c 1870,600 1370,700 2870,300 l 2200,-700 c 400,-100 600,-100 700,-300 V 3310 c -100,-170 -100,-120 -300,-190 l -1200,-320 c -400,-140 -900,-290 -1400,-440 -600,-160 -1000,-390 -1500,-190 L 3190,4750 Z"
       class="fil0" /></g><metadata
     id="metadata847"><rdf:RDF><cc:Work
         rdf:about=""><dc:title></dc:title></cc:Work></rdf:RDF></metadata></svg>