<?xml version="1.0" encoding="utf-8"?>
<!-- Generator: Adobe Illustrator 22.1.0, SVG Export Plug-In . SVG Version: 6.00 Build 0)  -->
<svg version="1.1" id="espace-collaboratif" xmlns="http://www.w3.org/2000/svg" xmlns:xlink="http://www.w3.org/1999/xlink"
	 x="0px" y="0px" viewBox="0 0 96 96" style="enable-background:new 0 0 96 96;" xml:space="preserve">
<style type="text/css">
	.st0{fill:#3E7AB4;}
	.st1{fill:#FFFFFF;}
</style>
<rect id="bg" x="0.1" y="0.1" class="st0" width="95.9" height="95.9"/>
<path id="icone" class="st1" d="M26.1,39c2.4,1,5.3-0.1,6.3-2.6s-0.1-5.3-2.6-6.3s-5.3,0.1-6.3,2.6S23.7,38,26.1,39z M43.2,38.6
	c0,2.6,2.2,4.8,4.8,4.8c2.7,0,4.8-2.2,4.8-4.8s-2.1-4.8-4.8-4.8S43.2,36,43.2,38.6z M68,41.5c-1.8,0-3.4,1-4.2,2.5l-6.5,6.5
	l-5.9-3.4c-0.9-0.9-2.1-1.4-3.4-1.4s-2.6,0.6-3.4,1.4l-6,3.4l-6.3-6.3c-0.8-1.6-2.4-2.7-4.3-2.7c-2.7,0-4.9,2.2-4.9,4.9v21.7
	c0,2.7,2.2,4.9,4.9,4.9s4.9-2.2,4.9-4.9v-17l3.7,3.7c0.3,0.3,0.5,0.4,0.9,0.5c0.6,0.3,1.4,0.3,2-0.1l3.7-2.2v19.1
	c0,2.7,2.2,4.9,4.9,4.9s4.9-2.2,4.9-4.9v-19l3.7,2.2c1,0.6,2.2,0.3,2.9-0.5l3.7-3.7v17.1c0,2.7,2.2,4.9,4.9,4.9s4.9-2.2,4.9-4.9
	V46.4C72.9,43.7,70.7,41.5,68,41.5z M68,39.4c2.7,0,4.8-2.2,4.8-4.8s-2.2-4.8-4.8-4.8c-2.7,0-4.8,2.2-4.8,4.8S65.4,39.4,68,39.4z
	 M39.6,45.7V22.8h9.7v6.9h6.9v16l1.1,0.7l1.6-1.8V28.3L50.7,20H39.6c-1.5,0-2.8,1.2-2.8,2.8v21.8l1.7,1.8L39.6,45.7z"/>
</svg>
