<?xml version="1.0" encoding="utf-8"?>
<!-- Generator: Adobe Illustrator 22.1.0, SVG Export Plug-In . SVG Version: 6.00 Build 0)  -->
<svg version="1.1" id="obii-personnel" xmlns="http://www.w3.org/2000/svg" xmlns:xlink="http://www.w3.org/1999/xlink" x="0px"
	 y="0px" viewBox="0 0 96 96" style="enable-background:new 0 0 96 96;" xml:space="preserve">
<style type="text/css">
	.st0{fill:#26C6DA;}
	.st1{fill:#FFFFFF;}
</style>
<rect id="bg" x="0.1" y="0.1" class="st0" width="95.9" height="95.9"/>
<path id="icone" class="st1" d="M61.8,32.7l-4.4,4.4c5.2,3.2,8.7,8.9,8.7,15.4c0,10-8.1,18.1-18.1,18.1s-18-8.1-18-18.1
	c0-6.5,3.5-12.2,8.7-15.4l-4.3-4.3C28,37.1,23.9,44.3,23.9,52.5c0,13.3,10.8,24.1,24.1,24.1s24.1-10.8,24.1-24.1
	C72.2,44.3,68.1,37.1,61.8,32.7 M51.1,32.7h-6v22.8h6 M51.1,22.4H45v5.9h6.1"/>
</svg>
