<?xml version="1.0" encoding="UTF-8" standalone="no"?>
<svg
   xmlns:dc="http://purl.org/dc/elements/1.1/"
   xmlns:cc="http://creativecommons.org/ns#"
   xmlns:rdf="http://www.w3.org/1999/02/22-rdf-syntax-ns#"
   xmlns:svg="http://www.w3.org/2000/svg"
   xmlns="http://www.w3.org/2000/svg"
   height="96"
   width="96"
   xml:space="preserve"
   viewBox="0 0 96 96"
   y="0px"
   x="0px"
   id="folios-2"
   version="1.1"><defs
     id="defs9" /><rect
     style="fill:#26c6da"
     height="95.9"
     width="95.9"
     class="st0"
     y="0.1"
     x="0.1"
     id="bg" /><g
     transform="matrix(1.71,0,0,-1.72,51.2,55.1)"
     id="g11171"><path
       id="path11173"
       style="fill:#ffffff"
       d="m 0,0 c 0.005,-1.08 -0.852,-1.94 -1.9,-1.95 -1.05,0 -1.9,0.87 -1.9,1.95 v 8.62 c 0,1.06 0.85,1.98 1.9,1.98 1.048,0 1.9,-0.92 1.9,-1.98 z m 13.9,5.66 c -0.5,0.45 -1.1,0.69 -1.7,0.69 v 0 c -0.2,0 -0.5,0 -0.9,0 H 6.61 C 6.35,6.35 6.11,6.46 5.95,6.63 5.85,6.71 5.78,6.82 5.74,6.94 5.58,7.29 5.67,7.7 5.94,7.97 l 5.26,5.23 c 1.1,1.1 1.1,2.8 0,3.9 -1,1 -2.74,1 -3.82,-0.1 L 2.13,11.8 C 1.86,11.5 1.45,11.4 1.1,11.6 0.738,11.7 0.513,12.1 0.513,12.5 V 18 c 0,0.6 -0.249,1.2 -0.696,1.7 -0.434,0.4 -0.997,0.7 -1.597,0.7 -1.27,0 -2.29,-1.1 -2.29,-2.4 v -5.5 c 0,-0.4 -0.23,-0.8 -0.59,-0.9 -0.36,-0.2 -0.77,-0.1 -1.03,0.2 L -11,17 c -1,1.1 -2.8,1.1 -3.8,0.1 -1.1,-1.1 -1,-2.8 0,-3.9 L -9.51,7.97 C -9.23,7.7 -9.15,7.29 -9.3,6.94 -9.45,6.58 -9.79,6.35 -10.2,6.35 h -5.5 c -0.7,0 -1.3,-0.24 -1.7,-0.69 -0.4,-0.44 -0.7,-1 -0.7,-1.6 0,-1.27 1.1,-2.29 2.4,-2.29 h 5.5 c 0.41,0 0.75,-0.24 0.9,-0.59 0.15,-0.36 0.1,-0.766 -0.21,-1.034 L -14.8,-5.11 c -1,-1.08 -1.1,-2.81 0,-3.87 1,-1.02 2.8,-1.02 3.8,0.1 l 5.31,5.26 c 0.26,0.27 0.67,0.35 1.03,0.2 0.36,-0.14 0.59,-0.49 0.59,-0.88 v -5.55 c 0,-1.35 1.02,-2.35 2.29,-2.35 1.264,0 2.293,1 2.288,2.36 v 5.54 c 0,0.39 0.225,0.74 0.582,0.88 0.35,0.15 0.76,0.1 1.03,-0.2 l 5.26,-5.3 C 8.47,-10 10.2,-10 11.2,-8.97 c 1.1,1.05 1.1,2.78 0,3.86 L 5.95,0.143 C 5.66,0.424 5.58,0.824 5.74,1.18 5.88,1.53 6.23,1.77 6.61,1.77 h 5.59 c 0.6,0 1.2,0.24 1.7,0.69 0.4,0.43 0.6,1 0.6,1.6 0,0.59 -0.2,1.16 -0.6,1.6" /></g><metadata
     id="metadata866"><rdf:RDF><cc:Work
         rdf:about=""><dc:title></dc:title></cc:Work></rdf:RDF></metadata></svg>