<?xml version="1.0" encoding="UTF-8" standalone="no"?>
<svg
   xmlns:dc="http://purl.org/dc/elements/1.1/"
   xmlns:cc="http://creativecommons.org/ns#"
   xmlns:rdf="http://www.w3.org/1999/02/22-rdf-syntax-ns#"
   xmlns:svg="http://www.w3.org/2000/svg"
   xmlns="http://www.w3.org/2000/svg"
   viewBox="0 0 95.9 95.9"
   height="95.9"
   width="95.9"
   xml:space="preserve"
   id="svg2"
   version="1.1"><defs
     id="defs6">
</defs><g
     transform="matrix(1.33,0,0,-1.33,-444,494)"
     id="g10"><g
       transform="matrix(0.752,0,0,-0.752,243,228)"
       id="g1158"><rect
         style="fill:#26c6da"
         height="95.9"
         width="95.9"
         class="st0"
         y="-191"
         x="121"
         id="bg" /></g><g
       transform="matrix(0.249,0,0,0.249,314,264)"
       id="g34"><g
         clip-path="url(#clipPath40)"
         id="g36"><g
           transform="translate(223,200)"
           id="g240"><path
             id="path242"
             style="fill:#ffffff;fill-opacity:1;fill-rule:nonzero;stroke:none"
             d="m 0,0 c -49.3,0 -89.6,39.8 -90.2,89.2 -0.5,49.8 39.5,90.8 89.224,90.8 0.342,0 0.684,0 1.025,0 30.551,0 58.751,-15 75.551,-41 0.1,0 0,0 -0.1,0 -0.2,0 -0.4,0 -0.4,0 -16.7,26 -44.7,41 -75.051,41 -0.341,0 -0.679,0 -1.016,0 C -50.4,179 -90.1,139 -89.5,89.2 -89,40.2 -48.9,0.63 0,0.63 c 0.338,0 0.667,0 1,0 25.4,0.289 49.5,11.37 66.3,30.47 0.1,0.1 0.3,0.1 0.4,0 0.2,-0.1 0.2,-0.3 0.1,-0.5 C 50.9,11.5 26.6,0.289 1.01,0.005 0.675,0 0.338,0 0,0" /></g><g
           transform="translate(201,289)"
           id="g244"><path
             id="path246"
             style="fill:#ffffff;fill-opacity:1;fill-rule:nonzero;stroke:none"
             d="m 0,0 c 0.216,-3.04 0.979,-5.88 2.29,-8.52 1.31,-2.68 3.02,-4.88 5.13,-6.88 2.11,-1.9 4.48,-3.4 7.28,-4.5 2.7,-1 5.5,-1.4 8.5,-1.2 3,0.2 5.7,1 8.3,2.4 2.5,1.4 4.7,3.3 6.6,5.5 1.8,2.2 3.2,4.72 4.1,7.52 1,2.8 1.3,5.716 1.1,8.75 -0.2,2.96 -1,5.78 -2.3,8.43 -1.3,2.7 -3,5 -5.2,6.9 -2.1,1.9 -4.6,3.4 -7.3,4.4 -2.7,1.1 -5.6,1.5 -8.5,1.3 -3,-0.2 -5.7,-1 -8.3,-2.5 C 9.17,20.2 6.99,18.4 5.18,16.2 3.36,14 1.99,11.5 1.07,8.7 0.146,5.85 -0.21,2.96 0,0 m -23.7,-1.69 c -0.5,6.24 0.3,12.19 2.3,17.89 2,5.7 4.9,10.7 8.7,15.1 3.77,4.5 8.34,8.1 13.686,10.8 5.344,2.8 11.114,4.4 17.414,4.9 6.2,0.4 12.2,-0.3 17.8,-2.4 5.7,-2 10.8,-4.9 15.2,-8.7 4.4,-3.8 8,-8.4 10.8,-13.8 C 65,16.8 66.6,11 67,4.76 c 0.5,-6.24 -0.3,-12.2 -2.3,-17.86 -2,-5.7 -4.9,-10.8 -8.7,-15.2 -3.9,-4.4 -8.5,-8 -13.8,-10.8 -5.4,-2.8 -11.1,-4.4 -17.4,-4.8 -6.2,-0.5 -12.2,0.3 -17.87,2.3 -5.69,2 -10.72,4.9 -15.09,8.8 -4.34,3.8 -7.94,8.4 -10.74,13.7 -2.8,5.4 -4.4,11.18 -4.8,17.41" /></g><g
           transform="translate(134,280)"
           id="g248"><path
             id="path250"
             style="fill:#ffffff;fill-opacity:1;fill-rule:nonzero;stroke:none"
             d="M 0,0 C -1.07,0 -2,0.824 -2.1,1.91 -4.23,25.3 2.57,48.3 17.1,66.8 48.2,106 106,113 146,82.3 c 7,-6.1 14,-13.3 20,-21.5 0,-1 0,-2.3 -1,-2.9 -1,-0.6 -2,-0.4 -3,0.6 C 157,66.3 150,73.2 143,79 105,109 50.1,102 20.4,64.2 6.55,46.5 0.066,24.6 2.1,2.3 2.21,1.14 1.35,0.115 0.197,0.009 0.132,0.005 0.066,0 0,0" /></g><g
           transform="translate(280,258)"
           id="g252"><path
             id="path254"
             style="fill:#ffffff;fill-opacity:1;fill-rule:nonzero;stroke:none"
             d="m 0,0 c -3.1,-5.5 -6.97,-10.6 -11.7,-15.1 -12.6,-12 -29.2,-18.5 -46.8,-18.1 -36.1,0.7 -64.5,30.38 -64.5,66.1 1,35.3 30.2,63.6 65.8,63.6 0.4,0 0.8,0 1.3,0 27.4,-0.5 50.63,-17.8 59.94,-41.6 0.23,0 0.46,0 0.68,0 -9.35,24.2 -32.82,41.7 -60.62,42.2 -0.5,0 -0.9,0 -1.3,0 -36,0 -65.8,-28.5 -65.8,-64.2 -1,-36.06 28,-66 64.5,-66.7 0.5,0 0.9,0 1.4,0 17.2,0 33.4,6.4 45.8,18.2 4.82,4.6 8.74,9.76 11.873,15.329 C 0.363,-0.222 0.17,-0.133 0,0" /></g><g
           transform="translate(211,228)"
           id="g256"><path
             id="path258"
             style="fill:#ffffff;fill-opacity:1;fill-rule:nonzero;stroke:none"
             d="m 0,0 c 0.475,-2.1 -0.845,-4.19 -2.95,-4.66 -2.1,-0.48 -4.19,0.84 -4.66,2.94 -0.48,2.104 0.84,4.19 2.94,4.67 C -2.56,3.42 -0.475,2.1 0,0" /></g><g
           transform="translate(248,353)"
           id="g260"><path
             id="path262"
             style="fill:#ffffff;fill-opacity:1;fill-rule:nonzero;stroke:none"
             d="m 0,0 c 0.475,-2.1 -0.844,-4.19 -2.95,-4.67 -2.1,-0.47 -4.19,0.85 -4.66,2.95 -0.48,2.103 0.84,4.19 2.95,4.67 C -2.56,3.42 -0.475,2.1 0,0" /></g><g
           transform="translate(173,245)"
           id="g264"><path
             id="path266"
             style="fill:#ffffff;fill-opacity:1;fill-rule:nonzero;stroke:none"
             d="M 0,0 C -0.588,0 -1.18,0.247 -1.59,0.729 -15.6,16.8 -21.1,38.9 -16.5,59.7 -13.4,74 -5.86,86.6 5.22,96.2 21,110 41.9,116 62.4,112 c 1.2,-1 1.9,-2 1.7,-3 -0.2,-1 -1.4,-2 -2.5,-2 C 42.3,111 22.8,106 7.98,93.1 -2.4,84 -9.46,72.2 -12.4,58.8 -16.7,39.3 -11.5,18.6 1.59,3.49 2.35,2.61 2.26,1.28 1.38,0.515 0.98,0.169 0.49,0 0,0" /></g><g
           transform="translate(302,337)"
           id="g268"><path
             id="path270"
             style="fill:#ffffff;fill-opacity:1;fill-rule:nonzero;stroke:none"
             d="M 0,0 C -1.11,-0.079 -2.19,-0.607 -2.93,-1.55 -4.32,-3.32 -4,-5.9 -2.23,-7.29 -1.37,-7.96 -0.273,-8.24 0.777,-8.13 1.86,-8 2.83,-7.45 3.5,-6.6 4.89,-4.82 4.58,-2.25 2.81,-0.859 1.98,-0.208 0.978,0.069 0,0 m 1.02,-14.4 c -2.48,-0.2 -5.02,0.5 -7.12,2.2 -4.5,3.51 -5.3,10.02 -1.75,14.51 C -4.33,6.8 2.18,7.59 6.67,4.07 11.2,0.547 11.9,-5.97 8.43,-10.5 6.55,-12.8 3.83,-14.2 1.02,-14.4" /></g><g
           transform="translate(141,266)"
           id="g272"><path
             id="path274"
             style="fill:#ffffff;fill-opacity:1;fill-rule:nonzero;stroke:none"
             d="M 0,0 C 0.164,-2.3 -1.57,-4.3 -3.87,-4.47 -6.18,-4.63 -8.18,-2.9 -8.34,-0.593 -8.51,1.71 -6.77,3.71 -4.47,3.87 -2.16,4.04 -0.164,2.3 0,0" /></g><g
           transform="translate(223,198)"
           id="g276"><path
             id="path278"
             style="fill:#ffffff;fill-opacity:1;fill-rule:nonzero;stroke:none"
             d="m 0,0 c -20.4,0 -40.1,6.76 -56.3,19.5 -6.2,4.9 -11.8,10.5 -16.5,16.7 -0.7,0.9 -0.5,2.3 0.4,3 0.9,0.7 2.3,0.5 3,-0.4 4.5,-5.9 9.7,-11.3 15.7,-15.9 C -35.4,8.45 -12.5,2.05 10.7,4.86 33.8,7.66 54.5,19.3 68.9,37.7 c 3.3,4.2 6.2,8.6 8.7,13.3 0.5,1 1.8,1.4 2.8,0.9 1,-0.6 1.4,-1.9 0.9,-2.9 -2.6,-4.9 -5.6,-9.6 -9,-13.9 C 57.2,15.8 35.5,3.61 11.2,0.676 7.44,0.227 3.7,0 0,0" /></g><g
           transform="translate(286,313)"
           id="g284"><path
             id="path286"
             style="fill:#ffffff;fill-opacity:1;fill-rule:nonzero;stroke:none"
             d="m 0,0 c -2.79,7.56 -6.89,14.7 -12.3,20.9 -4.3,4.9 -9.1,9.1 -14.5,12.6 -1,0.6 -2.3,0.4 -2.9,-0.6 -0.7,-1 -0.4,-2.3 0.6,-2.9 5,-3.3 9.6,-7.3 13.6,-11.8 C -10.8,12.7 -7.16,6.54 -4.56,0 Z" /></g><g
           transform="translate(280,262)"
           id="g288"><path
             id="path290"
             style="fill:#ffffff;fill-opacity:1;fill-rule:nonzero;stroke:none"
             d="m 0,0 c -3.69,-7.59 -8.85,-14.5 -15.4,-20.1 -9.8,-8.6 -21.9,-13.8 -34.8,-15.2 -1.1,-0.1 -2,-1.2 -1.8,-2.3 0.1,-1.1 1,-1.9 2.1,-1.9 0,0 0.1,0 0.2,0 13.7,1.5 26.6,7.1 37,16.2 7.59,6.5 13.433,14.46 17.41,23.3 z" /></g></g></g></g><metadata
     id="metadata1162"><rdf:RDF><cc:Work
         rdf:about=""><dc:title></dc:title></cc:Work></rdf:RDF></metadata></svg>
