<?xml version="1.0" encoding="UTF-8"?>
<svg
   xmlns="http://www.w3.org/2000/svg"
   xml:space="preserve"
   style="enable-background:new 0 0 96 96;"
   viewBox="0 0 96 96"
   y="0px"
   x="0px"
   id="PDF-Online"
   version="1.1"><style
     id="style2"
     type="text/css">
	.st0{fill:#66BB6A;}
	.st1{fill:#FFFFFF;}
</style><rect
     height="95.9"
     width="95.9"
     class="st0"
     y="0.1"
     x="0.1"
     id="bg" /><g
     id="icone"
     transform="matrix(1.43,0,0,1.43,8.56,-2.36)"><g
       id="crayon"
       transform="matrix(0.061,0,0,0.061,17.8,13.8)"
       class="st1"><path
         d="m 404,188 a 68,68 0 0 1 -9,-1 c -18,-2 -36,-11 -50,-25 v 0 c -14,-14 -23,-32 -26,-50 -2,-18.9 3,-36.9 15,-49.1 13,-12.2 31,-17.7 50,-15.1 18,2.4 35,11.5 49,25.6 14,14.1 23,31.6 26,49.6 2,19 -3,37 -15,49 -10,10 -25,16 -40,16 z m -38,-47 c 9,9 21,15 33,17 9,1 18,-1 24,-7 5,-6 7,-14 6,-24 -1,-11 -8,-23 -17,-32.4 C 394,76.5 368,71.7 356,84.1 343,96.6 348,122 366,141 Z"
         id="path4"/><path
         d="m 189,402 a 68,68 0 0 1 -9,0 c -18,-3 -35,-12 -49,-26 -14,-14 -24,-32 -26,-50 -2,-19 3,-37 15,-49 a 15,15 0 0 1 21,21 c -5,6 -8,15 -6,24 1,12 8,24 17,33 18,18 44,23 56,10 a 15.2,15.2 0 1 1 21,22 c -10,10 -24,15 -40,15 z"
         id="path6"/><path
         d="M 71.7,450 A 15,15 0 0 1 57,432 c 0.3,-1 6.5,-29 15.1,-60 C 88.3,314 98,299 105,293 L 334,62.9 a 15.3,15.3 0 1 1 22,21.2 L 126,314 c -1,1 -9,10 -25,66 -3.5,13 -6.7,25 -9.1,35 10.1,-3 22.1,-6 35.1,-9 55,-16 65,-24 66,-25 L 423,151 a 15,15 0 0 1 21,21 L 214,402 c -7,7 -22,16 -79,33 -31,8 -58.9,14 -60.1,15 a 15,15 0 0 1 -3.2,0 z"
         id="path8"/><path
         d="m 392,135 a 15,15 0 0 1 -11,-4 l -5,-5 a 15.2,15.2 0 0 1 21,-22 l 5,5 a 15,15 0 0 1 -10,26 z"
         id="path10-9"/></g><g
       id="g16"
       transform="translate(-7)"><path
         id="path10"
         d="M 17.4,53 H 15.7 V 42.9 h 2.9 c 0.5,0 0.9,0.1 1.3,0.2 0.4,0.2 0.8,0.4 1.1,0.6 0.4,0.3 0.6,0.6 0.8,1 0.3,0.4 0.4,0.9 0.4,1.3 0,0.6 -0.1,1 -0.3,1.4 -0.2,0.4 -0.4,0.8 -0.7,1.1 -0.3,0.3 -0.7,0.5 -1.1,0.6 -0.5,0.2 -1,0.3 -1.5,0.3 h -1.2 z m 0,-8.8 v 4 h 1.5 c 0.2,0 0.4,-0.1 0.6,-0.1 0.2,-0.1 0.4,-0.2 0.5,-0.4 0.2,-0.1 0.3,-0.3 0.4,-0.6 0.1,-0.3 0.2,-0.6 0.2,-1.1 0,-0.1 -0.1,-0.3 -0.1,-0.5 0,-0.2 -0.1,-0.4 -0.3,-0.6 -0.1,-0.2 -0.3,-0.4 -0.6,-0.5 -0.2,-0.2 -0.6,-0.2 -1,-0.2 z"
         style="fill:#ffffff"/><path
         id="path12"
         d="m 32.2,47.7 c 0,0.8 -0.1,1.5 -0.2,2.1 -0.2,0.6 -0.5,1.1 -0.7,1.5 -0.3,0.4 -0.6,0.7 -0.9,0.9 -0.4,0.2 -0.7,0.4 -1,0.5 -0.4,0.1 -0.6,0.2 -0.9,0.3 -0.3,0 -0.5,0 -0.6,0 H 24.1 V 42.9 h 3 c 0.9,0 1.6,0.2 2.3,0.4 0.6,0.3 1.1,0.7 1.6,1.1 0.4,0.4 0.7,1 0.9,1.5 0.2,0.6 0.3,1.2 0.3,1.8 z m -4.8,4.1 c 1.1,0 1.9,-0.4 2.4,-1.1 0.4,-0.7 0.7,-1.7 0.7,-3.1 0,-0.4 -0.1,-0.8 -0.2,-1.2 -0.1,-0.4 -0.2,-0.8 -0.5,-1.1 -0.3,-0.4 -0.7,-0.6 -1.2,-0.8 -0.5,-0.2 -1.1,-0.3 -1.9,-0.3 h -1 v 7.6 z"
         style="fill:#ffffff"/><path
         id="path14"
         d="m 36.3,44.2 v 3.1 h 4.2 v 1.2 H 36.3 V 53 H 34.6 V 42.9 h 6.3 v 1.3 z"
         style="fill:#ffffff"/></g></g></svg>
