<?xml version="1.0" encoding="utf-8"?>
<!-- Generator: Adobe Illustrator 22.1.0, SVG Export Plug-In . SVG Version: 6.00 Build 0)  -->
<svg version="1.1" id="info-ent-1" xmlns="http://www.w3.org/2000/svg" xmlns:xlink="http://www.w3.org/1999/xlink" x="0px" y="0px"
	 viewBox="0 0 96 96" style="enable-background:new 0 0 96 96;" xml:space="preserve">
<style type="text/css">
	.st0{fill:#AB47BC;}
	.st1{fill:#FFFFFF;}
</style>
<rect id="bg" x="0.1" y="0.1" class="st0" width="95.9" height="95.9"/>
<path id="icone" class="st1" d="M52.5,19.2c-3.1,0-5.6,2.5-5.6,5.6s2.5,5.6,5.6,5.6s5.6-2.5,5.6-5.6S55.6,19.2,52.5,19.2 M51.1,37
	c-4.4,0.4-16.6,10-16.6,10c-0.7,0.6-0.5,0.5,0.1,1.6c0.6,1,0.5,1.1,1.2,0.6s2-1.3,4-2.5c7.9-5.1,1.3,6.6-2.1,26.4
	c-1.3,9.8,7.5,4.7,9.7,3.2s8.3-5.6,8.8-6c0.8-0.6,0.2-1-0.4-1.9c-0.4-0.6-0.9-0.2-0.9-0.2c-2.4,1.6-6.9,5-7.5,2.8
	c-0.7-2.1,3.8-16.7,6.3-26.8C54.4,41.8,55.5,36.6,51.1,37z"/>
</svg>
