<?xml version="1.0" encoding="UTF-8" standalone="no"?>
<svg
   xmlns:dc="http://purl.org/dc/elements/1.1/"
   xmlns:cc="http://creativecommons.org/ns#"
   xmlns:rdf="http://www.w3.org/1999/02/22-rdf-syntax-ns#"
   xmlns:svg="http://www.w3.org/2000/svg"
   xmlns="http://www.w3.org/2000/svg"
   xml:space="preserve"
   viewBox="0 0 96 96"
   y="0px"
   x="0px"
   id="pearltrees"
   version="1.1"
   width="96"
   height="96"><defs /><rect
     height="95.9"
     width="95.9"
     class="st0"
     y="0.1"
     x="0.1"
     id="bg"
     style="display:inline;fill:#ffa726" /><g
     transform="matrix(0.294,0,0,0.294,13,18.9)"><g
       transform="translate(143,58.5)"
       id="Group"><path
         style="fill:#ffffff"
         id="Combined-Shape"
         d="m 42.6,61.4 3.1,-3.7 c 2.7,-3.2 4.7,-6.3 5.8,-9.3 l 23.6,28.8 c 4.3,5.5 4.1,6.5 -3.1,6.5 h -2.4 c -7.1,0 -9.8,-1.4 -14.1,-6.5 z m 0,-39.1 12.9,-15.79 c 4.3,-5.08 7,-6.5 14.1,-6.5 H 72 c 7.2,0 7.4,1.02 3.1,6.5 L 51.5,35.3 c -1.1,-3 -3.1,-6.1 -5.8,-9.3 z" /><path
         transform="matrix(-1,0,0,1,48.4,0)"
         style="fill:#ffffff"
         id="Page-1"
         d="m 41.9,83.7 c 7.1,0 7.3,-1 3,-6.5 L 20.5,47.3 c -1.9,-2.2 -2.9,-4 -2.9,-5.5 0,-1.6 1,-3.4 2.9,-5.4 L 44.9,6.51 c 4.3,-5.48 4.1,-6.5 -3,-6.5 h -2.5 c -7.1,0 -9.8,1.42 -14,6.5 L 6.61,29.3 c -7.94,9.1 -7.94,16 0,25.1 L 25.4,77.2 c 4.2,5.1 6.9,6.5 14,6.5 z" /></g><path
       style="fill:#ffffff"
       id="Fill-1"
       d="m 17,168 c 0,6 1.5,8 7.6,8 h 2 c 6.1,0 7.6,-2 7.6,-8 v -35 c 4.6,7 12.9,11 24.9,11 23.5,0 35.1,-12 35.1,-37 V 92.6 C 94.2,68.2 81.7,56.7 55.5,56.7 31.2,56.7 17,68.5 17,92.6 Z m 59.8,-60 c 0,14 -4.7,20 -21.1,20 C 39,128 34.2,122 34.2,108 V 93.1 c 0,-14.1 5.1,-20.2 21.5,-20.2 16.7,0 21.1,6.1 21.1,20.2 z" /><path
       style="fill:#ffffff"
       id="Fill-2"
       d="m 110,134 c 0,6 2,8 8,8 h 2 c 6,0 8,-2 8,-8 V 66 c 0,-6 -2,-7.6 -8,-7.6 h -2 c -6,0 -8,1.6 -8,7.6 z m 2,-93.8 c 4,4.1 11,4.1 15,0 4,-4.2 4,-10.9 0,-14.9 -4,-4.3 -11,-4.3 -15,0 -5,4 -5,10.7 0,14.9 z" /></g><metadata
     id="metadata967"><rdf:RDF><cc:Work
         rdf:about=""><dc:title></dc:title></cc:Work></rdf:RDF></metadata></svg>