<?xml version="1.0" encoding="utf-8"?>
<!-- Generator: Adobe Illustrator 22.1.0, SVG Export Plug-In . SVG Version: 6.00 Build 0)  -->
<svg version="1.1" id="ressources-doc" xmlns="http://www.w3.org/2000/svg" xmlns:xlink="http://www.w3.org/1999/xlink" x="0px"
	 y="0px" viewBox="0 0 96 96" style="enable-background:new 0 0 96 96;" xml:space="preserve">
<style type="text/css">
	.st0{fill:#AB47BC;}
	.st1{fill:#FFFFFF;}
</style>
<rect id="bg" x="0.1" y="0.1" class="st0" width="95.9" height="95.9"/>
<path id="icone" class="st1" d="M76.7,60.7v-0.6c-0.4-3.8-3.6-6.7-7.4-6.7c-1.2,0-2.3,0.3-3.2,0.7v-6.6c0,0-1.8,1-3.1,3.1
	c-1.3,2.1-1.1,3.5-1.1,3.5V60l0,0v7.7l0,0c0.2,4,3.5,7.2,7.4,7.2s7.3-3.2,7.4-7.2l0,0v-6.6c0-0.1,0-0.1,0-0.2
	C76.7,60.8,76.7,60.8,76.7,60.7z M72.6,67.4L72.6,67.4L72.6,67.4c0,1.9-1.5,3.4-3.4,3.4s-3.4-1.5-3.4-3.4c0-0.1,0-0.1,0-0.2v-6.1
	c0-0.1,0-0.1,0-0.2c0-0.1,0-0.1,0-0.2v-0.1l0,0c0.1-1.8,1.6-3.1,3.4-3.1s3.2,1.4,3.4,3.1l0,0V67.4z M53.6,32.4c0,0,0.5-2.5,3.2-4.9
	c3.4-3.1,9.4-6.1,16.4-3.1C68.5,30.5,63.5,34.4,53.6,32.4z M47.3,37.1c0,0,2.3-1.2,5.8-0.7C57.7,37,63.8,39.7,66,47
	C58.3,47.3,52.1,46,47.3,37.1z M46.8,37c0,0,1,2.4,0.1,5.8c-1.1,4.5-4.3,10.3-11.7,11.9C35.6,46.9,37.5,40.9,46.8,37z M46.1,36.3
	c0,0-1.8,1.8-5.3,2.5c-4.5,0.9-11.2,0.3-15.6-5.9C32.4,30.2,38.7,29.5,46.1,36.3z M47,35.7c0,0-2.4-0.8-4.5-3.7
	c-2.7-3.7-5.1-10-1.4-16.6C46.7,20.7,50,26,47,35.7z M34.2,67.1v-6.6l0,0c-0.2-4-3.5-7.2-7.4-7.2c-4,0-7.3,3.2-7.4,7.2l0,0v7.7l0,0
	v5.9c0,0-0.1,1.4,1.1,3.5s3.1,3.1,3.1,3.1v-6.6c1,0.5,2.1,0.7,3.2,0.7c3.8,0,7-2.9,7.4-6.7v-0.6c0-0.1,0-0.1,0-0.2
	C34.3,67.2,34.2,67.2,34.2,67.1z M30.2,67.6L30.2,67.6c-0.2,1.8-1.6,3.1-3.4,3.1s-3.2-1.4-3.4-3.1l0,0v-0.1c0-0.1,0-0.1,0-0.2
	s0-0.1,0-0.2V61c0-0.1,0-0.1,0-0.2c0-1.9,1.5-3.4,3.4-3.4s3.4,1.5,3.4,3.4l0,0l0,0V67.6z M53.5,52.9c-2.2,0-4.1,1-5.5,2.5
	c-1.3-1.5-3.3-2.5-5.5-2.5c-4,0-7.3,3.3-7.3,7.3V74h4.1V60.2c0-1.8,1.5-3.2,3.3-3.2s3.3,1.4,3.3,3.2l0,0V74H50V60.3l0,0
	c0.1-1.8,1.5-3.2,3.3-3.2s3.3,1.4,3.3,3.2l0,0v14.4c0,0,1.6-0.8,2.9-2.6c1.3-1.8,1.3-3.5,1.3-3.5v-8.3
	C60.8,56.2,57.5,52.9,53.5,52.9z"/>
</svg>
