<?xml version="1.0" encoding="utf-8"?>
<!-- Generator: Adobe Illustrator 22.1.0, SVG Export Plug-In . SVG Version: 6.00 Build 0)  -->
<svg version="1.1" id="portail-arena-2" xmlns="http://www.w3.org/2000/svg" xmlns:xlink="http://www.w3.org/1999/xlink" x="0px"
	 y="0px" viewBox="0 0 96 96" style="enable-background:new 0 0 96 96;" xml:space="preserve">
<style type="text/css">
	.st0{fill:#AB47BC;}
	.st1{fill:#FFFFFF;}
</style>
<rect id="bg" x="0.1" y="0.1" class="st0" width="95.9" height="95.9"/>
<path id="icone" class="st1" d="M48,21L23.6,33.9V39h48.9v-5.1L48,21z M50.2,35.3h-1.6v-4.2h-1.1v4.2h-1.6V27c0-0.3,0.1-0.5,0.3-0.7
	s0.5-0.3,0.9-0.3H49c0.3,0,0.6,0.1,0.9,0.3s0.4,0.4,0.4,0.7v8.3H50.2z M28.7,44.1h7.7v18h-7.7V44.1z M23.6,67.3h48.9V75H23.6V67.3z
	 M44.1,44.1h7.7v18h-7.7V44.1z M59.6,44.1h7.7v18h-7.7C59.6,62.1,59.6,44.1,59.6,44.1z M47.5,27h1.1v3.1h-1.1V27z"/>
</svg>
