<?xml version="1.0" encoding="utf-8"?>
<!-- Generator: Adobe Illustrator 22.1.0, SVG Export Plug-In . SVG Version: 6.00 Build 0)  -->
<svg version="1.1" id="echospheres" xmlns="http://www.w3.org/2000/svg" xmlns:xlink="http://www.w3.org/1999/xlink" x="0px"
	 y="0px" viewBox="0 0 96 96" style="enable-background:new 0 0 96 96;" xml:space="preserve">
<style type="text/css">
	.st0{fill:#FFA726;}
	.st1{fill:#FFFFFF;}
</style>
<rect id="bg" x="0.1" y="0.1" class="st0" width="95.9" height="95.9"/>
<path id="icone" class="st1" d="M75.1,19.8c-2.5-2.5-6.9-2.2-12,0c-0.6-0.5-1.4-0.8-2.2-0.8c-1.9,0-3.4,1.5-3.4,3.4
	c0,0.1,0,0.2,0,0.3c-1.3,0.8-2.6,1.6-3.9,2.5c-1.7-0.4-3.4-0.6-5.2-0.6c-13,0-23.5,10.5-23.5,23.5c0,1.9,0.2,3.8,0.7,5.6
	c-5,7.6-7.5,14.6-5.4,18.7c0,0.3-0.1,0.6-0.1,0.9c0,2.7,2.2,4.8,4.8,4.8c2,0,3.7-1.2,4.5-3c7.8-1.9,18.7-9.8,28-19.1
	c6.9-6.9,12.6-14.2,16-20.6c1.7-0.2,2.9-1.6,2.9-3.4c0-0.7-0.2-1.3-0.6-1.9C77.4,25.5,77.2,21.9,75.1,19.8z M60.2,25.7
	c0.2,0,0.4,0.1,0.7,0.1c1.4,0,2.6-0.8,3.1-2c2.6-1.2,4.8-1.8,6.3-1.8c0.9,0,1.6,0.2,2,0.6c0.7,0.7,0.9,2.7-0.3,6.1
	c-1.5,0.4-2.6,1.7-2.6,3.3c0,0.5,0.1,1.1,0.4,1.5c-0.4,0.8-0.9,1.5-1.3,2.3c-2.4-3.9-5.9-7.1-10.1-9.1C59,26.4,59.6,26.1,60.2,25.7z
	 M32,36.2c0.5-0.7,1.4-0.8,2.1-0.3c0.7,0.5,0.8,1.4,0.3,2.1c-2.1,2.9-3.3,6.4-3.3,10.1c0,0.8-0.7,1.5-1.5,1.5s-1.5-0.7-1.5-1.5
	C28.2,43.8,29.5,39.7,32,36.2z M35.8,67.9c-2.6,1.5-4.9,2.5-6.7,3.1c-0.8-1.5-2.4-2.6-4.3-2.6c-0.5,0-1,0.1-1.5,0.3
	c0.1-2.3,1.4-5.8,4-10.2C29.2,62.4,32.2,65.6,35.8,67.9z M60.1,58.8c-4.8,4.8-10,9.1-14.9,12.6c1,0.1,2.1,0.2,3.2,0.2
	c13,0,23.5-10.5,23.5-23.5c0-1-0.1-1.9-0.2-2.8C68.5,49.7,64.5,54.3,60.1,58.8z"/>
</svg>
