<?xml version="1.0" encoding="UTF-8" standalone="no"?>
<svg
   xmlns:dc="http://purl.org/dc/elements/1.1/"
   xmlns:cc="http://creativecommons.org/ns#"
   xmlns:rdf="http://www.w3.org/1999/02/22-rdf-syntax-ns#"
   xmlns:svg="http://www.w3.org/2000/svg"
   xmlns="http://www.w3.org/2000/svg"
   height="96"
   width="96"
   xml:space="preserve"
   viewBox="0 0 96 96"
   y="0px"
   x="0px"
   version="1.1"
   id="svg9"><defs
     id="defs9" /><rect
     style="fill:#66bb6a"
     height="95.9"
     width="95.9"
     class="st0"
     y="0.1"
     x="0.1"
     id="bg" /><g
     style="fill:#ffffff"
     id="g6"
     transform="matrix(2,0,0,2,16.4,14.9)"><path
       id="path2"
       d="M 16,0 0,8 v 4 L 2,11 V 32 H 30 V 11 l 2,1 V 8 Z M 28,30 H 4 V 10 l 12,-6 12,6 z"
       style="fill:#ffffff" /><path
       id="path4"
       d="m 21,15.8 v 6.4 c -0.1,0 -0.2,0.1 -0.3,0.1 l -8,-8 C 12.9,13.9 13,13.5 13,13 c 0,-1.7 -1.3,-3 -3,-3 -1.66,0 -3,1.3 -3,3 0,1.3 0.84,2.4 2,2.8 v 6.4 c -1.16,0.4 -2,1.5 -2,2.8 0,1.7 1.34,3 3,3 1.7,0 3,-1.3 3,-3 0,-1.3 -0.8,-2.4 -2,-2.8 v -6.4 c 0.1,0 0.2,-0.1 0.3,-0.1 l 8,8 C 19.1,24.1 19,24.5 19,25 c 0,1.7 1.3,3 3,3 1.7,0 3,-1.3 3,-3 0,-1.3 -0.8,-2.4 -2,-2.8 v -6.4 c 1.2,-0.4 2,-1.5 2,-2.8 0,-1.7 -1.3,-3 -3,-3 -1.7,0 -3,1.3 -3,3 0,1.3 0.8,2.4 2,2.8 z"
       style="fill:#ffffff" /></g><metadata
     id="metadata838"><rdf:RDF><cc:Work
         rdf:about=""><dc:title></dc:title></cc:Work></rdf:RDF></metadata></svg>