<?xml version="1.0" encoding="utf-8"?>
<!-- Generator: Adobe Illustrator 22.1.0, SVG Export Plug-In . SVG Version: 6.00 Build 0)  -->
<svg version="1.1" id="liste-logiciels-dispo" xmlns="http://www.w3.org/2000/svg" xmlns:xlink="http://www.w3.org/1999/xlink"
	 x="0px" y="0px" viewBox="0 0 96 96" style="enable-background:new 0 0 96 96;" xml:space="preserve">
<style type="text/css">
	.st0{fill:#EF5350;}
	.st1{fill:#FFFFFF;}
</style>
<rect id="bg" x="0.1" y="0.1" class="st0" width="95.9" height="95.9"/>
<path id="icone" class="st1" d="M22,45.3c-1.3-0.7-1.7-2.3-1-3.6l4-6.7c0.3-0.5,0.7-0.9,1.2-1.1l20.4-11.4C47,22.2,47.5,22,48,22
	s1.1,0.2,1.5,0.5L70,34c0.5,0.3,0.9,0.7,1.1,1.2l3.8,6.6c0.7,1.2,0.3,2.8-0.9,3.5l-2.6,1.5v12.9c0,1-0.5,1.8-1.4,2.3L49.5,73.5
	C49.1,73.8,48.6,74,48,74c-0.5,0-1.1-0.2-1.5-0.5L26,62c-0.8-0.4-1.4-1.3-1.4-2.3V45.3C23.8,45.7,22.9,45.8,22,45.3 M48,27.6
	L48,27.6V45l0,0l15.5-8.7L48,27.6 M29.8,58.2L45.4,67V49.5l-15.6-8.8L29.8,58.2 M66.2,58.2v-8.4l-13,7.5c-0.9,0.5-1.8,0.4-2.6,0V67
	L66.2,58.2 M52.8,51.5l16.3-9.4l-1.5-2.6l-16.3,9.4L52.8,51.5z"/>
</svg>
