<?xml version="1.0" encoding="utf-8"?>
<!-- Generator: Adobe Illustrator 22.1.0, SVG Export Plug-In . SVG Version: 6.00 Build 0)  -->
<svg version="1.1" id="orientation-3" xmlns="http://www.w3.org/2000/svg" xmlns:xlink="http://www.w3.org/1999/xlink" x="0px"
	 y="0px" viewBox="0 0 96 96" style="enable-background:new 0 0 96 96;" xml:space="preserve">
<style type="text/css">
	.st0{fill:#26C6DA;}
	.st1{fill:#FFFFFF;}
</style>
<rect id="bg" x="0.1" y="0.1" class="st0" width="95.9" height="95.9"/>
<path id="icone" class="st1" d="M45.3,30.1H37l11-11l11,11h-8.2v12.2c-2.1,1.3-3.9,2.8-5.5,4.6V30.1 M75.5,46.6l-11-11v8.2
	c-9.9-0.4-18.4,7.1-19.2,17c-4.3,1.5-6.5,6.2-5,10.5s6.2,6.5,10.5,5s6.5-6.2,5-10.5c-0.8-2.4-2.7-4.2-5-5C52,49.8,63,49.3,64.4,49.3
	v8.2L75.5,46.6 M44.2,48.2c-3.7-2.8-8.1-4.4-12.7-4.4v-8.2l-11,11l11,11v-8.2c3.7,0.1,7.2,1.4,10,3.8C42.2,51.5,43.1,49.8,44.2,48.2
	z"/>
</svg>
