<?xml version="1.0" encoding="UTF-8" standalone="no"?>
<!-- Created with Inkscape (http://www.inkscape.org/) -->

<svg version="1.1" id="admin-listes-1" xmlns="http://www.w3.org/2000/svg" xmlns:xlink="http://www.w3.org/1999/xlink" x="0px"
	 y="0px" viewBox="0 0 96 96" style="enable-background:new 0 0 96 96;" xml:space="preserve">
<style
     id="style2">
	.st0{fill:#66bb6a;}
	.st1{fill:#FFFFFF;}
</style><rect
     x="0"
     y="0"
     width="96"
     height="96"
     id="bg"
     class="st0" />
<path
     transform="matrix(0.906,0,0,0.892,0.403,4.68)"
     d="m 75.5,11.5 c -0.4,0 -0.8,0 -1.2,0.1 -1.7,0.1 -3.4,0.7 -4.9,1.8 -0.5,0.3 -0.9,0.7 -1.4,1.2 -1.3,-0.8 -2.8,-1.2 -4.3,-1 -1.6,0.1 -3.1,0.7 -4.3,1.7 -1.2,1 -2,2.3 -2.4,3.8 -0.3,1.5 -0.3,3 0.3,4.4 0.4,1.3 1.2,2.4 2.3,3.2 -1.2,2.7 -2.5,5.4 -3.7,8.2 -11.7,0 -23.4,0 -35.1,0 0,0 0,0 -0.1,0 -0.9,0 -1.8,0.5 -2.4,1.2 -0.4,0.6 -0.6,1.4 -0.6,2.1 0,11.3 0,22.6 0,33.9 0,0.9 0.5,1.9 1.2,2.5 0.6,0.4 1.4,0.7 2.1,0.6 h 21.2 c -0.3,0.4 -0.4,0.8 -0.5,1.2 -0.7,2.2 -1.5,4.4 -2.2,6.6 -0.1,0.3 -0.1,0.8 0.2,1.1 0.2,0.3 0.7,0.3 1,0.2 0.4,-0.1 0.8,-0.2 1.1,-0.4 2,-0.6 4,-1.3 6,-2 0.6,-0.2 1.3,-0.6 1.8,-1 0.5,-0.4 0.8,-0.8 1.2,-1.2 1.5,-1.5 3,-3 4.5,-4.5 5.5,0 11.1,0 16.7,0 1,0 2,-0.5 2.5,-1.3 0.4,-0.6 0.6,-1.3 0.6,-2 V 55.2 c 1.5,-1.5 3,-3.1 4.5,-4.6 0.5,-0.5 0.6,-1.3 0.3,-2 -0.1,-0.3 -0.3,-0.5 -0.5,-0.7 -1,-1 -1.9,-1.9 -2.9,-2.9 0.1,-0.1 0.2,-0.2 0.3,-0.3 0.1,-0.1 0.1,-0.2 0.2,-0.3 l 3.6,-8.1 c 1.4,0.3 2.9,0.2 4.3,-0.3 1.4,-0.6 2.7,-1.6 3.5,-2.9 0.8,-1.3 1.2,-2.8 1,-4.3 0,-1.5 -0.6,-3 -1.6,-4.1 -0.9,-1.1 -2.1,-1.9 -3.5,-2.3 0.3,-1.7 0.1,-3.4 -0.5,-5 -0.6,-1.5 -1.7,-2.9 -3,-3.9 -0.6,-0.5 -1.3,-0.9 -2,-1.2 -1,-0.4 -2.2,-0.7 -3.3,-0.8 z m -0.2,2.7 c 0.7,0 1.3,0.2 1.9,0.4 0.3,0.1 0.5,0.2 0.7,0.3 1.1,0.5 2.1,1.3 2.7,2.3 0.8,1.1 1.2,2.5 1.2,3.8 0,0.7 -0.2,1.4 -0.4,2.1 -0.1,0.4 0,0.9 0.3,1.2 0.3,0.3 0.6,0.4 1,0.5 1,0.1 2,0.5 2.8,1.3 0.8,0.8 1.3,2 1.3,3.2 0,1 -0.4,2.1 -1.1,2.9 -0.2,0.2 -0.4,0.4 -0.6,0.6 0,0 0,0 -0.1,0.1 -0.8,0.6 -1.9,1 -3,0.9 -0.5,0 -1.1,-0.1 -1.5,-0.4 -0.5,-0.2 -1,-0.1 -1.4,0.1 -0.2,0.2 -0.4,0.4 -0.5,0.7 l -3.6,8 C 73.9,41.7 72.7,41.2 71.6,40.7 67.5,38.9 63.4,37 59.3,35.2 59.2,35.1 59,35 58.8,34.9 c 1.3,-2.7 2.5,-5.4 3.7,-8.1 0.2,-0.5 0.1,-1 -0.2,-1.4 -0.1,-0.2 -0.3,-0.3 -0.5,-0.4 -0.9,-0.6 -1.7,-1.5 -2.1,-2.5 -0.3,-1 -0.3,-2.2 0.1,-3.2 0.4,-1.1 1.2,-2 2.2,-2.5 1,-0.6 2.2,-0.7 3.3,-0.5 0.7,0.2 1.5,0.6 2,1.1 0.7,0.7 1.1,1.6 1.1,2.5 0.1,0.6 0,1.3 -0.3,1.9 -0.2,0.4 -0.1,0.9 0.2,1.3 0.3,0.3 0.8,0.5 1.2,0.5 0.5,-0.1 0.9,-0.4 1.1,-0.8 0.5,-1.2 0.7,-2.6 0.4,-3.9 -0.2,-0.9 -0.5,-1.7 -1,-2.4 0.9,-1 2.1,-1.8 3.4,-2.1 0.6,-0.1 1.3,-0.2 1.9,-0.2 z M 83,25.6 c -0.4,0 -0.7,0.1 -0.9,0.3 -0.3,0.3 -0.5,0.8 -0.4,1.2 0.1,0.3 0.4,0.6 0.7,0.7 0.5,0.3 0.8,0.7 0.9,1.2 0.1,0.6 -0.2,1.2 -0.7,1.5 -0.4,0.4 -1,0.4 -1.5,0.2 -0.4,-0.2 -0.9,-0.1 -1.2,0.1 -0.3,0.3 -0.5,0.7 -0.4,1.2 0,0.3 0.3,0.7 0.7,0.8 0.8,0.4 1.8,0.4 2.7,0.2 0.9,-0.3 1.7,-1 2.1,-1.8 0.5,-0.7 0.7,-1.6 0.5,-2.5 -0.1,-0.9 -0.6,-1.8 -1.4,-2.4 -0.2,-0.3 -0.5,-0.4 -0.8,-0.6 -0.1,0 -0.2,0 -0.3,-0.1 z m -17.4,2.8 c -0.5,0 -1,0.4 -1.3,0.9 -0.7,1.7 -1.5,3.4 -2.2,5 -0.3,0.7 0,1.6 0.7,1.8 0.7,0.3 1.5,-0.1 1.8,-0.8 0.8,-1.7 1.5,-3.3 2.3,-5 0.2,-0.7 -0.1,-1.5 -0.7,-1.8 -0.2,-0.1 -0.4,-0.1 -0.6,-0.1 z m 4.5,2 c -0.6,0 -1.1,0.4 -1.3,0.9 -0.8,1.7 -1.6,3.4 -2.3,5.1 -0.3,0.6 0,1.5 0.7,1.7 0.7,0.3 1.6,-0.1 1.8,-0.8 0.8,-1.7 1.5,-3.3 2.3,-5 0.2,-0.7 0,-1.5 -0.7,-1.8 -0.2,-0.1 -0.4,-0.1 -0.5,-0.1 z m 4.3,2 c -0.6,0 -1.1,0.4 -1.3,0.9 -0.8,1.7 -1.5,3.3 -2.3,5 -0.2,0.7 0.1,1.5 0.8,1.8 0.7,0.3 1.5,-0.2 1.8,-0.9 0.7,-1.6 1.5,-3.3 2.2,-5 0.2,-0.6 0,-1.4 -0.7,-1.7 -0.2,-0.1 -0.3,-0.1 -0.5,-0.1 z m -53.5,5.3 h 37.5 c 2.1,0.9 4.1,1.8 6.1,2.8 2.6,1.1 5.2,2.3 7.7,3.5 v 0.3 c -0.4,0.4 -0.8,0.8 -1.2,1.2 -0.3,-0.2 -0.6,-0.5 -0.9,-0.8 -0.7,-0.6 -1.6,-0.8 -2.5,-0.5 -0.5,0.1 -1,0.4 -1.4,0.8 -2.7,2.9 -5.5,5.7 -8.3,8.5 -0.4,0.4 -0.5,1.1 -0.2,1.6 0.2,0.5 0.8,0.8 1.4,0.8 0.3,0 0.7,-0.2 0.9,-0.5 2.8,-2.8 5.6,-5.6 8.4,-8.4 0.2,0.2 0.4,0.4 0.6,0.6 -8.2,8.2 -16.3,16.5 -24.5,24.8 -7.9,0 -15.8,0 -23.6,0 -0.2,0 -0.4,-0.2 -0.4,-0.4 0,-11.3 0,-22.6 0,-33.9 0,-0.2 0.2,-0.4 0.4,-0.4 z m 7.6,6.7 c -0.6,0 -1.1,0.4 -1.3,1 -0.2,0.6 0,1.2 0.4,1.5 0.3,0.3 0.7,0.4 1.1,0.4 9,0 18.1,0 27.2,0 0.6,0 1.1,-0.4 1.3,-1 0.2,-0.5 0,-1.2 -0.4,-1.6 -0.3,-0.2 -0.7,-0.3 -1.1,-0.3 -9.1,0 -18.1,0 -27.2,0 z M 74,46.5 c 1,1 1.9,1.9 2.8,2.9 -1.4,1.4 -2.8,2.8 -4.1,4.2 -1,-1 -1.9,-1.9 -2.8,-2.8 1.3,-1.4 2.7,-2.8 4.1,-4.3 z m -23.2,5 c -7.4,0 -14.9,0 -22.3,0 v 0 0 c -0.6,0 -1.1,0.4 -1.3,1 -0.2,0.5 0,1.2 0.4,1.5 0.3,0.3 0.7,0.4 1.1,0.4 7.4,0 14.9,0 22.3,0 0.6,-0.1 1.1,-0.5 1.3,-1 0.2,-0.6 0,-1.2 -0.5,-1.6 -0.2,-0.2 -0.6,-0.3 -1,-0.3 z m 17.1,1.3 c 0.9,0.9 1.8,1.9 2.7,2.8 C 63.6,62.8 56.5,70 49.4,77.1 48.5,76.2 47.5,75.2 46.6,74.3 53.7,67.1 60.8,60 67.9,52.8 Z m 4.3,5.3 V 72 c 0.1,0.2 -0.1,0.4 -0.3,0.4 H 58.1 c 4.7,-4.8 9.4,-9.6 14.1,-14.3 z m -32.6,0.5 c -3.7,0 -7.4,0 -11.1,0 -0.6,0 -1.1,0.4 -1.3,1 -0.2,0.5 0,1.1 0.4,1.5 0.3,0.2 0.7,0.4 1.1,0.3 3.7,0 7.4,0 11.1,0 0.6,0 1.1,-0.4 1.3,-1 0.2,-0.5 0,-1.1 -0.4,-1.5 -0.3,-0.2 -0.7,-0.4 -1.1,-0.3 z m 5.1,17.9 c 0.9,0.8 1.7,1.7 2.6,2.5 -0.3,0.2 -0.6,0.3 -1,0.4 -0.9,0.3 -1.9,0.7 -2.9,1 0.4,-1.2 0.7,-2.4 1.1,-3.5 0.1,-0.2 0.2,-0.3 0.2,-0.4 z m 0.7,3.3 c 0.1,0 0.2,0 0.3,0 -0.1,0.1 -0.2,0.1 -0.3,0.2 0,-0.1 0,-0.2 0,-0.2 z"
     id="icone"
     class="st1" /></svg>
