<?xml version="1.0" encoding="UTF-8" standalone="no"?>
<svg version="1.1" id="admin-listes-1" xmlns="http://www.w3.org/2000/svg" xmlns:xlink="http://www.w3.org/1999/xlink" x="0px"
	 y="0px" viewBox="0 0 96 96" style="enable-background:new 0 0 96 96;" xml:space="preserve">
<style type="text/css">
    .st0{fill:#66bb6a;}
	.st1{fill:#FFFFFF;}
</style>
  <rect
     class="st0"
     id="bg"
     height="96"
     width="96" />
<path
     id="path4"
     class="st1"
     d="m 69.1,16.7 c -0.3,0 -0.7,0 -1,0.1 -1.6,0.1 -3.1,0.6 -4.4,1.6 -0.5,0.2 -0.8,0.6 -1.3,1 -1.1,-0.7 -2.5,-1 -3.8,-0.9 -1.4,0.1 -2.8,0.7 -3.8,1.5 -1.1,0.9 -1.8,2 -2.2,3.4 -0.2,1.3 -0.2,2.6 0.3,3.8 0.3,1.2 1.1,2.1 2,2.8 -1,4.4 -2.2,6.8 -3.3,9.2 H 18.3 18.2 c -0.8,0 -1.6,0.5 -2.1,1.1 -0.4,0.5 -0.5,1.2 -0.5,1.8 v 29.7 c 0,0.8 0.4,1.7 1,2.2 0.6,0.4 1.3,0.6 1.9,0.6 h 20.9 c -0.2,0.3 -0.3,0.7 -0.4,1 -0.6,1.9 -1.4,3.9 -2,5.8 -0.1,0.3 -0.1,0.7 0.2,1 0.2,0.2 0.6,0.2 0.9,0.1 0.3,-0.1 0.7,-0.1 1,-0.3 1.7,-0.5 3.5,-1.2 5.3,-1.8 0.6,-0.1 1.2,-0.5 1.6,-0.8 0.5,-0.4 0.7,-0.7 1.1,-1.1 l 4,-3.9 c 2.5,-0.1 5.6,-0.2 6.8,-0.2 V 72 l -4.3,0.1 C 57.8,67.9 62,63.7 66.2,59.6 v 4.9 h 2.6 V 57 c 1.3,-1.3 2.6,-2.7 4,-4 0.4,-0.5 0.5,-1.2 0.2,-1.8 0,-0.2 -0.2,-0.4 -0.4,-0.6 L 70,48.1 70.3,47.8 c 0.1,-0.1 0.1,-0.2 0.2,-0.3 l 3.2,-7.1 c 1.2,0.3 2.6,0.2 3.8,-0.2 1.3,-0.5 2.4,-1.4 3.1,-2.6 0.7,-1.1 1.1,-2.4 0.9,-5.4 0,-1.6 -0.5,-3 -1.4,-3.9 -0.8,-1 -1.9,-1.7 -3.1,-2 0.2,-1.5 0.1,-3 -0.5,-4.4 C 76,20.6 75,19.3 73.9,18.5 73.3,18 72.7,17.7 72.1,17.4 c -0.9,-0.4 -2,-0.6 -3,-0.7 z m -0.2,2.4 c 0.7,0 1.2,0.1 1.7,0.3 0.3,0.1 0.5,0.2 0.7,0.3 0.9,0.4 1.8,1.1 2.4,2 0.7,1 1,2.2 1,3.3 0,0.6 -0.1,1.3 -0.3,1.9 -0.1,0.3 0,0.8 0.3,1 0.2,0.3 0.5,0.4 0.8,0.5 0.9,0 1.8,0.4 2.5,1.1 0.8,0.7 1.2,2.1 1.2,4.8 0,0.9 -0.4,1.8 -1,2.5 l -0.5,0.6 -0.1,0.1 c -0.7,0.5 -1.7,0.8 -2.7,0.8 -0.4,0 -1,-0.1 -1.3,-0.4 -0.5,-0.2 -0.9,-0.1 -1.3,0.1 -0.1,0.2 -0.3,0.3 -0.4,0.6 l -3.2,7 c -1,-0.4 -2.1,-0.9 -3.1,-1.3 -3.6,-1.6 -7.3,-3.2 -10.9,-4.8 -0.1,-0.1 -0.3,-0.2 -0.5,-0.3 1.2,-2.4 2.3,-4.7 3.3,-9.1 0.2,-0.4 0.1,-0.9 -0.2,-1.2 0,-0.2 -0.2,-0.3 -0.4,-0.4 -0.8,-0.5 -1.5,-1.3 -1.9,-2.2 -0.2,-0.8 -0.2,-1.9 0.1,-2.8 0.4,-0.9 1.1,-1.7 2,-2.2 0.9,-0.5 1.9,-0.6 2.9,-0.4 0.6,0.2 1.4,0.5 1.8,1 0.6,0.6 1,1.4 1,2.2 0.1,0.5 0,1.1 -0.3,1.6 -0.2,0.4 -0.1,0.8 0.2,1.2 0.3,0.2 0.7,0.4 1.1,0.4 0.4,-0.1 0.8,-0.3 1,-0.7 0.4,-1 0.6,-2.3 0.3,-3.4 -0.2,-0.8 -0.4,-1.5 -0.9,-2.1 0.8,-0.9 1.9,-1.6 3.1,-1.9 0.5,0 1.1,-0.1 1.6,-0.1 z m 6.9,10 c -0.3,0 -0.6,0 -0.8,0.2 -0.3,0.3 -0.4,0.7 -0.3,1.1 0,0.2 0.3,0.5 0.6,0.6 0.4,0.3 0.7,0.7 0.8,1.2 0.1,2.4 -0.2,2.9 -0.6,3.2 -0.4,0.3 -0.9,0.3 -1.4,0.1 -0.3,-0.1 -0.8,-0.1 -1.1,0.1 -0.2,0.3 -0.4,0.6 -0.3,1.1 0,0.2 0.3,0.6 0.6,0.7 0.7,0.3 1.6,0.3 2.4,0.2 0.8,-0.3 1.5,-0.9 1.9,-1.6 0.4,-0.6 0.6,-1.4 0.4,-4.2 0,-0.8 -0.5,-1.6 -1.2,-2.1 -0.2,-0.3 -0.5,-0.4 -0.7,-0.6 -0.1,0 -0.2,0.1 -0.3,0 z m -15.5,2.4 c -0.5,0 -0.9,2.3 -1.2,2.8 -0.6,1.5 -1.3,3 -1.9,4.4 -0.3,0.6 0,1.4 0.6,1.6 0.6,0.2 1.3,-0.1 1.6,-0.7 0.7,-1.5 1.3,-2.9 2.1,-4.4 0.1,-0.6 -0.1,-1.3 -0.7,-3.4 -0.1,-0.2 -0.3,-0.3 -0.5,-0.3 z m 4,3.8 c -0.5,0 -1,0.3 -1.2,0.8 -0.7,1.5 -1.4,2.9 -2,4.4 -0.3,0.6 0,1.3 0.6,1.5 0.6,0.3 1.4,-0.1 1.6,-0.7 0.7,-1.5 1.4,-2.9 2.1,-4.4 0.2,-0.6 0,-1.3 -0.6,-1.5 -0.2,-0.1 -0.4,-0.1 -0.5,-0.1 z m 3.8,1.7 c -0.5,0 -0.9,0.4 -1.1,0.8 -0.7,1.5 -1.4,2.9 -2.1,4.4 -0.1,0.6 0.1,1.3 0.7,1.6 0.7,0.2 1.4,-0.2 1.7,-0.8 0.6,-1.4 1.3,-2.9 1.9,-4.4 0.2,-0.5 0,-1.2 -0.6,-1.5 C 68.4,37 68.3,37 68.1,37 Z m -49.7,4.7 h 35.5 l 5.4,2.4 c 2.3,1 4.7,2 6.9,3.1 v 0.3 l -1.1,1 c -0.3,-0.2 -0.5,-0.4 -0.8,-0.7 -0.6,-0.5 -1.4,-0.7 -2.2,-0.4 -0.5,0.1 -0.9,0.3 -1.3,0.7 -2.4,2.5 -4.9,5 -7.4,7.4 -0.3,0.4 -0.4,1 -0.2,1.4 0.2,0.5 0.8,0.7 1.3,0.7 0.3,0 0.6,-0.1 0.8,-0.4 l 7.5,-7.4 0.5,0.6 C 56,57.5 48.8,64.8 41.5,72.1 H 18.4 c -0.2,0 -0.3,-0.2 -0.3,-0.4 V 42 c 0,-0.2 0.1,-0.3 0.3,-0.3 z m 6.8,5.8 c -0.5,0 -1,0.4 -1.2,0.9 -0.1,0.5 0,1.1 0.4,1.3 0.3,0.3 0.6,0.4 1,0.4 h 26.2 c 0.6,0 1,-0.4 1.2,-0.9 0.2,-0.4 0,-1 -0.4,-1.4 -0.2,-0.2 -0.6,-0.3 -0.9,-0.3 z m 42.6,1.9 2.5,2.5 -3.7,3.7 -2.5,-2.4 c 1.2,-1.3 2.4,-2.5 3.7,-3.8 z m -42.6,4.4 c -0.5,0 -1,0.3 -1.2,0.8 -0.1,0.5 0,1.1 0.4,1.4 0.3,0.2 0.6,0.3 1,0.3 h 21.9 c 0.5,-0.1 1,-0.4 1.1,-0.9 0.2,-0.5 0,-1 -0.4,-1.4 -0.2,-0.1 -0.5,-0.2 -0.9,-0.2 z m 37.1,1.1 2.5,2.5 C 58.5,63.7 52.2,70 45.8,76.2 L 43.3,73.8 C 49.7,67.5 56,61.2 62.3,54.9 Z M 25.2,60 c -0.5,0 -1,0.3 -1.2,0.9 -0.1,0.4 0,0.9 0.4,1.3 0.3,0.2 0.6,0.3 1,0.3 h 11.9 c 0.5,0 1,-0.4 1.1,-0.9 0.2,-0.5 0,-1 -0.3,-1.3 C 37.9,60.1 37.6,60 37.4,60 h -0.3 z m 16.5,15.7 c 0.8,0.7 1.5,1.5 2.3,2.2 -0.3,0.2 -0.6,0.2 -0.9,0.3 -0.8,0.3 -1.7,0.7 -2.6,0.9 0.3,-1 0.6,-2.1 1,-3.1 0.1,-0.1 0.2,-0.2 0.2,-0.3 z m 0.6,2.9 h 0.2 c 0,0.1 -0.1,0.1 -0.2,0.2 z"
     transform="translate(0,-3.16)" />
<path
     d="m 65.7,52.3 c -0.3,0 -0.5,0.2 -0.5,0.4 l -0.4,2.8 c -0.6,0.3 -1.2,0.6 -1.8,1 l -2.6,-1 c -0.2,0 -0.5,0 -0.6,0.3 l -2.1,3.6 c -0.1,0.2 -0.1,0.5 0.1,0.7 l 2.2,1.7 c 0,0.4 -0.1,0.7 -0.1,1 0,0.3 0,0.7 0.1,1 l -2.2,1.7 c -0.2,0.2 -0.3,0.4 -0.1,0.7 l 2.1,3.6 c 0.1,0.3 0.4,0.3 0.6,0.3 l 2.6,-1 c 0.5,0.4 1.1,0.7 1.8,1 l 0.4,2.8 c 0,0.3 0.3,0.4 0.5,0.4 h 4.2 c 0.2,0 0.5,-0.2 0.5,-0.4 l 0.4,-2.8 c 0.6,-0.3 1.2,-0.6 1.8,-1 l 2.6,1 c 0.3,0 0.5,0 0.7,-0.3 L 78,66.2 c 0.1,-0.2 0.1,-0.5 -0.1,-0.7 l -2.2,-1.7 c 0,-0.4 0.1,-0.7 0.1,-1 0,-0.3 0,-0.7 -0.1,-1 l 2.2,-1.7 c 0.2,-0.2 0.3,-0.4 0.1,-0.7 l -2.1,-3.6 c -0.1,-0.3 -0.4,-0.3 -0.7,-0.3 l -2.6,1 c -0.6,-0.4 -1.1,-0.7 -1.8,-1 l -0.4,-2.8 c 0,-0.3 -0.3,-0.4 -0.5,-0.4 m -2.1,7.3 c 1.7,0 3.1,1.4 3.1,3.1 0,1.7 -1.4,3.1 -3.1,3.1 -1.8,0 -3.1,-1.4 -3.1,-3.1 0,-1.7 1.4,-3.1 3.1,-3.1 z"
     id="icone"
     class="st1"
     transform="translate(1.49,10.3)" />
</svg>
