<?xml version="1.0" encoding="UTF-8"?>
<!-- Created with Inkscape (http://www.inkscape.org/) -->
<svg width="96" height="96" version="1.1" viewBox="0 0 25.4 25.4" xmlns="http://www.w3.org/2000/svg">
 <rect x="-.0011512" y=".0016187" width="25.402" height="25.4" ry="0" fill="#66bb6a" stroke-width=".39572"/>
 <g>
  <g>
   <g transform="matrix(.17679 0 0 .17679 1.111 .65531)">
    <g transform="matrix(.40089 .1815 -.1815 .40089 77.27 -.68623)" fill="#fff">
     <g fill="#fff">
      <g fill="#fff">
       <path d="m54.184 11.734c-0.59067 0.27767-1.172 0.57391-1.7443 0.88808-5.2463 2.8579-9.6598 7.2186-12.578 12.432-1.0442 1.8571-1.9004 3.819-2.5543 5.8467-5.141-0.63666-10.469 0.37538-15.02 2.8502-4.6729 2.5179-8.5033 6.5577-10.771 11.357-2.232 4.6794-2.9559 10.06-2.0404 15.163 0.88536 5.0497 3.362 9.8048 6.996 13.422 3.1834 3.1911 7.2427 5.494 11.613 6.5944 6.83e-4 10.24-9.66e-4 20.481 0.0014 30.721-0.07992 0.37937-0.0025 0.76626 0.0872 1.1341l-13.451 6.0897c-3.0795-4.2628-7.4001-7.7407-12.454-9.33-2.3256-0.72333-4.7848-1.062-7.2181-0.87866-0.46456-0.18995-0.96563-0.0989-1.4154 0.0875-1.6525 0.42218-3.3255 0.8311-4.8547 1.6104l-0.04081 0.0185-0.03918 0.0191c-5.0004 2.4744-8.6471 7.3226-9.9808 12.704-0.99982 3.9493-0.95877 8.129-0.06726 12.094-3.901 1.7819-7.8295 3.504-11.706 5.3381-4.0117 2.0402-7.6235 5.0968-9.7756 9.0983-2.3993 4.3907-2.6925 9.7357-1.296 14.492 0.55822 1.7704 1.2235 3.5054 1.8248 5.2618 8.6326 24.384 17.278 48.763 25.915 73.145 5.0232 14.161 10.033 28.326 15.064 42.484 1.7896 4.7002 5.1668 8.883 9.6625 11.224 4.3604 2.3251 9.6645 2.6338 14.335 1.0994 1.6586-0.53994 3.2053-1.3604 4.8052-2.0457 15.257-6.8962 30.507-13.811 45.761-20.714 27.433-12.421 54.868-24.84 82.297-37.269 4.7944-2.2684 8.6347-6.6074 10.028-11.755 1.367-4.9102 0.57048-10.272-1.713-14.783-1.21-2.3584-2.5762-4.6326-3.8438-6.96-17.776-31.797-35.552-63.593-53.328-95.389l-1.2e-4 -27.272c4.8378-0.96074 9.3645-3.4229 12.792-6.9706 3.6519-3.7436 6.0515-8.6836 6.7331-13.869 0.68733-5.0813-0.27724-10.368-2.7096-14.881-2.394-4.483-6.226-8.1783-10.792-10.409-4.3092-2.1245-9.2486-2.9479-14.013-2.3259-1.5332-5.4724-4.5653-10.511-8.6719-14.438-4.0665-3.9072-9.1828-6.7118-14.669-8.0228-2.5852-0.62656-5.2499-0.9214-7.9094-0.89359-4.5692 0.046373-9.1247 1.0892-13.259 3.0328zm3.5414 8.4468c2.5034-1.2295 5.23-2.0046 8.01-2.252 0.87095-0.07904 1.7461-0.10911 2.6204-0.09063 4.0967 0.08634 8.1607 1.3034 11.628 3.4878 3.8714 2.4191 6.9944 6.0179 8.8285 10.2 0.94476 2.1367 1.5421 4.4199 1.808 6.7395 0.2169 1.5399 1.286 2.9193 2.7203 3.5189 1.1047 0.48245 2.394 0.48644 3.512 0.04399 3.4029-1.1774 7.2181-1.1137 10.574 0.19694 3.7085 1.42 6.8055 4.3416 8.4556 7.9516 1.5618 3.3598 1.837 7.2888 0.7733 10.837-0.24667 0.83519-0.56604 1.649-0.95037 2.4305-0.0248 0.05075-0.14011 0.28045-0.20363 0.39823-1.7184 3.2764-4.6668 5.8772-8.123 7.1929-1.6517 0.62898-3.4124 0.9912-5.1814 1.0096-1.5926-0.04944-3.1668 0.81487-3.9903 2.1768-0.51082 0.81388-0.72422 1.7882-0.67777 2.7429l0.06745 29.976c-4.204 0.0454-8.4079 0.0155-12.612 0.0236-15.276 2e-3 -30.553-3e-3 -45.829 4e-3 -0.63837 1e-3 -1.2763 4e-3 -1.9147 5e-3 -3e-3 -10.17 0.0016-20.341-0.0062-30.511-0.03963-1.6263-1.0299-3.1814-2.4835-3.9102-0.65171-0.34942-1.3896-0.48684-2.1214-0.52738-3.7758-0.37268-7.3864-2.1542-9.9898-4.9125-2.5566-2.677-4.1259-6.2678-4.3598-9.9617-0.27143-3.9122 0.96124-7.9043 3.3943-10.98 2.3271-2.9748 5.7441-5.0676 9.4494-5.796 2.6365-0.52674 5.4088-0.38273 7.9704 0.43695 2.9183 1.1656 5.3924 3.3972 6.8443 6.185 1.0018 1.8919 1.5249 4.0254 1.5488 6.1642 0.07893 1.5676 1.0417 3.0476 2.435 3.7669 1.4036 0.75318 3.1988 0.68544 4.5419-0.17088 1.3288-0.81766 2.1767-2.3533 2.1445-3.9152-0.06725-4.4998-1.5309-8.9654-4.1387-12.633-1.7336-2.4554-3.968-4.5573-6.5172-6.1445 1.3485-4.3068 4.0177-8.1822 7.5453-10.995 1.3052-1.0482 2.7257-1.9497 4.2278-2.6874zm40.756 24.182c-0.80089 0.39708-1.4692 1.0644-1.8335 1.8862-0.6135 1.3127-0.40543 2.959 0.51974 4.0752 0.75247 0.94398 1.9604 1.4879 3.165 1.4471 1.7487 0.02557 3.45 0.97644 4.3799 2.4587 1.078 1.6461 1.1271 3.8967 0.11781 5.5865-0.91989 1.6144-2.7322 2.6705-4.5918 2.665-1.39-0.02591-2.7548 0.75888-3.4305 1.9739-0.75545 1.2925-0.66127 3.0188 0.23399 4.2196 0.75292 1.0598 2.0622 1.6808 3.3587 1.6095 3.1515-0.03232 6.2691-1.2571 8.603-3.3744 2.3956-2.1412 3.9591-5.1879 4.2848-8.3858 0.31927-2.9297-0.3845-5.959-1.9758-8.4411-1.7609-2.7844-4.5961-4.8692-7.7878-5.695-1.1391-0.29652-2.3181-0.4436-3.4952-0.42323-0.53936 0.01769-1.0677 0.15942-1.5483 0.39765zm-49.112 32.599c-1.7708 0.77532-2.973 2.7564-2.9121 4.7094 0.0197 6.2516-0.03836 12.506 0.0303 18.756 0.15758 2.4232 2.3084 4.6977 4.8248 4.4856 2.5615-0.12172 4.4315-2.6786 4.3201-5.1392-0.01971-6.2183 0.03842-12.44-0.03023-18.656-0.18028-2.3701-2.155-4.565-4.6272-4.4959-0.56974 1e-3 -1.1098 0.1232-1.6057 0.3403zm16.53 3.65e-4c-1.7708 0.77532-2.973 2.7564-2.9121 4.7094 0.0197 6.2516-0.03836 12.506 0.03029 18.756 0.15759 2.4232 2.3079 4.6966 4.8243 4.4845 2.5615-0.12171 4.432-2.6774 4.3206-5.1381-0.01971-6.2183 0.03955-12.44-0.0291-18.657-0.18027-2.3701-2.155-4.565-4.6272-4.4959-0.56973 1e-3 -1.111 0.12371-1.6068 0.34081zm16.139-2.21e-4c-1.7708 0.77528-2.9733 2.7567-2.912 4.7094 0.0184 6.2536-0.03678 12.509 0.0273 18.761 0.16576 2.4208 2.312 4.692 4.8278 4.4802 2.5617-0.12153 4.4308-2.679 4.3201-5.1392-0.0197-6.2183 0.03842-12.44-0.03023-18.656-0.18091-2.3698-2.1548-4.5653-4.6272-4.4959-0.56971 8.78e-4 -1.1098 0.12322-1.6057 0.3403zm-88.544 43.893c1.6109-0.94356 3.6389-0.82739 5.3381-0.18978 1.6197 0.59765 3.0538 1.6205 4.2911 2.8118-2.8965 1.3223-5.8167 2.596-8.6899 3.967-2.0554 1.1116-3.3094 3.5335-2.9918 5.8549 0.27071 2.6997 2.4644 5.1663 5.2003 5.4961 1.5995 0.25328 3.1605-0.35963 4.5661-1.059l32.028-14.5c3.3161 4.6101 8.1412 8.243 13.683 9.6576 4.3197 1.122 9.0987 0.69592 13.025-1.4827 1.9825-1.2011 3.0842-3.6635 2.6666-5.9427-0.38271-2.6516-2.5987-5.0216-5.3105-5.2959-1.3532-0.18393-2.6814 0.27053-3.8948 0.8247-2.0087 0.67352-4.2147 0.0882-5.9912-0.945-1.7328-1.0298-3.1962-2.4374-4.3676-4.0642 6.4753-4e-3 12.95-8e-3 19.426-0.0112 11.785 3e-3 23.571-6e-3 35.356 6e-3 0.29575 1.0934 0.70698 2.2302 1.3862 3.4452l-125.84 56.972c-1.9415-5.5005-3.916-10.99-5.8234-16.502-0.52761-1.6991-0.52855-3.6544 0.42684-5.2074 1.2086-2.0847 3.3391-3.4179 5.4826-4.3881l10.245-4.6385c3.3977 4.7518 8.4249 8.4398 14.155 9.7721 4.1242 0.95819 8.6103 0.50846 12.37-1.4796 1.7854-1.0313 2.9941-3.0373 2.9316-5.1158 0.0152-2.8344-2.0715-5.615-4.8933-6.1638-1.466-0.3249-2.9761 0.0765-4.2989 0.71666-1.9906 0.71047-4.2014 0.15556-5.9823-0.85887-3.416-1.9832-5.8099-5.4327-6.9724-9.1628-0.93831-3.0029-1.17-6.3514-0.00488-9.3265 0.49988-1.2674 1.2601-2.5094 2.4825-3.1897zm-16.018 67.096c42.572-19.274 85.144-38.548 127.72-57.822 15.855 28.37 31.714 56.738 47.558 85.114 1.0599 1.9752 1.6556 4.3523 1.0123 6.5574-0.39616 1.4993-1.5051 2.7152-2.8305 3.4743-1.0762 0.6016-2.2341 1.0385-3.3458 1.5694-42.735 19.346-85.468 38.699-128.21 58.036-1.6522 0.72333-3.6446 0.83651-5.2622-0.044-2.1094-1.0826-3.471-3.2073-4.225-5.3939-10.806-30.497-21.611-60.994-32.416-91.491zm96.968-30.411c-3.2416 1.5124-5.6246 4.4884-6.9023 7.7797-1.1901 3.059-2.3189 6.1425-3.4866 9.2104l-13.656 36.251c-3.7632-1.4059-7.5091-2.8576-11.286-4.2261-4.2919-1.3699-9.2857-0.66076-12.847 2.1642-1.9142 1.4857-3.2952 3.5929-4.0431 5.8868-0.92933 2.5086-1.9234 4.9941-2.7954 7.523-0.97314 3.3078-0.35876 6.9855 1.454 9.896 1.7908 2.9334 4.6837 5.1298 7.9339 6.2108 9.861 3.7018 19.715 7.425 29.582 11.109 3.7061 1.2577 7.98 0.65084 11.19-1.5902 2.3347-1.5929 4.0789-3.9901 4.9644-6.6674 8.0409-21.348 16.09-42.695 24.119-64.047 1.5273-4.319 0.90519-9.4271-1.9171-13.086-1.4956-1.994-3.6586-3.4278-6.0143-4.204-2.4575-0.91904-4.8941-1.8972-7.3699-2.765-2.9121-0.89245-6.1536-0.72726-8.926 0.5545zm5.1858 11.104c0.56142 0.13162 1.0816 0.4063 1.632 0.58093 1.9507 0.73787 3.9082 1.462 5.8526 2.2142 0.39284 0.59021 0.09816 1.3309-0.10859 1.9359-4.696 12.444-9.3723 24.895-14.063 37.341-3.3278 8.8348-6.6557 17.669-9.9835 26.504-0.26408 0.22844-0.6109 0.44214-0.96437 0.43801-9.925-3.7273-19.846-7.4712-29.765-11.216-0.42452-0.20375-0.9023-0.4967-1.0198-0.98514 0.35592-1.0102 0.75603-2.0061 1.1254-3.0125 0.52579-1.408 1.0509-2.817 1.5996-4.2163 0.56288-0.37502 1.2792-0.11553 1.8562 0.0955 5.4713 2.0503 10.927 4.1415 16.405 6.1724 2.6484 0.84542 5.7892-0.41329 7.1002-2.8702 0.57588-1.0785 0.89196-2.2689 1.3596-3.3945 6.0916-16.171 12.179-32.344 18.28-48.511 0.18453-0.37949 0.34022-0.8194 0.6932-1.0762z" fill="#fff"/>
      </g>
     </g>
    </g>
    <g transform="matrix(.1975 0 0 .1975 26.32 42.258)"></g>
   </g>
  </g>
 </g>
</svg>
