<?xml version="1.0" encoding="utf-8"?>
<!-- Generator: Adobe Illustrator 22.1.0, SVG Export Plug-In . SVG Version: 6.00 Build 0)  -->
<svg version="1.1" id="derniere-actu-tour-2" xmlns="http://www.w3.org/2000/svg" xmlns:xlink="http://www.w3.org/1999/xlink"
	 x="0px" y="0px" viewBox="0 0 96 96" style="enable-background:new 0 0 96 96;" xml:space="preserve">
<style type="text/css">
	.st0{fill:#EC407A;}
	.st1{fill:#FFFFFF;}
</style>
<rect id="bg" x="0.1" y="0.1" class="st0" width="95.9" height="95.9"/>
<path id="icone" class="st1" d="M65.6,47.6c-7.4,0-13.3,6-13.3,13.3c0,7.4,6,13.3,13.3,13.3S79,68.3,79,60.9
	C79,53.6,73,47.6,65.6,47.6z M65.6,70.8c-5.4,0-9.8-4.4-9.8-9.8s4.4-9.8,9.8-9.8s9.8,4.4,9.8,9.8C75.5,66.4,71,70.8,65.6,70.8z
	 M66.6,54.6h-2v7.6l6.6,4.3l1.1-1.7l-5.7-3.7V54.6z M49.1,63.1c-2.1-0.1-3.7-0.3-4.3-0.3c-1.4-0.1-3.7-0.2-6-0.2
	c-2.4,0-7.7,0.4-8.7,0.6l0.4-1.9c1.8-0.2,5.6-0.5,8.6-0.5c3.5,0.1,7,0.4,9.9,0.7c0-0.2,0-0.4,0-0.6c0-0.2,0-0.4,0-0.7
	c-2.9-0.3-6.3-0.6-9.8-0.7c-2.8-0.1-6.4,0.2-8.4,0.5l0.4-1.8c0,0,1.8-0.3,3.3-0.4c0.6,0,2.4-0.1,3.2-0.1c1.3,0,5.6,0.2,9.2,0.6
	c0.2,0,1.1,0.1,2.3,0.3c1.1-8.1,8.1-14.4,16.5-14.4c2.6,0,5,0.6,7.2,1.7V25.8l-4.1,4.1l-4.1-4.1l-4.1,4.1l-4.1-4.1l-4.1,4.1
	l-4.1-4.1L44,29.9l-4.1-4.1l-4.1,4.1l-4.1-4.1l-4.1,4.1l-4.1-4.1v39.6c0,2.7,2.2,4.9,5,4.9H52C50.4,68.2,49.4,65.7,49.1,63.1z
	 M50.3,40.9l0.3-1.4h4.7l-1.2,6.6h-1.8c-1.6,0-2.4,3.3-3.1,6.8c-0.4,2.3-0.8,4.4-0.8,4.4c-1.5-0.2-0.7-0.1-1.5-0.2l1.5-7.6
	c0,0,0.2-2.6,2.2-4.3c1-0.8,2.3-0.8,2.3-0.8l0.8-3.5H50.3z M32.9,49.2c0.3-1.3-0.9-3-0.9-3s0,0,0-0.1l1.2-6.4c0-0.1,0.1-0.1,0.1-0.1
	h2.4c0.1,0,0.1,0,0.1,0.1l-0.2,1.1h1.7l0.2-1.1c0-0.1,0.1-0.1,0.1-0.1H40c0.1,0,0.1,0.1,0.1,0.1l-0.2,1.1h1.7l0.2-1.1
	c0,0,0-0.1,0.1-0.1h2.4c0,0,0.1,0,0.1,0.1l-0.2,1.1h1.7l0.2-1.1c0-0.1,0.1-0.1,0.1-0.1h2.4c0,0,0.1,0,0.1,0.1l-1.2,6.4
	c0,0,0,0,0,0.1c0,0-1.7,0.9-2,3L44,56.8c-6.4-0.5-10.3-0.4-12.5,0.1L32.9,49.2z"/>
</svg>
