<?xml version="1.0" encoding="UTF-8" standalone="no"?>
<svg
   xmlns:dc="http://purl.org/dc/elements/1.1/"
   xmlns:cc="http://creativecommons.org/ns#"
   xmlns:rdf="http://www.w3.org/1999/02/22-rdf-syntax-ns#"
   xmlns:svg="http://www.w3.org/2000/svg"
   xmlns="http://www.w3.org/2000/svg"
   version="1.1"
   height="96"
   width="96"
   xml:space="preserve"
   viewBox="0 0 96 96"
   y="0px"
   x="0px"
   id="vie-scolaire1"><defs
     id="defs2" /><rect
     style="fill:#616161"
     height="95.9"
     width="95.9"
     class="st0"
     y="0.1"
     x="0.1"
     id="bg" /><path
     d="m 80.2,7.2 h -62 c -5,0 -8,3 -8,7 V 82 c 0,4.3 3,7.9 8,7.9 h 62 c 4,0 7,-3.6 7,-7.9 V 14.2 c 0,-4 -3,-7 -7,-7 m -3,72.3 h -57 V 17.2 h 57 z m -47,-26.3 h 37 v 5.6 h -37 z m 0,10.8 h 37 v 5.1 h -37 z m 6,-33.8 c 0,-4 3,-8 7,-8 5,0 8,4 8,8 0,4 -3,8 -8,8 -4,0 -7,-4 -7,-8 m 13,8 h -11 c -4,0 -8,2 -8,5 v 5 h 26 v -5 c 0,-3 -3,-5 -7,-5"
     style="fill:#ffffff"
     id="icone" /><metadata
     id="metadata833"><rdf:RDF><cc:Work
         rdf:about=""><dc:title></dc:title></cc:Work></rdf:RDF></metadata></svg>