<?xml version="1.0" encoding="UTF-8" standalone="no"?>
<!-- Generator: Adobe Illustrator 22.1.0, SVG Export Plug-In . SVG Version: 6.00 Build 0)  -->

<svg
   version="1.1"
   id="actu-centre-2"
   x="0px"
   y="0px"
   viewBox="0 0 96 96"
   style="enable-background:new 0 0 96 96;"
   xml:space="preserve"
   sodipodi:docname="DRTIC.svg"
   xmlns:inkscape="http://www.inkscape.org/namespaces/inkscape"
   xmlns:sodipodi="http://sodipodi.sourceforge.net/DTD/sodipodi-0.dtd"
   xmlns="http://www.w3.org/2000/svg"
   xmlns:svg="http://www.w3.org/2000/svg"><defs
     id="defs9" /><sodipodi:namedview
     id="namedview7" /><style
     type="text/css"
     id="style2">.st0{fill:#EC407A;}
.st1{fill:#FFFFFF;}</style><rect
     id="bg"
     x="0.1"
     y="0.1"
     class="st0"
     width="95.9"
     height="95.9" /><g
     id="g35424"
     transform="matrix(1.34,0,0,1.34,-5.86,-1.45)"
     class="st1"><g
       aria-label="DR "
       id="text2623"><path
         d="M 19.3,45 V 33.6 H 22 q 2,0 3.1,1.3 1.1,1.2 1.1,3.5 v 1.9 q 0,2.2 -1.1,3.5 Q 24,45 21.9,45 Z m 1.5,-10.1 v 8.9 h 1.1 q 1.5,0 2.2,-0.9 0.7,-0.9 0.7,-2.5 v -2.1 q 0,-1.8 -0.7,-2.6 -0.7,-0.8 -2.1,-0.8 z"
         id="path35426" /><path
         d="m 31.9,40.4 h -2 V 45 H 28.5 V 33.6 h 3.1 q 1.7,0 2.6,0.9 0.8,0.9 0.8,2.5 0,1.1 -0.4,1.9 -0.5,0.8 -1.3,1.2 l 2.2,4.8 V 45 h -1.6 z m -2,-1.2 h 1.7 q 0.9,0 1.5,-0.6 0.5,-0.6 0.5,-1.6 0,-2.1 -2,-2.1 h -1.7 z"
         id="path35428" /></g><g
       aria-label="TIC"
       transform="translate(0.355,-8.38)"
       id="text17653"><path
         d="M 45.7,41 H 42 V 53.6 H 38.9 V 41 h -3.7 v -2.6 h 10.5 z"
         id="path35678" /><path
         d="M 50.7,53.6 H 47.6 V 38.4 h 3.1 z"
         id="path35675" /><path
         id="path35672"
         d="m 63.6,48.5 q -0.2,2.6 -1.5,4 -1.3,1.3 -3.8,1.3 -2.6,0 -3.9,-1.7 Q 53,50.4 53,47.3 v -2.6 q 0,-3.1 1.4,-4.8 1.4,-1.7 3.9,-1.7 2.5,0 3.8,1.4 1.3,1.4 1.5,4 h -3.1 q 0,-1.6 -0.5,-2.2 -0.4,-0.6 -1.7,-0.6 -1.2,0 -1.7,0.8 -0.5,0.9 -0.5,2.9 v 2.8 q 0,2.3 0.5,3.1 0.5,0.9 1.7,0.9 1.2,0 1.7,-0.6 0.4,-0.6 0.5,-2.2 z" /></g></g></svg>
