<?xml version="1.0" encoding="utf-8"?>
<!-- Generator: Adobe Illustrator 22.1.0, SVG Export Plug-In . SVG Version: 6.00 Build 0)  -->
<svg version="1.1" id="site-web-etab" xmlns="http://www.w3.org/2000/svg" xmlns:xlink="http://www.w3.org/1999/xlink" x="0px"
	 y="0px" viewBox="0 0 96 96" style="enable-background:new 0 0 96 96;" xml:space="preserve">
<style type="text/css">
	.st0{fill:#66BB6A;}
	.st1{fill:#FFFFFF;}
</style>
<rect id="bg" x="0.1" y="0.1" class="st0" width="95.9" height="95.9"/>
<path id="icone" class="st1" d="M60.1,53.6c0.2-1.8,0.4-3.7,0.4-5.6s-0.2-3.7-0.4-5.6h9.4c0.4,1.8,0.7,3.6,0.7,5.6s-0.3,3.8-0.7,5.6
	 M55.2,69c1.7-3.1,3-6.4,3.8-9.9h8.2C64.6,63.7,60.3,67.3,55.2,69 M54.5,53.6h-13C41.2,51.7,41,49.9,41,48s0.2-3.8,0.4-5.6h13
	c0.3,1.8,0.4,3.7,0.4,5.6S54.8,51.7,54.5,53.6 M48,70.2c-2.3-3.3-4.2-7-5.3-11h10.6C52.2,63.1,50.3,66.8,48,70.2 M36.9,36.9h-8.1
	c2.6-4.6,6.9-8.2,12-9.9C39.1,30,37.8,33.4,36.9,36.9 M28.7,59.1h8.1c1,3.5,2.2,6.8,3.9,9.9C35.7,67.3,31.4,63.7,28.7,59.1
	 M26.5,53.6c-0.4-1.8-0.7-3.6-0.7-5.6s0.3-3.8,0.7-5.6h9.4c-0.2,1.8-0.4,3.7-0.4,5.6s0.2,3.7,0.4,5.6 M48,25.8
	c2.3,3.3,4.2,7.1,5.3,11H42.7C43.8,32.9,45.7,29.2,48,25.8 M67.3,36.9H59c-0.9-3.5-2.2-6.8-3.8-9.9C60.3,28.7,64.6,32.2,67.3,36.9
	 M48,20.2c-15.4,0-27.8,12.5-27.8,27.8c0,15.4,12.5,27.8,27.8,27.8S75.8,63.4,75.8,48S63.4,20.2,48,20.2z"/>
</svg>
