<?xml version="1.0" encoding="utf-8"?>
<!-- Generator: Adobe Illustrator 22.1.0, SVG Export Plug-In . SVG Version: 6.00 Build 0)  -->
<svg version="1.1" id="indicateurs-usage-1" xmlns="http://www.w3.org/2000/svg" xmlns:xlink="http://www.w3.org/1999/xlink"
	 x="0px" y="0px" viewBox="0 0 96 96" style="enable-background:new 0 0 96 96;" xml:space="preserve">
<style type="text/css">
	.st0{fill:#EF5350;}
	.st1{fill:#FFFFFF;}
</style>
<rect id="bg" x="0.1" y="0.1" class="st0" width="95.9" height="95.9"/>
<path id="icone" class="st1" d="M73.2,45.2H50.8V22.8C63.2,22.8,73.2,32.8,73.2,45.2 M67.6,50.8c0,7.8-4,14.6-10,18.7L46.8,50.8
	H67.6 M45.2,73.2c-7.8,0-14.6-4-18.7-10l18.1-10.5l10.5,18.1C52.2,72.3,48.8,73.2,45.2,73.2 M22.8,50.8c0-12.4,10-22.4,22.4-22.4
	v20.7l-20,11.6C23.7,57.8,22.8,54.4,22.8,50.8z"/>
</svg>
