<?xml version="1.0" encoding="utf-8"?>
<!-- Generator: Adobe Illustrator 22.1.0, SVG Export Plug-In . SVG Version: 6.00 Build 0)  -->
<svg version="1.1" id="netocentre-video" xmlns="http://www.w3.org/2000/svg" xmlns:xlink="http://www.w3.org/1999/xlink" x="0px"
	 y="0px" viewBox="0 0 96 96" style="enable-background:new 0 0 96 96;" xml:space="preserve">
<style type="text/css">
	.st0{fill:#EC407A;}
	.st1{fill:#FFFFFF;}
</style>
<rect id="bg" x="0.1" y="0.1" class="st0" width="95.9" height="95.9"/>
<path id="icone" class="st1" d="M68.6,36.6c0,0-1.9,6.7-3,10.1c0.4,1.5,0.6,3,0.6,4.6c0,9.7-8,17.5-17.9,17.5S30.4,61,30.4,51.3
	c0-9.5,7.7-17.2,17.3-17.5c0-3,0-7,0-7C34.2,27.1,23.3,38,23.3,51.4C23.3,65,34.6,76,48.5,76s25.2-11,25.2-24.6
	C73.7,45.8,71.8,40.7,68.6,36.6z M57.3,45h5.5L66,34.4V20H51.2v14.4h7.4L57.3,45z M55.9,51.5l-9.8,9.9V41.6L55.9,51.5z"/>
</svg>
