<?xml version="1.0" encoding="utf-8"?>
<!-- Generator: Adobe Illustrator 22.1.0, SVG Export Plug-In . SVG Version: 6.00 Build 0)  -->
<svg version="1.1" id="rapport-erreur-ypareo-1" xmlns="http://www.w3.org/2000/svg" xmlns:xlink="http://www.w3.org/1999/xlink"
	 x="0px" y="0px" viewBox="0 0 96 96" style="enable-background:new 0 0 96 96;" xml:space="preserve">
<style type="text/css">
	.st0{fill:#EF5350;}
	.st1{fill:#FFFFFF;}
</style>
<rect id="bg" x="0.1" y="0.1" class="st0" width="95.9" height="95.9"/>
<path id="icone" class="st1" d="M78.5,57.7c-0.1-0.3-0.3-0.4-0.6-0.4c-3.5,0.8-5.9,3.2-7.8,5.1c-1.4,1.4-2.6,2.6-3.8,2.7
	c-2.5,0.2-5.7-4.2-6.8-5.9c-0.1-0.2-0.4-0.3-0.7-0.2c-0.2,0.1-0.3,0.4-0.2,0.7c3.9,8,7,9.5,8.3,9.7c-2.3,10.5-8.4,14-8.8,14.2
	c-0.2,0.1-0.3,0.4-0.2,0.7c0.1,0.2,0.3,0.3,0.4,0.3c0.1,0,0.2,0,0.2-0.1c0,0,0,0,0.1,0c1-0.5,9.7-5.3,10.8-11.8
	c0.8-4.4,1.2-6.4,2.4-8.5c2.7-4.7,6.3-5.9,6.4-5.9C78.4,58.2,78.6,57.9,78.5,57.7z M45.1,62.3h5.7v-5.7h-5.7V62.3z M50.8,33.7h-5.7
	v17.2h5.7V33.7z M57.3,69c-2.8,1.3-6,2-9.3,2c-12.6,0-22.9-10.3-22.9-22.9s10.3-23,22.9-23S70.9,35.4,70.9,48
	c0,3.6-0.9,7.1-2.4,10.1c2-1.7,4.3-4.8,7.8-6.2c0.3-1.3,0.4-2.6,0.4-3.9c0-15.8-12.8-28.7-28.7-28.7c-15.8,0-28.7,12.8-28.7,28.7
	S32.2,76.7,48,76.7c4.9,0,9.6-1.3,13.7-3.5C60.7,72.8,59.2,71.7,57.3,69z"/>
</svg>
