<?xml version="1.0" encoding="utf-8"?>
<!-- Generator: Adobe Illustrator 22.1.0, SVG Export Plug-In . SVG Version: 6.00 Build 0)  -->
<svg version="1.1" id="suivi-admin" xmlns="http://www.w3.org/2000/svg" xmlns:xlink="http://www.w3.org/1999/xlink" x="0px"
	 y="0px" viewBox="0 0 96 96" style="enable-background:new 0 0 96 96;" xml:space="preserve">
<style type="text/css">
	.st0{fill:#616161;}
	.st1{fill:#FFFFFF;}
</style>
<rect id="bg" x="0.1" y="0.1" class="st0" width="95.9" height="95.9"/>
<path id="icone" class="st1" d="M62.2,20.5c0.8-0.3,1.2-1.1,1-1.8c-0.2-0.8-1-1.2-1.8-1.1c-7.8,1.8-13.1,7-17.4,11.3
	c-3.1,3.1-5.7,5.7-8.2,5.9c-5.4,0.4-12.3-9.1-14.5-12.8c-0.4-0.7-1.3-0.9-2-0.5s-1,1.3-0.6,2C27,40.5,33.6,44.3,36.9,45
	c-5.1,22.6-18.2,30.2-19.2,30.7h-0.1c-0.7,0.4-1,1.3-0.6,2c0.3,0.5,0.8,0.8,1.3,0.8c0.2,0,0.5-0.1,0.7-0.2c0,0,0.1,0,0.2-0.1
	c2.1-1.1,21.4-11.7,24-26.3c1.7-9.7,2.6-14.1,5.2-18.5C54.1,23.3,62.1,20.5,62.2,20.5z M51.7,46.3c-0.3,1.7-0.6,3.5-1,5.6
	c0,0.1,0,0.2-0.1,0.2h27v-5.8H51.7z M53,40.6h24.6v-5.8H55.1C54.2,36.6,53.6,38.4,53,40.6z M44.8,63.8h32.8V58h-29
	C47.6,60,46.3,62,44.8,63.8z"/>
</svg>
